<svg width="16" height="16" viewBox="0 0 16 16" fill="none" xmlns="http://www.w3.org/2000/svg">
<path d="M6 12.7967L6 3.20468L11.481 8.00068L6 12.7967ZM6.659 13.5497L12.139 8.75368C12.2464 8.65982 12.3325 8.54407 12.3915 8.41419C12.4505 8.28432 12.481 8.14332 12.481 8.00068C12.481 7.85804 12.4505 7.71705 12.3915 7.58717C12.3325 7.4573 12.2464 7.34154 12.139 7.24768L6.66 2.45168C6.011 1.88568 5 2.34568 5 3.20468L5 12.7967C4.99984 12.9889 5.05509 13.1771 5.15914 13.3388C5.26319 13.5004 5.41164 13.6287 5.58669 13.7081C5.76175 13.7876 5.956 13.8149 6.14618 13.7868C6.33636 13.7587 6.51441 13.6764 6.659 13.5497Z" fill="black"/>
</svg>
