<svg width="22" height="22" viewBox="0 0 22 22" fill="none" xmlns="http://www.w3.org/2000/svg">
<path d="M21.2132 12.7279C21.5883 12.3529 21.799 11.8442 21.799 11.3137C21.799 10.7833 21.5883 10.2746 21.2132 9.89951L12.7279 1.41423C12.3528 1.03915 11.8441 0.82844 11.3137 0.82844C10.7833 0.82844 10.2746 1.03915 9.89949 1.41423L1.41421 9.89951C1.03914 10.2746 0.828427 10.7833 0.828427 11.3137C0.828427 11.8442 1.03914 12.3529 1.41421 12.7279L9.89949 21.2132C10.2746 21.5883 10.7833 21.799 11.3137 21.799C11.8441 21.799 12.3528 21.5883 12.7279 21.2132L21.2132 12.7279ZM7.84959 10.8138H13.6422L11.6849 8.85652C11.5912 8.76276 11.5385 8.63558 11.5385 8.50297C11.5385 8.37036 11.5912 8.24319 11.6849 8.14942C11.7787 8.05565 11.9059 8.00297 12.0385 8.00297C12.1711 8.00297 12.2983 8.05565 12.392 8.14942L15.2028 10.9602C15.2966 11.0539 15.3492 11.1811 15.3492 11.3137C15.3492 11.4463 15.2966 11.5735 15.2028 11.6673L12.392 14.478C12.2983 14.5718 12.1711 14.6245 12.0385 14.6245C11.9059 14.6245 11.7787 14.5718 11.6849 14.478C11.5912 14.3843 11.5385 14.2571 11.5385 14.1245C11.5385 13.9919 11.5912 13.8647 11.6849 13.7709L13.6422 11.8136H7.84959C7.71851 11.8114 7.59356 11.7577 7.50167 11.6642C7.40977 11.5707 7.35828 11.4448 7.35828 11.3137C7.35828 11.1826 7.40977 11.0568 7.50167 10.9633C7.59356 10.8697 7.71851 10.8161 7.84959 10.8138Z" fill="#A73333"/>
</svg>
