<svg width="36" height="36" viewBox="0 0 36 36" fill="none" xmlns="http://www.w3.org/2000/svg">
<g clip-path="url(#clip0_36_747)">
<path d="M18 36C19.1935 36 20.3381 35.5259 21.182 34.682C22.0259 33.8381 22.5 32.6935 22.5 31.5H13.5C13.5 32.6935 13.9741 33.8381 14.818 34.682C15.6619 35.5259 16.8065 36 18 36ZM18 4.31549L16.2067 4.67774C14.1723 5.0914 12.3434 6.19571 11.03 7.80356C9.71653 9.4114 8.99937 11.4239 9 13.5C9 14.913 8.6985 18.4432 7.96725 21.9195C7.60725 23.6452 7.12125 25.443 6.4755 27H29.5245C28.8787 25.443 28.395 23.6475 28.0327 21.9195C27.3015 18.4432 27 14.913 27 13.5C27.0001 11.4243 26.2827 9.41231 24.9693 7.80493C23.656 6.19756 21.8274 5.09357 19.7932 4.67999L18 4.31549ZM31.995 27C32.4967 28.0057 33.0772 28.8022 33.75 29.25H2.25C2.92275 28.8022 3.50325 28.0057 4.005 27C6.03 22.95 6.75 15.48 6.75 13.5C6.75 8.05499 10.62 3.50998 15.7613 2.47273C15.7298 2.15988 15.7644 1.84392 15.8626 1.54522C15.9608 1.24653 16.1205 0.971737 16.3315 0.738566C16.5424 0.505394 16.7999 0.319023 17.0872 0.19147C17.3746 0.0639177 17.6856 -0.00198364 18 -0.00198364C18.3144 -0.00198364 18.6254 0.0639177 18.9128 0.19147C19.2001 0.319023 19.4576 0.505394 19.6686 0.738566C19.8795 0.971737 20.0392 1.24653 20.1374 1.54522C20.2356 1.84392 20.2702 2.15988 20.2388 2.47273C22.7823 2.98923 25.069 4.36929 26.7113 6.37903C28.3536 8.38877 29.2505 10.9046 29.25 13.5C29.25 15.48 29.97 22.95 31.995 27Z" fill="#A73333"/>
</g>
<defs>
<clipPath id="clip0_36_747">
<rect width="36" height="36" fill="white"/>
</clipPath>
</defs>
</svg>
