<svg width="102" height="102" viewBox="0 0 102 102" fill="none" xmlns="http://www.w3.org/2000/svg">
<g clip-path="url(#clip0_36_840)">
<path d="M51 102C54.3815 102 57.6245 100.657 60.0156 98.2656C62.4067 95.8745 63.75 92.6315 63.75 89.25H38.25C38.25 92.6315 39.5933 95.8745 41.9844 98.2656C44.3755 100.657 47.6185 102 51 102ZM51 12.2272L45.9191 13.2536C40.1548 14.4256 34.9729 17.5545 31.2515 22.1101C27.5302 26.6656 25.4982 32.3677 25.5 38.25C25.5 42.2535 24.6458 52.2558 22.5739 62.1052C21.5539 66.9948 20.1769 72.0885 18.3472 76.5H83.6527C81.8231 72.0885 80.4525 67.0012 79.4261 62.1052C77.3542 52.2558 76.5 42.2535 76.5 38.25C76.5003 32.3688 74.4677 26.6682 70.7465 22.114C67.0252 17.5597 61.8442 14.4318 56.0809 13.26L51 12.2272ZM90.6525 76.5C92.0741 79.3496 93.7189 81.6063 95.625 82.875H6.375C8.28112 81.6063 9.92587 79.3496 11.3475 76.5C17.085 65.025 19.125 43.86 19.125 38.25C19.125 22.8225 30.09 9.94496 44.6569 7.00609C44.5679 6.11967 44.6657 5.22444 44.944 4.37814C45.2222 3.53184 45.6748 2.75326 46.2724 2.09261C46.8701 1.43196 47.5996 0.903903 48.4139 0.542504C49.2281 0.181105 50.1091 -0.00561523 51 -0.00561523C51.8909 -0.00561523 52.7719 0.181105 53.5861 0.542504C54.4004 0.903903 55.1299 1.43196 55.7276 2.09261C56.3252 2.75326 56.7778 3.53184 57.056 4.37814C57.3343 5.22444 57.4321 6.11967 57.3431 7.00609C64.5498 8.46948 71.0288 12.3797 75.682 18.0739C80.3352 23.7682 82.8765 30.8962 82.875 38.25C82.875 43.86 84.915 65.025 90.6525 76.5Z" fill="black"/>
</g>
<defs>
<clipPath id="clip0_36_840">
<rect width="102" height="102" fill="white"/>
</clipPath>
</defs>
</svg>
