<svg width="12" height="8" viewBox="0 0 12 8" fill="none" xmlns="http://www.w3.org/2000/svg">
<path d="M1.20448 1L10.7965 1L6.00048 6.481L1.20448 1ZM0.451477 1.659L5.24748 7.139C5.34134 7.24641 5.45709 7.3325 5.58697 7.39148C5.71684 7.45046 5.85784 7.48098 6.00048 7.48098C6.14312 7.48098 6.28411 7.45046 6.41399 7.39148C6.54386 7.3325 6.65962 7.24641 6.75348 7.139L11.5495 1.66C12.1155 1.011 11.6555 3.67706e-07 10.7965 3.67706e-07L1.20448 3.67706e-07C1.01223 -0.000164459 0.824016 0.0550878 0.662365 0.159141C0.500714 0.263194 0.372484 0.411637 0.293028 0.586693C0.213572 0.761749 0.186259 0.955998 0.214361 1.14618C0.242463 1.33636 0.324788 1.51441 0.451477 1.659Z" fill="black"/>
</svg>
