<svg width="38" height="38" viewBox="0 0 38 38" fill="none" xmlns="http://www.w3.org/2000/svg">
<g clip-path="url(#clip0_36_394)">
<path d="M21.3323 3.7192C21.0972 3.30966 20.7582 2.96941 20.3495 2.73279C19.9408 2.49618 19.477 2.37158 19.0048 2.37158C18.5326 2.37158 18.0687 2.49618 17.66 2.73279C17.2514 2.96941 16.9124 3.30966 16.6773 3.7192L0.391899 31.4283C-0.693476 33.2761 0.608024 35.6249 2.7194 35.6249H35.2878C37.3991 35.6249 38.703 33.2737 37.6153 31.4283L21.3323 3.7192ZM19 11.8749C20.2706 11.8749 21.2658 12.9722 21.1375 14.2381L20.3063 22.5672C20.2783 22.8944 20.1286 23.1992 19.8867 23.4213C19.6449 23.6434 19.3284 23.7667 19 23.7667C18.6716 23.7667 18.3552 23.6434 18.1133 23.4213C17.8714 23.1992 17.7217 22.8944 17.6938 22.5672L16.8625 14.2381C16.8327 13.9394 16.8657 13.6377 16.9595 13.3526C17.0533 13.0674 17.2058 12.8051 17.4072 12.5825C17.6086 12.3599 17.8544 12.1819 18.1287 12.06C18.403 11.9382 18.6998 11.8751 19 11.8749ZM19.0048 26.1249C19.6347 26.1249 20.2388 26.3752 20.6841 26.8206C21.1295 27.266 21.3798 27.8701 21.3798 28.4999C21.3798 29.1298 21.1295 29.7339 20.6841 30.1793C20.2388 30.6247 19.6347 30.8749 19.0048 30.8749C18.3749 30.8749 17.7708 30.6247 17.3254 30.1793C16.88 29.7339 16.6298 29.1298 16.6298 28.4999C16.6298 27.8701 16.88 27.266 17.3254 26.8206C17.7708 26.3752 18.3749 26.1249 19.0048 26.1249Z" fill="#8F2A2A"/>
</g>
<defs>
<clipPath id="clip0_36_394">
<rect width="38" height="38" fill="white"/>
</clipPath>
</defs>
</svg>
