<?xml version="1.0" encoding="UTF-8" standalone="no" ?>
<!DOCTYPE svg PUBLIC "-//W3C//DTD SVG 1.1//EN" "http://www.w3.org/Graphics/SVG/1.1/DTD/svg11.dtd">
<svg xmlns="http://www.w3.org/2000/svg" xmlns:xlink="http://www.w3.org/1999/xlink" version="1.1" width="1000" height="1000" viewBox="0 0 1000 1000" xml:space="preserve">
<desc>Created with Fabric.js 4.6.0</desc>
<defs>
</defs>
<g transform="matrix(1.86 0 0 1.86 478.88 120.29)" id="FvPZTijOElKsXRfdXlZkW"  >
<path style="stroke: none; stroke-width: 1; stroke-dasharray: none; stroke-linecap: butt; stroke-dashoffset: 0; stroke-linejoin: miter; stroke-miterlimit: 4; fill: rgb(211,38,19); fill-rule: nonzero; opacity: 0.27;" vector-effect="non-scaling-stroke"  transform=" translate(-493.4, -203.1)" d="M 502 203.1 C 502 198.29999999999998 498.1 194.5 493.4 194.5 C 488.69999999999993 194.5 484.79999999999995 198.4 484.79999999999995 203.1 C 484.79999999999995 207.9 488.69999999999993 211.7 493.4 211.7 C 498.1 211.7 502 207.9 502 203.1" stroke-linecap="round" />
</g>
<g transform="matrix(1.86 0 0 1.86 478.88 271.58)" id="1YIKJ_TyXJg2Af59m4kfz"  >
<path style="stroke: none; stroke-width: 1; stroke-dasharray: none; stroke-linecap: butt; stroke-dashoffset: 0; stroke-linejoin: miter; stroke-miterlimit: 4; fill: rgb(211,38,19); fill-rule: nonzero; opacity: 1;" vector-effect="non-scaling-stroke"  transform=" translate(-493.4, -284.4)" d="M 515.7 284.4 C 515.7 272.09999999999997 505.70000000000005 262.09999999999997 493.40000000000003 262.09999999999997 C 481.1 262.09999999999997 471.1 272.09999999999997 471.1 284.4 C 471.1 296.7 481.1 306.7 493.40000000000003 306.7 C 505.7 306.7 515.7 296.7 515.7 284.4" stroke-linecap="round" />
</g>
<g transform="matrix(1.86 0 0 1.86 279.77 383.8)" id="OwsjFeQwAndXdU7o94kn9"  >
<path style="stroke: none; stroke-width: 1; stroke-dasharray: none; stroke-linecap: butt; stroke-dashoffset: 0; stroke-linejoin: miter; stroke-miterlimit: 4; fill: rgb(34,63,175); fill-rule: nonzero; opacity: 1;" vector-effect="non-scaling-stroke"  transform=" translate(-386.4, -344.7)" d="M 408.7 344.7 C 408.7 332.4 398.7 322.4 386.4 322.4 C 374.09999999999997 322.4 364.09999999999997 332.4 364.09999999999997 344.7 C 364.09999999999997 357 374.09999999999997 367 386.4 367 C 398.8 367 408.7 357 408.7 344.7" stroke-linecap="round" />
</g>
<g transform="matrix(1.86 0 0 1.86 719.87 383.8)" id="QC4Q4DblDurcHIm4NkZmJ"  >
<path style="stroke: none; stroke-width: 1; stroke-dasharray: none; stroke-linecap: butt; stroke-dashoffset: 0; stroke-linejoin: miter; stroke-miterlimit: 4; fill: rgb(246,131,5); fill-rule: nonzero; opacity: 1;" vector-effect="non-scaling-stroke"  transform=" translate(-622.9, -344.7)" d="M 645.2 344.7 C 645.2 332.4 635.2 322.4 622.9000000000001 322.4 C 610.6000000000001 322.4 600.6000000000001 332.4 600.6000000000001 344.7 C 600.6000000000001 357 610.6000000000001 367 622.9000000000001 367 C 635.3 367 645.2 357 645.2 344.7" stroke-linecap="round" />
</g>
<g transform="matrix(1.86 0 0 1.86 719.87 614.35)" id="LIpP7zfL2KuAuYIfbEgD3"  >
<path style="stroke: none; stroke-width: 1; stroke-dasharray: none; stroke-linecap: butt; stroke-dashoffset: 0; stroke-linejoin: miter; stroke-miterlimit: 4; fill: rgb(250,194,38); fill-rule: nonzero; opacity: 1;" vector-effect="non-scaling-stroke"  transform=" translate(-622.9, -468.6)" d="M 622.9 490.9 C 635.1999999999999 490.9 645.1999999999999 480.9 645.1999999999999 468.59999999999997 C 645.1999999999999 456.29999999999995 635.1999999999999 446.29999999999995 622.9 446.29999999999995 C 610.6 446.29999999999995 600.6 456.29999999999995 600.6 468.59999999999997 C 600.7 481 610.6 490.9 622.9 490.9" stroke-linecap="round" />
</g>
<g transform="matrix(1.86 0 0 1.86 478.88 729.17)" id="qUWPM66dzhbZAx4izZrNo"  >
<path style="stroke: none; stroke-width: 1; stroke-dasharray: none; stroke-linecap: butt; stroke-dashoffset: 0; stroke-linejoin: miter; stroke-miterlimit: 4; fill: rgb(62,172,138); fill-rule: nonzero; opacity: 1;" vector-effect="non-scaling-stroke"  transform=" translate(-493.4, -530.3)" d="M 515.7 530.3 C 515.7 518 505.70000000000005 507.99999999999994 493.40000000000003 507.99999999999994 C 481.1 507.99999999999994 471.1 518 471.1 530.3 C 471.1 542.5999999999999 481.1 552.5999999999999 493.40000000000003 552.5999999999999 C 505.7 552.5 515.7 542.6 515.7 530.3" stroke-linecap="round" />
</g>
<g transform="matrix(1.86 0 0 1.86 279.95 614.35)" id="_jE4h6Rxt63R6mvgx6fFN"  >
<path style="stroke: none; stroke-width: 1; stroke-dasharray: none; stroke-linecap: butt; stroke-dashoffset: 0; stroke-linejoin: miter; stroke-miterlimit: 4; fill: rgb(57,161,221); fill-rule: nonzero; opacity: 1;" vector-effect="non-scaling-stroke"  transform=" translate(-386.5, -468.6)" d="M 386.5 490.9 C 398.8 490.9 408.8 480.9 408.8 468.59999999999997 C 408.8 456.29999999999995 398.8 446.29999999999995 386.5 446.29999999999995 C 374.2 446.29999999999995 364.2 456.29999999999995 364.2 468.59999999999997 C 364.2 481 374.2 490.9 386.5 490.9" stroke-linecap="round" />
</g>
<g transform="matrix(1.86 0 0 1.86 609.52 275.3)" id="-WoTPD5DyYQCuoPGxMr8s"  >
<path style="stroke: none; stroke-width: 1; stroke-dasharray: none; stroke-linecap: butt; stroke-dashoffset: 0; stroke-linejoin: miter; stroke-miterlimit: 4; fill: rgb(211,38,19); fill-rule: nonzero; opacity: 0.7;" vector-effect="non-scaling-stroke"  transform=" translate(-563.6, -286.4)" d="M 581.9 286.4 C 581.9 276.29999999999995 573.6999999999999 268.09999999999997 563.6 268.09999999999997 C 553.5 268.09999999999997 545.3000000000001 276.29999999999995 545.3000000000001 286.4 C 545.3000000000001 296.5 553.5000000000001 304.7 563.6 304.7 C 573.7 304.7 581.9 296.5 581.9 286.4" stroke-linecap="round" />
</g>
<g transform="matrix(1.86 0 0 1.86 563 189.34)" id="yTuLjYJNOqz6FnnbPl09M"  >
<path style="stroke: none; stroke-width: 1; stroke-dasharray: none; stroke-linecap: butt; stroke-dashoffset: 0; stroke-linejoin: miter; stroke-miterlimit: 4; fill: rgb(211,38,19); fill-rule: nonzero; opacity: 0.51;" vector-effect="non-scaling-stroke"  transform=" translate(-538.6, -240.2)" d="M 553.7 240.2 C 553.7 231.89999999999998 546.9000000000001 225.1 538.6 225.1 C 530.3000000000001 225.1 523.5 231.9 523.5 240.2 C 523.5 248.5 530.3 255.29999999999998 538.6 255.29999999999998 C 546.9 255.3 553.7 248.6 553.7 240.2" stroke-linecap="round" />
</g>
<g transform="matrix(1.86 0 0 1.86 669.07 171.09)" id="cJRHLjnXvtu5_XwUzK4-h"  >
<path style="stroke: none; stroke-width: 1; stroke-dasharray: none; stroke-linecap: butt; stroke-dashoffset: 0; stroke-linejoin: miter; stroke-miterlimit: 4; fill: rgb(246,131,5); fill-rule: nonzero; opacity: 0.35;" vector-effect="non-scaling-stroke"  transform=" translate(-595.6, -230.4)" d="M 604.2 230.4 C 604.2 225.6 600.3000000000001 221.8 595.6 221.8 C 590.9 221.8 587 225.70000000000002 587 230.4 C 587 235.20000000000002 590.9 239 595.6 239 C 600.3000000000001 239 604.2 235.1 604.2 230.4" stroke-linecap="round" />
</g>
<g transform="matrix(1.86 0 0 1.86 707.4 271.58)" id="yLQBPWubazWB4FcBIuWeo"  >
<path style="stroke: none; stroke-width: 1; stroke-dasharray: none; stroke-linecap: butt; stroke-dashoffset: 0; stroke-linejoin: miter; stroke-miterlimit: 4; fill: rgb(246,131,5); fill-rule: nonzero; opacity: 0.76;" vector-effect="non-scaling-stroke"  transform=" translate(-616.2, -284.4)" d="M 631.3 284.4 C 631.3 276.09999999999997 624.5 269.29999999999995 616.1999999999999 269.29999999999995 C 607.9 269.29999999999995 601.0999999999999 276.09999999999997 601.0999999999999 284.4 C 601.0999999999999 292.7 607.8999999999999 299.5 616.1999999999999 299.5 C 624.5 299.5 631.3 292.7 631.3 284.4" stroke-linecap="round" />
</g>
<g transform="matrix(1.86 0 0 1.86 807.51 309.36)" id="ZhROh3tpbT9hvqsylEauc"  >
<path style="stroke: none; stroke-width: 1; stroke-dasharray: none; stroke-linecap: butt; stroke-dashoffset: 0; stroke-linejoin: miter; stroke-miterlimit: 4; fill: rgb(246,131,5); fill-rule: nonzero; opacity: 0.35;" vector-effect="non-scaling-stroke"  transform=" translate(-670, -304.7)" d="M 678.6 304.7 C 678.6 299.9 674.7 296.09999999999997 670 296.09999999999997 C 665.2 296.09999999999997 661.4 299.99999999999994 661.4 304.7 C 661.4 309.5 665.3 313.3 670 313.3 C 674.8 313.3 678.6 309.5 678.6 304.7" stroke-linecap="round" />
</g>
<g transform="matrix(1.86 0 0 1.86 832.26 415.99)" id="8JZRYS_2WRr_SbOEgaRUM"  >
<path style="stroke: none; stroke-width: 1; stroke-dasharray: none; stroke-linecap: butt; stroke-dashoffset: 0; stroke-linejoin: miter; stroke-miterlimit: 4; fill: rgb(246,131,5); fill-rule: nonzero; opacity: 0.76;" vector-effect="non-scaling-stroke"  transform=" translate(-683.3, -362)" d="M 698.4 362 C 698.4 353.7 691.6 346.9 683.3 346.9 C 675 346.9 668.1999999999999 353.7 668.1999999999999 362 C 668.1999999999999 370.3 674.9999999999999 377.1 683.3 377.1 C 691.7 377.1 698.4 370.4 698.4 362" stroke-linecap="round" />
</g>
<g transform="matrix(1.86 0 0 1.86 782.21 499.16)" id="q5SZ3CX3IxnM0_PA15Z-5"  >
<path style="stroke: none; stroke-width: 1; stroke-dasharray: none; stroke-linecap: butt; stroke-dashoffset: 0; stroke-linejoin: miter; stroke-miterlimit: 4; fill: rgb(246,131,5); fill-rule: nonzero; opacity: 0.76;" vector-effect="non-scaling-stroke"  transform=" translate(-656.4, -406.7)" d="M 656.4 388.4 C 646.3 388.4 638.1 396.59999999999997 638.1 406.7 C 638.1 416.8 646.3000000000001 425 656.4 425 C 666.5 425 674.6999999999999 416.8 674.6999999999999 406.7 C 674.7 396.6 666.5 388.4 656.4 388.4" stroke-linecap="round" />
</g>
<g transform="matrix(1.86 0 0 1.86 900.18 501.95)" id="fjwvMW814jemcWq7ro343"  >
<path style="stroke: none; stroke-width: 1; stroke-dasharray: none; stroke-linecap: butt; stroke-dashoffset: 0; stroke-linejoin: miter; stroke-miterlimit: 4; fill: rgb(246,131,5); fill-rule: nonzero; opacity: 0.35;" vector-effect="non-scaling-stroke"  transform=" translate(-719.8, -408.2)" d="M 728.4 408.2 C 728.4 403.4 724.5 399.59999999999997 719.8 399.59999999999997 C 715 399.59999999999997 711.1999999999999 403.49999999999994 711.1999999999999 408.2 C 711.1999999999999 413 715.0999999999999 416.8 719.8 416.8 C 724.6 416.8 728.4 413 728.4 408.2" stroke-linecap="round" />
</g>
<g transform="matrix(1.86 0 0 1.86 832.26 582.16)" id="Yl3zV4fd-3SalXmgwBKqX"  >
<path style="stroke: none; stroke-width: 1; stroke-dasharray: none; stroke-linecap: butt; stroke-dashoffset: 0; stroke-linejoin: miter; stroke-miterlimit: 4; fill: rgb(250,194,38); fill-rule: nonzero; opacity: 0.64;" vector-effect="non-scaling-stroke"  transform=" translate(-683.3, -451.3)" d="M 698.4 451.3 C 698.4 443 691.6 436.2 683.3 436.2 C 675 436.2 668.1999999999999 443 668.1999999999999 451.3 C 668.1999999999999 459.6 674.9999999999999 466.40000000000003 683.3 466.40000000000003 C 691.7 466.4 698.4 459.7 698.4 451.3" stroke-linecap="round" />
</g>
<g transform="matrix(1.86 0 0 1.86 808.26 691.77)" id="0GLlBDk65CL88v5oIuPG6"  >
<path style="stroke: none; stroke-width: 1; stroke-dasharray: none; stroke-linecap: butt; stroke-dashoffset: 0; stroke-linejoin: miter; stroke-miterlimit: 4; fill: rgb(250,194,38); fill-rule: nonzero; opacity: 0.27;" vector-effect="non-scaling-stroke"  transform=" translate(-670.4, -510.2)" d="M 661.8 510.2 C 661.8 515 665.6999999999999 518.8 670.4 518.8 C 675.1 518.8 679 514.9 679 510.19999999999993 C 679 505.4999999999999 675.1 501.5999999999999 670.4 501.5999999999999 C 665.6999999999999 501.5999999999999 661.8 505.4 661.8 510.2" stroke-linecap="round" />
</g>
<g transform="matrix(1.86 0 0 1.86 707.4 729.17)" id="yrBJCcBAWUsTpdWRBy0rK"  >
<path style="stroke: none; stroke-width: 1; stroke-dasharray: none; stroke-linecap: butt; stroke-dashoffset: 0; stroke-linejoin: miter; stroke-miterlimit: 4; fill: rgb(250,194,38); fill-rule: nonzero; opacity: 0.64;" vector-effect="non-scaling-stroke"  transform=" translate(-616.2, -530.3)" d="M 601.1 530.3 C 601.1 538.5999999999999 607.9 545.4 616.2 545.4 C 624.5 545.4 631.3000000000001 538.6 631.3000000000001 530.3 C 631.3000000000001 522 624.5000000000001 515.1999999999999 616.2 515.1999999999999 C 607.9 515.2 601.1 521.9 601.1 530.3" stroke-linecap="round" />
</g>
<g transform="matrix(1.86 0 0 1.86 609.33 725.82)" id="wloBqt6ybi54wd3yDTnOe"  >
<path style="stroke: none; stroke-width: 1; stroke-dasharray: none; stroke-linecap: butt; stroke-dashoffset: 0; stroke-linejoin: miter; stroke-miterlimit: 4; fill: rgb(250,194,38); fill-rule: nonzero; opacity: 0.64;" vector-effect="non-scaling-stroke"  transform=" translate(-563.5, -528.5)" d="M 563.5 546.8 C 573.6 546.8 581.8 538.5999999999999 581.8 528.5 C 581.8 518.4 573.5999999999999 510.2 563.5 510.2 C 553.4 510.2 545.2 518.4 545.2 528.5 C 545.1 538.6 553.3 546.8 563.5 546.8" stroke-linecap="round" />
</g>
<g transform="matrix(1.86 0 0 1.86 669.07 829.84)" id="vLZ0xK72M4kfTXYAkA1-Y"  >
<path style="stroke: none; stroke-width: 1; stroke-dasharray: none; stroke-linecap: butt; stroke-dashoffset: 0; stroke-linejoin: miter; stroke-miterlimit: 4; fill: rgb(62,172,138); fill-rule: nonzero; opacity: 0.33;" vector-effect="non-scaling-stroke"  transform=" translate(-595.6, -584.4)" d="M 587 584.4 C 587 589.1999999999999 590.9 593 595.6 593 C 600.3000000000001 593 604.2 589.1 604.2 584.4 C 604.2 579.6999999999999 600.3000000000001 575.8 595.6 575.8 C 590.9 575.8 587 579.7 587 584.4" stroke-linecap="round" />
</g>
<g transform="matrix(1.86 0 0 1.86 563.73 811.23)" id="sADsAAgM3WRDT0YERmHGT"  >
<path style="stroke: none; stroke-width: 1; stroke-dasharray: none; stroke-linecap: butt; stroke-dashoffset: 0; stroke-linejoin: miter; stroke-miterlimit: 4; fill: rgb(62,172,138); fill-rule: nonzero; opacity: 0.68;" vector-effect="non-scaling-stroke"  transform=" translate(-539, -574.4)" d="M 523.9 574.4 C 523.9 582.6999999999999 530.6999999999999 589.5 539 589.5 C 547.3 589.5 554.1 582.7 554.1 574.4 C 554.1 566.0999999999999 547.3000000000001 559.3 539 559.3 C 530.7 559.3 523.9 566.1 523.9 574.4" stroke-linecap="round" />
</g>
<g transform="matrix(1.86 0 0 1.86 478.88 879.71)" id="l5jUK7UoyqHEtwB2xTjRc"  >
<path style="stroke: none; stroke-width: 1; stroke-dasharray: none; stroke-linecap: butt; stroke-dashoffset: 0; stroke-linejoin: miter; stroke-miterlimit: 4; fill: rgb(62,172,138); fill-rule: nonzero; opacity: 0.33;" vector-effect="non-scaling-stroke"  transform=" translate(-493.4, -611.2)" d="M 484.8 611.2 C 484.8 616 488.7 619.8000000000001 493.40000000000003 619.8000000000001 C 498.1000000000001 619.8000000000001 502.00000000000006 615.9000000000001 502.00000000000006 611.2 C 502.00000000000006 606.5 498.1000000000001 602.6 493.40000000000003 602.6 C 488.7 602.6 484.8 606.4 484.8 611.2" stroke-linecap="round" />
</g>
<g transform="matrix(1.86 0 0 1.86 396.08 811.23)" id="u2TgufwcRRdfep14yoEC7"  >
<path style="stroke: none; stroke-width: 1; stroke-dasharray: none; stroke-linecap: butt; stroke-dashoffset: 0; stroke-linejoin: miter; stroke-miterlimit: 4; fill: rgb(62,172,138); fill-rule: nonzero; opacity: 0.68;" vector-effect="non-scaling-stroke"  transform=" translate(-448.9, -574.4)" d="M 433.8 574.4 C 433.8 582.6999999999999 440.6 589.5 448.90000000000003 589.5 C 457.20000000000005 589.5 464.00000000000006 582.7 464.00000000000006 574.4 C 464.00000000000006 566.0999999999999 457.20000000000005 559.3 448.90000000000003 559.3 C 440.6 559.3 433.8 566.1 433.8 574.4" stroke-linecap="round" />
</g>
<g transform="matrix(1.86 0 0 1.86 289.26 829.84)" id="924udEi3WFRzgzDNwEi31"  >
<path style="stroke: none; stroke-width: 1; stroke-dasharray: none; stroke-linecap: butt; stroke-dashoffset: 0; stroke-linejoin: miter; stroke-miterlimit: 4; fill: rgb(62,172,138); fill-rule: nonzero; opacity: 0.33;" vector-effect="non-scaling-stroke"  transform=" translate(-391.5, -584.4)" d="M 382.9 584.4 C 382.9 589.1999999999999 386.79999999999995 593 391.5 593 C 396.20000000000005 593 400.1 589.1 400.1 584.4 C 400.1 579.6999999999999 396.20000000000005 575.8 391.5 575.8 C 386.79999999999995 575.8 382.9 579.7 382.9 584.4" stroke-linecap="round" />
</g>
<g transform="matrix(1.86 0 0 1.86 348.43 725.82)" id="xbjQhzT1UgHo4Tzftq-21"  >
<path style="stroke: none; stroke-width: 1; stroke-dasharray: none; stroke-linecap: butt; stroke-dashoffset: 0; stroke-linejoin: miter; stroke-miterlimit: 4; fill: rgb(57,161,221); fill-rule: nonzero; opacity: 0.68;" vector-effect="non-scaling-stroke"  transform=" translate(-423.3, -528.5)" d="M 405 528.5 C 405 538.6 413.2 546.8 423.3 546.8 C 433.40000000000003 546.8 441.6 538.5999999999999 441.6 528.5 C 441.6 518.4000000000001 433.40000000000003 510.2 423.3 510.2 C 413.2 510.2 405 518.4 405 528.5" stroke-linecap="round" />
</g>
<g transform="matrix(1.86 0 0 1.86 251.86 729.17)" id="NeV09yrS9WlTYU4zu11Nq"  >
<path style="stroke: none; stroke-width: 1; stroke-dasharray: none; stroke-linecap: butt; stroke-dashoffset: 0; stroke-linejoin: miter; stroke-miterlimit: 4; fill: rgb(57,161,221); fill-rule: nonzero; opacity: 0.35;" vector-effect="non-scaling-stroke"  transform=" translate(-371.4, -530.3)" d="M 356.3 530.3 C 356.3 538.5999999999999 363.1 545.4 371.40000000000003 545.4 C 379.70000000000005 545.4 386.50000000000006 538.6 386.50000000000006 530.3 C 386.50000000000006 522 379.70000000000005 515.1999999999999 371.40000000000003 515.1999999999999 C 363 515.2 356.3 521.9 356.3 530.3" stroke-linecap="round" />
</g>
<g transform="matrix(1.86 0 0 1.86 151.55 691.77)" id="DJmUEXIMMsTkXiSavEmNZ"  >
<path style="stroke: none; stroke-width: 1; stroke-dasharray: none; stroke-linecap: butt; stroke-dashoffset: 0; stroke-linejoin: miter; stroke-miterlimit: 4; fill: rgb(57,161,221); fill-rule: nonzero; opacity: 0.23;" vector-effect="non-scaling-stroke"  transform=" translate(-317.5, -510.2)" d="M 308.9 510.2 C 308.9 515 312.79999999999995 518.8 317.5 518.8 C 322.3 518.8 326.1 514.9 326.1 510.19999999999993 C 326.1 505.4999999999999 322.20000000000005 501.5999999999999 317.5 501.5999999999999 C 312.7 501.6 308.9 505.4 308.9 510.2" stroke-linecap="round" />
</g>
<g transform="matrix(1.86 0 0 1.86 167.56 582.16)" id="bnPQlXV1AZ58Ya0ulutO0"  >
<path style="stroke: none; stroke-width: 1; stroke-dasharray: none; stroke-linecap: butt; stroke-dashoffset: 0; stroke-linejoin: miter; stroke-miterlimit: 4; fill: rgb(57,161,221); fill-rule: nonzero; opacity: 0.35;" vector-effect="non-scaling-stroke"  transform=" translate(-326.1, -451.3)" d="M 326.1 466.4 C 334.40000000000003 466.4 341.20000000000005 459.59999999999997 341.20000000000005 451.29999999999995 C 341.20000000000005 442.99999999999994 334.40000000000003 436.19999999999993 326.1 436.19999999999993 C 317.8 436.19999999999993 311 443 311 451.3 C 311 459.6 317.8 466.4 326.1 466.4" stroke-linecap="round" />
</g>
<g transform="matrix(1.86 0 0 1.86 217.61 499.16)" id="NaHKe7S2ucQXGWxa3pOxx"  >
<path style="stroke: none; stroke-width: 1; stroke-dasharray: none; stroke-linecap: butt; stroke-dashoffset: 0; stroke-linejoin: miter; stroke-miterlimit: 4; fill: rgb(57,161,221); fill-rule: nonzero; opacity: 0.68;" vector-effect="non-scaling-stroke"  transform=" translate(-353, -406.7)" d="M 353 388.4 C 342.9 388.4 334.7 396.59999999999997 334.7 406.7 C 334.7 416.8 342.9 425 353 425 C 363.1 425 371.3 416.8 371.3 406.7 C 371.4 396.6 363.2 388.4 353 388.4" stroke-linecap="round" />
</g>
<g transform="matrix(1.86 0 0 1.86 99.82 501.95)" id="xyli_eoCsWcioKgS2AS_5"  >
<path style="stroke: none; stroke-width: 1; stroke-dasharray: none; stroke-linecap: butt; stroke-dashoffset: 0; stroke-linejoin: miter; stroke-miterlimit: 4; fill: rgb(34,63,175); fill-rule: nonzero; opacity: 0.26;" vector-effect="non-scaling-stroke"  transform=" translate(-289.7, -408.2)" d="M 298.3 408.2 C 298.3 403.4 294.40000000000003 399.59999999999997 289.7 399.59999999999997 C 284.9 399.59999999999997 281.09999999999997 403.49999999999994 281.09999999999997 408.2 C 281.09999999999997 413 284.99999999999994 416.8 289.7 416.8 C 294.4 416.8 298.3 413 298.3 408.2" stroke-linecap="round" />
</g>
<g transform="matrix(1.86 0 0 1.86 167.56 415.99)" id="2asO3dhFNOppq4WELGcqH"  >
<path style="stroke: none; stroke-width: 1; stroke-dasharray: none; stroke-linecap: butt; stroke-dashoffset: 0; stroke-linejoin: miter; stroke-miterlimit: 4; fill: rgb(34,63,175); fill-rule: nonzero; opacity: 0.62;" vector-effect="non-scaling-stroke"  transform=" translate(-326.1, -362)" d="M 341.2 362 C 341.2 353.7 334.4 346.9 326.09999999999997 346.9 C 317.79999999999995 346.9 310.99999999999994 353.7 310.99999999999994 362 C 310.99999999999994 370.3 317.79999999999995 377.1 326.09999999999997 377.1 C 334.4 377.1 341.2 370.4 341.2 362" stroke-linecap="round" />
</g>
<g transform="matrix(1.86 0 0 1.86 151.55 309.36)" id="GeTsDVlLTGBgrWqRLuZMT"  >
<path style="stroke: none; stroke-width: 1; stroke-dasharray: none; stroke-linecap: butt; stroke-dashoffset: 0; stroke-linejoin: miter; stroke-miterlimit: 4; fill: rgb(34,63,175); fill-rule: nonzero; opacity: 0.26;" vector-effect="non-scaling-stroke"  transform=" translate(-317.5, -304.7)" d="M 326.1 304.7 C 326.1 299.9 322.20000000000005 296.09999999999997 317.5 296.09999999999997 C 312.79999999999995 296.09999999999997 308.9 299.99999999999994 308.9 304.7 C 308.9 309.5 312.79999999999995 313.3 317.5 313.3 C 322.20000000000005 313.3 326.1 309.5 326.1 304.7" stroke-linecap="round" />
</g>
<g transform="matrix(1.86 0 0 1.86 251.86 271.58)" id="RHo0dJnIgAXW7zqX7rxXo"  >
<path style="stroke: none; stroke-width: 1; stroke-dasharray: none; stroke-linecap: butt; stroke-dashoffset: 0; stroke-linejoin: miter; stroke-miterlimit: 4; fill: rgb(34,63,175); fill-rule: nonzero; opacity: 0.62;" vector-effect="non-scaling-stroke"  transform=" translate(-371.4, -284.4)" d="M 386.5 284.4 C 386.5 276.09999999999997 379.7 269.29999999999995 371.4 269.29999999999995 C 363.09999999999997 269.29999999999995 356.29999999999995 276.09999999999997 356.29999999999995 284.4 C 356.29999999999995 292.7 363.09999999999997 299.5 371.4 299.5 C 379.7 299.5 386.5 292.7 386.5 284.4" stroke-linecap="round" />
</g>
<g transform="matrix(1.86 0 0 1.86 349.55 275.12)" id="9gEdlBrgvEm7hQM5jm62W"  >
<path style="stroke: none; stroke-width: 1; stroke-dasharray: none; stroke-linecap: butt; stroke-dashoffset: 0; stroke-linejoin: miter; stroke-miterlimit: 4; fill: rgb(211,38,19); fill-rule: nonzero; opacity: 0.7;" vector-effect="non-scaling-stroke"  transform=" translate(-423.9, -286.3)" d="M 423.9 268 C 413.79999999999995 268 405.59999999999997 276.2 405.59999999999997 286.3 C 405.59999999999997 296.40000000000003 413.79999999999995 304.6 423.9 304.6 C 434 304.6 442.2 296.40000000000003 442.2 286.3 C 442.2 276.2 434 268 423.9 268" stroke-linecap="round" />
</g>
<g transform="matrix(1.86 0 0 1.86 288.14 171.09)" id="CY0darmVbrdIk8OsfRByq"  >
<path style="stroke: none; stroke-width: 1; stroke-dasharray: none; stroke-linecap: butt; stroke-dashoffset: 0; stroke-linejoin: miter; stroke-miterlimit: 4; fill: rgb(34,63,175); fill-rule: nonzero; opacity: 0.26;" vector-effect="non-scaling-stroke"  transform=" translate(-390.9, -230.4)" d="M 399.5 230.4 C 399.5 225.6 395.6 221.8 390.9 221.8 C 386.19999999999993 221.8 382.29999999999995 225.70000000000002 382.29999999999995 230.4 C 382.29999999999995 235.20000000000002 386.19999999999993 239 390.9 239 C 395.6 239 399.5 235.1 399.5 230.4" stroke-linecap="round" />
</g>
<g transform="matrix(1.86 0 0 1.86 396.26 189.34)" id="vvChWm6q2opgl9YuH_GRJ"  >
<path style="stroke: none; stroke-width: 1; stroke-dasharray: none; stroke-linecap: butt; stroke-dashoffset: 0; stroke-linejoin: miter; stroke-miterlimit: 4; fill: rgb(211,38,19); fill-rule: nonzero; opacity: 0.51;" vector-effect="non-scaling-stroke"  transform=" translate(-449, -240.2)" d="M 464.1 240.2 C 464.1 231.89999999999998 457.3 225.1 449 225.1 C 440.7 225.1 433.9 231.9 433.9 240.2 C 433.9 248.5 440.7 255.29999999999998 449 255.29999999999998 C 457.4 255.3 464.1 248.6 464.1 240.2" stroke-linecap="round" />
</g>
<g transform="matrix(1.86 0 0 1.86 478.88 501.95)" id="SAsD1i6J2cX-saMyRcTla"  >
<path style="stroke: none; stroke-width: 1; stroke-dasharray: none; stroke-linecap: butt; stroke-dashoffset: 0; stroke-linejoin: miter; stroke-miterlimit: 4; fill: rgb(255,255,255); fill-rule: nonzero; opacity: 1;" vector-effect="non-scaling-stroke"  transform=" translate(0, 0)" d="M 57.25 -47.3 C 44.85 -59.9 27.45 -67.69999999999999 8.350000000000001 -67.69999999999999 C -28.15 -67.69999999999999 -60.15 -39.39999999999999 -60.15 -1.4999999999999858 C -60.15 37.30000000000001 -30.349999999999998 67.70000000000002 8.149999999999999 67.70000000000002 C 28.549999999999997 67.70000000000002 47.35 58.90000000000002 60.15 44.40000000000002 L 60.15 -5.59999999999998 L 17.35 -5.59999999999998 L 25.35 13.000000000000021 L 41.75 13.000000000000021 L 41.75 36.50000000000002 C 32.85 44.30000000000002 21.15 48.90000000000002 8.350000000000001 48.90000000000002 C -18.25 48.90000000000002 -41.949999999999996 28.50000000000002 -41.949999999999996 0.8000000000000185 C -41.949999999999996 -28.19999999999998 -20.149999999999995 -48.69999999999998 8.150000000000006 -48.69999999999998 C 22.650000000000006 -48.69999999999998 36.050000000000004 -42.79999999999998 45.25000000000001 -33.19999999999998 z" stroke-linecap="round" />
</g>
</svg>