<svg width="248" height="64" viewBox="0 0 248 64" fill="none" xmlns="http://www.w3.org/2000/svg">
<path d="M26.637 9.032C26.125 8.60533 25.549 8.22133 24.909 7.88C24.269 7.53867 23.597 7.25067 22.893 7.016C22.189 6.78133 21.4743 6.6 20.749 6.472C20.045 6.344 19.3623 6.28 18.701 6.28C17.805 6.28 16.781 6.41867 15.629 6.696C14.477 6.97333 13.389 7.38933 12.365 7.944C11.3623 8.49867 10.509 9.192 9.805 10.024C9.12233 10.8347 8.781 11.7947 8.781 12.904C8.781 14.0347 9.12233 15.0053 9.805 15.816C10.509 16.6053 11.3623 17.256 12.365 17.768C13.389 18.2587 14.477 18.6213 15.629 18.856C16.781 19.0907 17.805 19.208 18.701 19.208C19.4477 19.208 20.2477 19.1333 21.101 18.984C21.9757 18.8347 22.8183 18.6107 23.629 18.312C24.461 17.992 25.2397 17.608 25.965 17.16C26.6903 16.6907 27.277 16.1467 27.725 15.528L36.621 16.232C36.2157 17.2987 35.629 18.2587 34.861 19.112C34.1143 19.944 33.2397 20.6907 32.237 21.352C31.2557 21.992 30.189 22.5467 29.037 23.016C27.9063 23.4853 26.7437 23.8693 25.549 24.168C24.3543 24.4453 23.1703 24.6587 21.997 24.808C20.8237 24.936 19.725 25 18.701 25C17.5277 25 16.2477 24.904 14.861 24.712C13.4957 24.52 12.1197 24.2213 10.733 23.816C9.36767 23.4107 8.045 22.888 6.765 22.248C5.485 21.608 4.35433 20.84 3.373 19.944C2.39167 19.048 1.60233 18.0133 1.005 16.84C0.429 15.6667 0.141 14.3547 0.141 12.904C0.141 11.4533 0.407667 10.1413 0.941 8.968C1.49567 7.79467 2.23167 6.74933 3.149 5.832C4.08767 4.91467 5.15433 4.12533 6.349 3.464C7.565 2.78133 8.83433 2.22667 10.157 1.8C11.4797 1.37333 12.813 1.05333 14.157 0.839998C15.5223 0.626665 16.8023 0.519999 17.997 0.519999C19.0423 0.519999 20.1623 0.583998 21.357 0.711998C22.5517 0.818666 23.757 1.01067 24.973 1.288C26.189 1.544 27.3837 1.896 28.557 2.344C29.7517 2.77067 30.861 3.304 31.885 3.944C32.909 4.56267 33.8157 5.29867 34.605 6.152C35.3943 6.984 36.013 7.944 36.461 9.032H26.637ZM54.2098 9.032C54.9778 9.032 55.8524 9.096 56.8338 9.224C57.8151 9.33067 58.8178 9.512 59.8418 9.768C60.8871 10.0027 61.9004 10.3333 62.8818 10.76C63.8844 11.1653 64.7698 11.6667 65.5378 12.264C66.3271 12.84 66.9564 13.5227 67.4258 14.312C67.8951 15.08 68.1298 15.9653 68.1298 16.968C68.1298 17.9707 67.8951 18.8667 67.4258 19.656C66.9564 20.424 66.3271 21.1067 65.5378 21.704C64.7698 22.28 63.8844 22.7813 62.8818 23.208C61.9004 23.6133 60.8871 23.944 59.8418 24.2C58.8178 24.4347 57.8151 24.616 56.8338 24.744C55.8524 24.8507 54.9778 24.904 54.2098 24.904C53.4418 24.904 52.5671 24.8507 51.5858 24.744C50.6044 24.616 49.5911 24.424 48.5458 24.168C47.5218 23.912 46.5084 23.5813 45.5058 23.176C44.5244 22.7707 43.6498 22.28 42.8818 21.704C42.1138 21.1067 41.4844 20.424 40.9938 19.656C40.5244 18.8667 40.2898 17.9707 40.2898 16.968C40.2898 15.9653 40.5244 15.08 40.9938 14.312C41.4631 13.5227 42.0818 12.84 42.8498 12.264C43.6391 11.6667 44.5244 11.1653 45.5058 10.76C46.5084 10.3333 47.5218 10.0027 48.5458 9.768C49.5911 9.512 50.6044 9.33067 51.5858 9.224C52.5671 9.096 53.4418 9.032 54.2098 9.032ZM60.5138 16.968C60.5138 16.392 60.2684 15.912 59.7778 15.528C59.2871 15.1227 58.7004 14.8027 58.0178 14.568C57.3351 14.312 56.6311 14.1413 55.9058 14.056C55.2018 13.9493 54.6364 13.896 54.2098 13.896C53.7831 13.896 53.2178 13.9493 52.5138 14.056C51.8098 14.1627 51.1164 14.344 50.4338 14.6C49.7511 14.8347 49.1538 15.144 48.6418 15.528C48.1511 15.912 47.9058 16.392 47.9058 16.968C47.9058 17.544 48.1511 18.024 48.6418 18.408C49.1538 18.792 49.7511 19.112 50.4338 19.368C51.1164 19.6027 51.8098 19.7733 52.5138 19.88C53.2178 19.9867 53.7831 20.04 54.2098 20.04C54.6364 20.04 55.2018 19.9867 55.9058 19.88C56.6098 19.7733 57.3031 19.6027 57.9858 19.368C58.6684 19.112 59.2551 18.792 59.7458 18.408C60.2578 18.024 60.5138 17.544 60.5138 16.968ZM78.3575 10.408C78.6988 10.0667 79.1148 9.78933 79.6055 9.576C80.1175 9.36267 80.6402 9.192 81.1735 9.064C81.7282 8.936 82.2828 8.85067 82.8375 8.808C83.3922 8.76533 83.8935 8.744 84.3415 8.744C85.1735 8.744 86.1442 8.84 87.2535 9.032C88.3842 9.224 89.4615 9.55467 90.4855 10.024C91.5095 10.472 92.3735 11.0693 93.0775 11.816C93.7815 12.5413 94.1335 13.448 94.1335 14.536V25H87.0295V14.536C87.0295 14.1093 86.8802 13.768 86.5815 13.512C86.3042 13.2347 85.9628 13.0213 85.5575 12.872C85.1522 12.7227 84.7255 12.6267 84.2775 12.584C83.8508 12.52 83.4775 12.488 83.1575 12.488C82.8375 12.488 82.4002 12.52 81.8455 12.584C81.3122 12.648 80.7788 12.776 80.2455 12.968C79.7335 13.1387 79.2855 13.3733 78.9015 13.672C78.5388 13.9707 78.3575 14.344 78.3575 14.792V25H70.8695V9.032H78.3575V10.408ZM104.483 10.408C104.824 10.0667 105.24 9.78933 105.731 9.576C106.243 9.36267 106.765 9.192 107.299 9.064C107.853 8.936 108.408 8.85067 108.963 8.808C109.517 8.76533 110.019 8.744 110.467 8.744C111.299 8.744 112.269 8.84 113.378 9.032C114.509 9.224 115.587 9.55467 116.611 10.024C117.635 10.472 118.499 11.0693 119.203 11.816C119.907 12.5413 120.259 13.448 120.259 14.536V25H113.155V14.536C113.155 14.1093 113.005 13.768 112.707 13.512C112.429 13.2347 112.088 13.0213 111.683 12.872C111.277 12.7227 110.851 12.6267 110.403 12.584C109.976 12.52 109.603 12.488 109.283 12.488C108.963 12.488 108.525 12.52 107.971 12.584C107.437 12.648 106.904 12.776 106.371 12.968C105.859 13.1387 105.411 13.3733 105.027 13.672C104.664 13.9707 104.483 14.344 104.483 14.792V25H96.9945V9.032H104.483V10.408ZM134.967 20.136C135.799 20.136 136.652 20.0293 137.527 19.816C138.423 19.5813 139.202 19.1973 139.863 18.664H147.767L146.935 19.976C146.338 20.8933 145.57 21.672 144.631 22.312C143.714 22.952 142.711 23.4747 141.623 23.88C140.535 24.2853 139.415 24.5733 138.263 24.744C137.111 24.9147 136.012 25 134.967 25C134.199 25 133.335 24.936 132.375 24.808C131.436 24.68 130.487 24.488 129.527 24.232C128.588 23.9547 127.671 23.6027 126.775 23.176C125.879 22.728 125.079 22.2053 124.375 21.608C123.671 21.0107 123.106 20.328 122.679 19.56C122.274 18.7707 122.071 17.8853 122.071 16.904C122.071 15.5387 122.434 14.344 123.159 13.32C123.884 12.296 124.834 11.4427 126.007 10.76C127.202 10.0773 128.556 9.56533 130.071 9.224C131.607 8.88267 133.164 8.712 134.743 8.712C136.343 8.712 137.922 8.89333 139.479 9.256C141.036 9.59733 142.423 10.12 143.639 10.824C144.876 11.528 145.858 12.4027 146.583 13.448C147.33 14.4933 147.692 15.72 147.671 17.128H129.111C129.218 17.6827 129.495 18.152 129.943 18.536C130.391 18.92 130.903 19.2293 131.479 19.464C132.076 19.6987 132.684 19.8693 133.303 19.976C133.943 20.0827 134.498 20.136 134.967 20.136ZM139.735 15.016C139.586 14.7387 139.33 14.4933 138.967 14.28C138.626 14.0667 138.21 13.896 137.719 13.768C137.25 13.6187 136.727 13.512 136.151 13.448C135.575 13.3627 134.999 13.32 134.423 13.32C133.292 13.32 132.226 13.4587 131.223 13.736C130.242 13.992 129.538 14.4187 129.111 15.016H139.735ZM169.838 17.096L181.229 24.936H170.766L164.622 20.712L158.446 24.936H147.918L159.342 17.096L147.822 9.032H158.35L164.622 13.512L170.862 9.032H181.294L169.838 17.096ZM184.726 4.52C184.726 4.008 184.822 3.528 185.014 3.08C185.206 2.61067 185.473 2.20533 185.814 1.864C186.155 1.52267 186.55 1.256 186.998 1.064C187.467 0.871999 187.958 0.775999 188.47 0.775999C188.982 0.775999 189.462 0.871999 189.91 1.064C190.379 1.256 190.785 1.52267 191.126 1.864C191.467 2.20533 191.734 2.61067 191.926 3.08C192.118 3.528 192.214 4.008 192.214 4.52C192.214 5.032 192.118 5.52267 191.926 5.992C191.734 6.44 191.467 6.83467 191.126 7.176C190.785 7.51733 190.379 7.784 189.91 7.976C189.462 8.168 188.982 8.264 188.47 8.264C187.958 8.264 187.467 8.168 186.998 7.976C186.55 7.784 186.155 7.51733 185.814 7.176C185.473 6.83467 185.206 6.44 185.014 5.992C184.822 5.52267 184.726 5.032 184.726 4.52ZM184.726 9.032H192.214V25H184.726V9.032ZM207.554 9.032C208.322 9.032 209.196 9.096 210.178 9.224C211.159 9.33067 212.162 9.512 213.186 9.768C214.231 10.0027 215.244 10.3333 216.226 10.76C217.228 11.1653 218.114 11.6667 218.882 12.264C219.671 12.84 220.3 13.5227 220.77 14.312C221.239 15.08 221.474 15.9653 221.474 16.968C221.474 17.9707 221.239 18.8667 220.77 19.656C220.3 20.424 219.671 21.1067 218.882 21.704C218.114 22.28 217.228 22.7813 216.226 23.208C215.244 23.6133 214.231 23.944 213.186 24.2C212.162 24.4347 211.159 24.616 210.178 24.744C209.196 24.8507 208.322 24.904 207.554 24.904C206.786 24.904 205.911 24.8507 204.93 24.744C203.948 24.616 202.935 24.424 201.89 24.168C200.866 23.912 199.852 23.5813 198.85 23.176C197.868 22.7707 196.994 22.28 196.226 21.704C195.458 21.1067 194.828 20.424 194.338 19.656C193.868 18.8667 193.634 17.9707 193.634 16.968C193.634 15.9653 193.868 15.08 194.338 14.312C194.807 13.5227 195.426 12.84 196.194 12.264C196.983 11.6667 197.868 11.1653 198.85 10.76C199.852 10.3333 200.866 10.0027 201.89 9.768C202.935 9.512 203.948 9.33067 204.93 9.224C205.911 9.096 206.786 9.032 207.554 9.032ZM213.858 16.968C213.858 16.392 213.612 15.912 213.122 15.528C212.631 15.1227 212.044 14.8027 211.362 14.568C210.679 14.312 209.975 14.1413 209.25 14.056C208.546 13.9493 207.98 13.896 207.554 13.896C207.127 13.896 206.562 13.9493 205.858 14.056C205.154 14.1627 204.46 14.344 203.778 14.6C203.095 14.8347 202.498 15.144 201.986 15.528C201.495 15.912 201.25 16.392 201.25 16.968C201.25 17.544 201.495 18.024 201.986 18.408C202.498 18.792 203.095 19.112 203.778 19.368C204.46 19.6027 205.154 19.7733 205.858 19.88C206.562 19.9867 207.127 20.04 207.554 20.04C207.98 20.04 208.546 19.9867 209.25 19.88C209.954 19.7733 210.647 19.6027 211.33 19.368C212.012 19.112 212.599 18.792 213.09 18.408C213.602 18.024 213.858 17.544 213.858 16.968ZM231.701 10.408C232.043 10.0667 232.459 9.78933 232.949 9.576C233.461 9.36267 233.984 9.192 234.517 9.064C235.072 8.936 235.627 8.85067 236.181 8.808C236.736 8.76533 237.237 8.744 237.685 8.744C238.517 8.744 239.488 8.84 240.597 9.032C241.728 9.224 242.805 9.55467 243.829 10.024C244.853 10.472 245.717 11.0693 246.421 11.816C247.125 12.5413 247.477 13.448 247.477 14.536V25H240.373V14.536C240.373 14.1093 240.224 13.768 239.925 13.512C239.648 13.2347 239.307 13.0213 238.901 12.872C238.496 12.7227 238.069 12.6267 237.621 12.584C237.195 12.52 236.821 12.488 236.501 12.488C236.181 12.488 235.744 12.52 235.189 12.584C234.656 12.648 234.123 12.776 233.589 12.968C233.077 13.1387 232.629 13.3733 232.245 13.672C231.883 13.9707 231.701 14.344 231.701 14.792V25H224.213V9.032H231.701V10.408ZM83.7739 38.136C83.9445 38.136 84.0939 38.2 84.2219 38.328C84.3499 38.456 84.4139 38.6053 84.4139 38.776V63C84.4139 63.1707 84.3499 63.32 84.2219 63.448C84.0939 63.576 83.9445 63.64 83.7739 63.64H75.1339C74.9632 63.64 74.8139 63.576 74.6859 63.448C74.5579 63.32 74.4939 63.1707 74.4939 63V53.464L66.0139 63.416C65.9925 63.4587 65.9179 63.5013 65.7899 63.544C65.6619 63.608 65.5765 63.64 65.5339 63.64H60.1899C60.1472 63.64 60.0619 63.608 59.9339 63.544C59.8272 63.5013 59.7525 63.4587 59.7099 63.416L51.9659 54.296V63C51.9659 63.1707 51.9019 63.32 51.7739 63.448C51.6459 63.576 51.4965 63.64 51.3259 63.64H42.6859C42.5152 63.64 42.3659 63.576 42.2379 63.448C42.1099 63.32 42.0459 63.1707 42.0459 63V38.776C42.0459 38.6053 42.1099 38.456 42.2379 38.328C42.3659 38.2 42.5152 38.136 42.6859 38.136H49.5019C49.5445 38.136 49.6299 38.168 49.7579 38.232C49.8859 38.2747 49.9605 38.3173 49.9819 38.36L62.8779 53.528L75.6779 38.36C75.6992 38.3173 75.7739 38.2747 75.9019 38.232C76.0299 38.168 76.1152 38.136 76.1579 38.136H83.7739ZM76.1579 38.776L62.8779 54.52L49.5019 38.776H42.6859V63H51.3259V52.568L60.1899 63H65.5339L75.1339 51.736V63H83.7739V38.776H76.1579ZM114.91 54.968C114.91 56.0773 114.654 57.0693 114.142 57.944C113.63 58.7973 112.958 59.544 112.126 60.184C111.294 60.824 110.345 61.3573 109.278 61.784C108.233 62.2107 107.166 62.552 106.078 62.808C105.012 63.064 103.977 63.2453 102.974 63.352C101.972 63.48 101.097 63.544 100.35 63.544C99.625 63.544 98.7504 63.48 97.7264 63.352C96.7237 63.2453 95.6784 63.064 94.5904 62.808C93.5237 62.552 92.457 62.2107 91.3904 61.784C90.345 61.336 89.4064 60.8027 88.5744 60.184C87.7424 59.544 87.0704 58.7973 86.5584 57.944C86.0464 57.0693 85.7904 56.0773 85.7904 54.968C85.7904 53.8373 86.0464 52.8453 86.5584 51.992C87.0704 51.1387 87.7424 50.392 88.5744 49.752C89.4064 49.112 90.345 48.5787 91.3904 48.152C92.457 47.7253 93.5237 47.384 94.5904 47.128C95.6784 46.872 96.7237 46.6907 97.7264 46.584C98.729 46.456 99.6037 46.392 100.35 46.392C101.097 46.392 101.972 46.456 102.974 46.584C103.977 46.6907 105.012 46.872 106.078 47.128C107.166 47.384 108.233 47.7253 109.278 48.152C110.345 48.5787 111.294 49.112 112.126 49.752C112.958 50.392 113.63 51.1493 114.142 52.024C114.654 52.8773 114.91 53.8587 114.91 54.968ZM100.35 47.032C99.5824 47.032 98.7077 47.096 97.7264 47.224C96.745 47.3307 95.7317 47.512 94.6864 47.768C93.6624 48.0027 92.649 48.3333 91.6464 48.76C90.665 49.1653 89.7797 49.6667 88.9904 50.264C88.2224 50.84 87.6037 51.5227 87.1344 52.312C86.665 53.08 86.4304 53.9653 86.4304 54.968C86.4304 55.9707 86.665 56.8667 87.1344 57.656C87.625 58.424 88.2544 59.1067 89.0224 59.704C89.7904 60.28 90.665 60.7707 91.6464 61.176C92.649 61.5813 93.6624 61.912 94.6864 62.168C95.7317 62.424 96.745 62.616 97.7264 62.744C98.7077 62.8507 99.5824 62.904 100.35 62.904C101.118 62.904 101.993 62.8507 102.974 62.744C103.956 62.616 104.958 62.4347 105.982 62.2C107.028 61.944 108.041 61.6133 109.022 61.208C110.025 60.7813 110.91 60.28 111.678 59.704C112.468 59.1067 113.097 58.424 113.566 57.656C114.036 56.8667 114.27 55.9707 114.27 54.968C114.27 53.9653 114.036 53.08 113.566 52.312C113.097 51.5227 112.468 50.84 111.678 50.264C110.91 49.6667 110.025 49.1653 109.022 48.76C108.041 48.3333 107.028 48.0027 105.982 47.768C104.958 47.512 103.956 47.3307 102.974 47.224C101.993 47.096 101.118 47.032 100.35 47.032ZM106.654 54.968C106.654 55.544 106.398 56.024 105.886 56.408C105.396 56.792 104.809 57.112 104.126 57.368C103.444 57.6027 102.75 57.7733 102.046 57.88C101.342 57.9867 100.777 58.04 100.35 58.04C99.9237 58.04 99.3584 57.9867 98.6544 57.88C97.9504 57.7733 97.257 57.6027 96.5744 57.368C95.8917 57.112 95.2944 56.792 94.7824 56.408C94.2917 56.024 94.0464 55.544 94.0464 54.968C94.0464 54.392 94.2917 53.912 94.7824 53.528C95.2944 53.144 95.8917 52.8347 96.5744 52.6C97.257 52.344 97.9504 52.1627 98.6544 52.056C99.3584 51.9493 99.9237 51.896 100.35 51.896C100.777 51.896 101.342 51.9493 102.046 52.056C102.772 52.1413 103.476 52.312 104.158 52.568C104.841 52.8027 105.428 53.1227 105.918 53.528C106.409 53.912 106.654 54.392 106.654 54.968ZM100.35 52.536C100.03 52.536 99.5504 52.5893 98.9104 52.696C98.2917 52.7813 97.6624 52.92 97.0224 53.112C96.4037 53.304 95.8597 53.56 95.3904 53.88C94.921 54.1787 94.6864 54.5413 94.6864 54.968C94.6864 55.3947 94.921 55.768 95.3904 56.088C95.8597 56.3867 96.4037 56.632 97.0224 56.824C97.6624 57.016 98.2917 57.1653 98.9104 57.272C99.5504 57.3573 100.03 57.4 100.35 57.4C100.67 57.4 101.14 57.3573 101.758 57.272C102.398 57.1653 103.028 57.016 103.646 56.824C104.286 56.632 104.841 56.3867 105.31 56.088C105.78 55.768 106.014 55.3947 106.014 54.968C106.014 54.52 105.78 54.1467 105.31 53.848C104.841 53.528 104.297 53.272 103.678 53.08C103.06 52.888 102.43 52.7493 101.79 52.664C101.15 52.5787 100.67 52.536 100.35 52.536ZM143.879 54.968C143.879 56.0773 143.623 57.0693 143.111 57.944C142.599 58.7973 141.927 59.544 141.095 60.184C140.263 60.824 139.314 61.3573 138.247 61.784C137.202 62.2107 136.135 62.552 135.047 62.808C133.98 63.064 132.946 63.2453 131.943 63.352C130.94 63.48 130.066 63.544 129.319 63.544C128.594 63.544 127.719 63.48 126.695 63.352C125.692 63.2453 124.647 63.064 123.559 62.808C122.492 62.552 121.426 62.2107 120.359 61.784C119.314 61.336 118.375 60.8027 117.543 60.184C116.711 59.544 116.039 58.7973 115.527 57.944C115.015 57.0693 114.759 56.0773 114.759 54.968C114.759 53.8373 115.015 52.8453 115.527 51.992C116.039 51.1387 116.711 50.392 117.543 49.752C118.375 49.112 119.314 48.5787 120.359 48.152C121.426 47.7253 122.492 47.384 123.559 47.128C124.647 46.872 125.692 46.6907 126.695 46.584C127.698 46.456 128.572 46.392 129.319 46.392C130.066 46.392 130.94 46.456 131.943 46.584C132.946 46.6907 133.98 46.872 135.047 47.128C136.135 47.384 137.202 47.7253 138.247 48.152C139.314 48.5787 140.263 49.112 141.095 49.752C141.927 50.392 142.599 51.1493 143.111 52.024C143.623 52.8773 143.879 53.8587 143.879 54.968ZM129.319 47.032C128.551 47.032 127.676 47.096 126.695 47.224C125.714 47.3307 124.7 47.512 123.655 47.768C122.631 48.0027 121.618 48.3333 120.615 48.76C119.634 49.1653 118.748 49.6667 117.959 50.264C117.191 50.84 116.572 51.5227 116.103 52.312C115.634 53.08 115.399 53.9653 115.399 54.968C115.399 55.9707 115.634 56.8667 116.103 57.656C116.594 58.424 117.223 59.1067 117.991 59.704C118.759 60.28 119.634 60.7707 120.615 61.176C121.618 61.5813 122.631 61.912 123.655 62.168C124.7 62.424 125.714 62.616 126.695 62.744C127.676 62.8507 128.551 62.904 129.319 62.904C130.087 62.904 130.962 62.8507 131.943 62.744C132.924 62.616 133.927 62.4347 134.951 62.2C135.996 61.944 137.01 61.6133 137.991 61.208C138.994 60.7813 139.879 60.28 140.647 59.704C141.436 59.1067 142.066 58.424 142.535 57.656C143.004 56.8667 143.239 55.9707 143.239 54.968C143.239 53.9653 143.004 53.08 142.535 52.312C142.066 51.5227 141.436 50.84 140.647 50.264C139.879 49.6667 138.994 49.1653 137.991 48.76C137.01 48.3333 135.996 48.0027 134.951 47.768C133.927 47.512 132.924 47.3307 131.943 47.224C130.962 47.096 130.087 47.032 129.319 47.032ZM135.623 54.968C135.623 55.544 135.367 56.024 134.855 56.408C134.364 56.792 133.778 57.112 133.095 57.368C132.412 57.6027 131.719 57.7733 131.015 57.88C130.311 57.9867 129.746 58.04 129.319 58.04C128.892 58.04 128.327 57.9867 127.623 57.88C126.919 57.7733 126.226 57.6027 125.543 57.368C124.86 57.112 124.263 56.792 123.751 56.408C123.26 56.024 123.015 55.544 123.015 54.968C123.015 54.392 123.26 53.912 123.751 53.528C124.263 53.144 124.86 52.8347 125.543 52.6C126.226 52.344 126.919 52.1627 127.623 52.056C128.327 51.9493 128.892 51.896 129.319 51.896C129.746 51.896 130.311 51.9493 131.015 52.056C131.74 52.1413 132.444 52.312 133.127 52.568C133.81 52.8027 134.396 53.1227 134.887 53.528C135.378 53.912 135.623 54.392 135.623 54.968ZM129.319 52.536C128.999 52.536 128.519 52.5893 127.879 52.696C127.26 52.7813 126.631 52.92 125.991 53.112C125.372 53.304 124.828 53.56 124.359 53.88C123.89 54.1787 123.655 54.5413 123.655 54.968C123.655 55.3947 123.89 55.768 124.359 56.088C124.828 56.3867 125.372 56.632 125.991 56.824C126.631 57.016 127.26 57.1653 127.879 57.272C128.519 57.3573 128.999 57.4 129.319 57.4C129.639 57.4 130.108 57.3573 130.727 57.272C131.367 57.1653 131.996 57.016 132.615 56.824C133.255 56.632 133.81 56.3867 134.279 56.088C134.748 55.768 134.983 55.3947 134.983 54.968C134.983 54.52 134.748 54.1467 134.279 53.848C133.81 53.528 133.266 53.272 132.647 53.08C132.028 52.888 131.399 52.7493 130.759 52.664C130.119 52.5787 129.639 52.536 129.319 52.536ZM160.72 38.776C160.72 38.6053 160.784 38.456 160.912 38.328C161.04 38.2 161.189 38.136 161.36 38.136H168.848C169.019 38.136 169.168 38.2 169.296 38.328C169.424 38.456 169.488 38.6053 169.488 38.776V63C169.488 63.1707 169.424 63.32 169.296 63.448C169.168 63.576 169.019 63.64 168.848 63.64H161.36C161.189 63.64 161.04 63.576 160.912 63.448C160.784 63.32 160.72 63.1707 160.72 63V62.904C159.909 63.2667 159.056 63.512 158.16 63.64C157.285 63.768 156.421 63.832 155.568 63.832C154.8 63.832 153.947 63.768 153.008 63.64C152.091 63.512 151.163 63.2987 150.224 63C149.307 62.7227 148.411 62.36 147.536 61.912C146.661 61.4427 145.883 60.888 145.2 60.248C144.517 59.608 143.973 58.872 143.568 58.04C143.163 57.1867 142.96 56.2267 142.96 55.16C142.96 54.0507 143.173 53.0693 143.6 52.216C144.048 51.3627 144.635 50.616 145.36 49.976C146.085 49.3147 146.907 48.76 147.824 48.312C148.763 47.864 149.723 47.5013 150.704 47.224C151.685 46.9253 152.656 46.712 153.616 46.584C154.576 46.456 155.44 46.392 156.208 46.392C156.955 46.392 157.701 46.424 158.448 46.488C159.216 46.552 159.973 46.6587 160.72 46.808V38.776ZM161.36 47.608C160.528 47.3947 159.653 47.2453 158.736 47.16C157.819 47.0747 156.976 47.032 156.208 47.032C155.44 47.032 154.587 47.096 153.648 47.224C152.731 47.352 151.803 47.5547 150.864 47.832C149.925 48.088 149.019 48.4293 148.144 48.856C147.269 49.2827 146.491 49.8053 145.808 50.424C145.147 51.0213 144.613 51.7147 144.208 52.504C143.803 53.2933 143.6 54.1787 143.6 55.16C143.6 56.4613 143.963 57.6133 144.688 58.616C145.413 59.6187 146.341 60.4613 147.472 61.144C148.624 61.8267 149.904 62.3387 151.312 62.68C152.741 63.0213 154.16 63.192 155.568 63.192C156.656 63.192 157.701 63.0853 158.704 62.872C159.707 62.6373 160.592 62.3067 161.36 61.88V63H168.848V38.776H161.36V47.608ZM161.936 55.032C161.936 55.736 161.744 56.312 161.36 56.76C160.976 57.1867 160.496 57.528 159.92 57.784C159.344 58.0187 158.725 58.1787 158.064 58.264C157.403 58.3493 156.784 58.392 156.208 58.392C155.76 58.392 155.216 58.3387 154.576 58.232C153.936 58.104 153.328 57.912 152.752 57.656C152.176 57.4 151.675 57.0693 151.248 56.664C150.843 56.2587 150.64 55.7573 150.64 55.16C150.64 54.584 150.843 54.0933 151.248 53.688C151.653 53.2613 152.144 52.92 152.72 52.664C153.296 52.3867 153.904 52.1947 154.544 52.088C155.184 51.96 155.739 51.896 156.208 51.896C156.699 51.896 157.275 51.9387 157.936 52.024C158.597 52.1093 159.227 52.2693 159.824 52.504C160.421 52.7387 160.923 53.0587 161.328 53.464C161.733 53.8693 161.936 54.392 161.936 55.032ZM156.208 52.536C155.845 52.536 155.387 52.5893 154.832 52.696C154.277 52.7813 153.733 52.9307 153.2 53.144C152.667 53.3573 152.208 53.6347 151.824 53.976C151.461 54.296 151.28 54.6907 151.28 55.16C151.28 55.6293 151.461 56.0347 151.824 56.376C152.208 56.696 152.667 56.9627 153.2 57.176C153.733 57.368 154.277 57.5173 154.832 57.624C155.387 57.7093 155.845 57.752 156.208 57.752C156.656 57.752 157.168 57.72 157.744 57.656C158.32 57.592 158.875 57.464 159.408 57.272C159.941 57.08 160.389 56.8133 160.752 56.472C161.115 56.1093 161.296 55.6293 161.296 55.032C161.296 54.4987 161.104 54.072 160.72 53.752C160.336 53.432 159.867 53.1867 159.312 53.016C158.779 52.824 158.224 52.696 157.648 52.632C157.072 52.568 156.592 52.536 156.208 52.536ZM178.097 38.136C178.268 38.136 178.417 38.2 178.545 38.328C178.673 38.456 178.737 38.6053 178.737 38.776V63C178.737 63.1707 178.673 63.32 178.545 63.448C178.417 63.576 178.268 63.64 178.097 63.64H170.577C170.406 63.64 170.257 63.576 170.129 63.448C170.001 63.32 169.937 63.1707 169.937 63V38.776C169.937 38.6053 170.001 38.456 170.129 38.328C170.257 38.2 170.406 38.136 170.577 38.136H178.097ZM170.577 38.776V63H178.097V38.776H170.577ZM197.713 56.152C197.735 56.1307 197.799 56.1093 197.905 56.088C198.012 56.0453 198.076 56.024 198.097 56.024H206.001C206.3 56.024 206.503 56.12 206.609 56.312C206.737 56.504 206.716 56.7387 206.545 57.016C206.396 57.2293 206.257 57.4427 206.129 57.656C206.001 57.8693 205.863 58.0933 205.713 58.328C205.052 59.3307 204.231 60.1733 203.249 60.856C202.268 61.5387 201.212 62.0933 200.081 62.52C198.951 62.9253 197.788 63.2133 196.593 63.384C195.399 63.5547 194.268 63.64 193.201 63.64C192.433 63.64 191.559 63.576 190.577 63.448C189.617 63.32 188.636 63.1173 187.633 62.84C186.631 62.5627 185.649 62.2 184.689 61.752C183.751 61.2827 182.908 60.728 182.161 60.088C181.415 59.448 180.807 58.7013 180.337 57.848C179.889 56.9733 179.665 55.992 179.665 54.904C179.665 53.752 179.879 52.7387 180.305 51.864C180.753 50.9893 181.329 50.2213 182.033 49.56C182.759 48.8987 183.58 48.3547 184.497 47.928C185.415 47.48 186.364 47.1173 187.345 46.84C188.348 46.5627 189.329 46.3707 190.289 46.264C191.271 46.136 192.167 46.072 192.977 46.072C193.809 46.072 194.716 46.136 195.697 46.264C196.7 46.392 197.703 46.5947 198.705 46.872C199.729 47.1493 200.711 47.5227 201.649 47.992C202.609 48.44 203.452 49.0053 204.177 49.688C204.903 50.3493 205.479 51.128 205.905 52.024C206.353 52.92 206.567 53.9547 206.545 55.128C206.545 55.2987 206.481 55.448 206.353 55.576C206.225 55.704 206.076 55.768 205.905 55.768H188.337C188.572 56.0453 188.871 56.3013 189.233 56.536C189.617 56.7493 190.033 56.9307 190.481 57.08C190.929 57.208 191.388 57.3147 191.857 57.4C192.348 57.464 192.796 57.496 193.201 57.496C194.012 57.496 194.812 57.4 195.601 57.208C196.391 56.9947 197.095 56.6427 197.713 56.152ZM193.201 58.136C192.732 58.136 192.177 58.0827 191.537 57.976C190.919 57.8693 190.311 57.6987 189.713 57.464C189.137 57.2293 188.625 56.92 188.177 56.536C187.729 56.152 187.452 55.6827 187.345 55.128H205.905C205.927 53.72 205.564 52.4933 204.817 51.448C204.092 50.4027 203.111 49.528 201.873 48.824C200.657 48.12 199.271 47.5973 197.713 47.256C196.156 46.8933 194.577 46.712 192.977 46.712C191.399 46.712 189.841 46.8827 188.305 47.224C186.791 47.5653 185.436 48.0773 184.241 48.76C183.068 49.4427 182.119 50.296 181.393 51.32C180.668 52.344 180.305 53.5387 180.305 54.904C180.305 55.8853 180.508 56.7707 180.913 57.56C181.34 58.328 181.905 59.0107 182.609 59.608C183.313 60.2053 184.113 60.728 185.009 61.176C185.905 61.6027 186.823 61.9547 187.761 62.232C188.721 62.488 189.671 62.68 190.609 62.808C191.569 62.936 192.433 63 193.201 63C194.247 63 195.345 62.9147 196.497 62.744C197.649 62.5733 198.769 62.2853 199.857 61.88C200.945 61.4747 201.948 60.952 202.865 60.312C203.804 59.672 204.572 58.8933 205.169 57.976L206.001 56.664H198.097C197.436 57.1973 196.657 57.5813 195.761 57.816C194.887 58.0293 194.033 58.136 193.201 58.136ZM187.345 53.016C187.772 52.4187 188.476 51.992 189.457 51.736C190.46 51.4587 191.527 51.32 192.657 51.32C193.233 51.32 193.809 51.3627 194.385 51.448C194.961 51.512 195.484 51.6187 195.953 51.768C196.444 51.896 196.86 52.0667 197.201 52.28C197.564 52.4933 197.82 52.7387 197.969 53.016H187.345ZM195.793 52.376C195.281 52.248 194.769 52.152 194.257 52.088C193.745 52.0027 193.212 51.96 192.657 51.96C192.167 51.96 191.644 51.992 191.089 52.056C190.535 52.0987 190.012 52.2053 189.521 52.376H195.793Z" fill="#242121"/>
</svg>
