<svg width="181" height="71" viewBox="0 0 181 71" fill="none" xmlns="http://www.w3.org/2000/svg">
<path d="M83.227 0.775999V25H74.587V13.736L64.987 25H59.643L50.779 14.568V25H42.139V0.775999H48.955L62.331 16.52L75.611 0.775999H83.227ZM99.8035 9.032C100.572 9.032 101.446 9.096 102.428 9.224C103.409 9.33067 104.412 9.512 105.436 9.768C106.481 10.0027 107.494 10.3333 108.476 10.76C109.478 11.1653 110.364 11.6667 111.132 12.264C111.921 12.84 112.55 13.5227 113.02 14.312C113.489 15.08 113.724 15.9653 113.724 16.968C113.724 17.9707 113.489 18.8667 113.02 19.656C112.55 20.424 111.921 21.1067 111.132 21.704C110.364 22.28 109.478 22.7813 108.476 23.208C107.494 23.6133 106.481 23.944 105.436 24.2C104.412 24.4347 103.409 24.616 102.428 24.744C101.446 24.8507 100.572 24.904 99.8035 24.904C99.0355 24.904 98.1608 24.8507 97.1795 24.744C96.1982 24.616 95.1848 24.424 94.1395 24.168C93.1155 23.912 92.1022 23.5813 91.0995 23.176C90.1182 22.7707 89.2435 22.28 88.4755 21.704C87.7075 21.1067 87.0782 20.424 86.5875 19.656C86.1182 18.8667 85.8835 17.9707 85.8835 16.968C85.8835 15.9653 86.1182 15.08 86.5875 14.312C87.0568 13.5227 87.6755 12.84 88.4435 12.264C89.2328 11.6667 90.1182 11.1653 91.0995 10.76C92.1022 10.3333 93.1155 10.0027 94.1395 9.768C95.1848 9.512 96.1982 9.33067 97.1795 9.224C98.1608 9.096 99.0355 9.032 99.8035 9.032ZM106.108 16.968C106.108 16.392 105.862 15.912 105.372 15.528C104.881 15.1227 104.294 14.8027 103.612 14.568C102.929 14.312 102.225 14.1413 101.5 14.056C100.796 13.9493 100.23 13.896 99.8035 13.896C99.3768 13.896 98.8115 13.9493 98.1075 14.056C97.4035 14.1627 96.7102 14.344 96.0275 14.6C95.3448 14.8347 94.7475 15.144 94.2355 15.528C93.7448 15.912 93.4995 16.392 93.4995 16.968C93.4995 17.544 93.7448 18.024 94.2355 18.408C94.7475 18.792 95.3448 19.112 96.0275 19.368C96.7102 19.6027 97.4035 19.7733 98.1075 19.88C98.8115 19.9867 99.3768 20.04 99.8035 20.04C100.23 20.04 100.796 19.9867 101.5 19.88C102.204 19.7733 102.897 19.6027 103.58 19.368C104.262 19.112 104.849 18.792 105.34 18.408C105.852 18.024 106.108 17.544 106.108 16.968ZM123.951 10.408C124.293 10.0667 124.709 9.78933 125.199 9.576C125.711 9.36267 126.234 9.192 126.767 9.064C127.322 8.936 127.877 8.85067 128.431 8.808C128.986 8.76533 129.487 8.744 129.935 8.744C130.767 8.744 131.738 8.84 132.847 9.032C133.978 9.224 135.055 9.55467 136.079 10.024C137.103 10.472 137.967 11.0693 138.671 11.816C139.375 12.5413 139.727 13.448 139.727 14.536V25H132.623V14.536C132.623 14.1093 132.474 13.768 132.175 13.512C131.898 13.2347 131.557 13.0213 131.151 12.872C130.746 12.7227 130.319 12.6267 129.871 12.584C129.445 12.52 129.071 12.488 128.751 12.488C128.431 12.488 127.994 12.52 127.439 12.584C126.906 12.648 126.373 12.776 125.839 12.968C125.327 13.1387 124.879 13.3733 124.495 13.672C124.133 13.9707 123.951 14.344 123.951 14.792V25H116.463V9.032H123.951V10.408ZM27.6214 47.672C27.5787 47.672 27.504 47.6613 27.3974 47.64C27.2907 47.5973 27.2267 47.5653 27.2054 47.544C26.736 47.1387 26.192 46.776 25.5734 46.456C24.976 46.1147 24.3467 45.8373 23.6854 45.624C23.024 45.3893 22.352 45.2187 21.6694 45.112C20.9867 44.984 20.3254 44.92 19.6854 44.92C18.768 44.92 17.7654 45.0587 16.6774 45.336C15.5894 45.592 14.576 45.976 13.6374 46.488C12.72 47 11.952 47.6293 11.3334 48.376C10.7147 49.1227 10.4054 49.9653 10.4054 50.904C10.4054 51.864 10.7147 52.7067 11.3334 53.432C11.952 54.136 12.72 54.7227 13.6374 55.192C14.576 55.64 15.5894 55.9813 16.6774 56.216C17.7654 56.4507 18.768 56.568 19.6854 56.568C20.432 56.568 21.2107 56.504 22.0214 56.376C22.832 56.2267 23.6214 56.0133 24.3894 55.736C25.1787 55.4373 25.904 55.0747 26.5654 54.648C27.2267 54.2213 27.7707 53.72 28.1974 53.144C28.24 53.1013 28.3254 53.048 28.4534 52.984C28.6027 52.92 28.7094 52.888 28.7734 52.888L37.6694 53.592C37.904 53.6133 38.0747 53.7093 38.1814 53.88C38.288 54.0293 38.2987 54.2213 38.2134 54.456C37.7654 55.5867 37.136 56.6 36.3254 57.496C35.536 58.392 34.6294 59.1813 33.6054 59.864C32.5814 60.5467 31.472 61.1333 30.2774 61.624C29.0827 62.0933 27.8667 62.4773 26.6294 62.776C25.4134 63.0747 24.208 63.288 23.0134 63.416C21.84 63.5653 20.7307 63.64 19.6854 63.64C18.512 63.64 17.2214 63.544 15.8134 63.352C14.4267 63.16 13.0187 62.8613 11.5894 62.456C10.16 62.0293 8.77338 61.4853 7.42938 60.824C6.10671 60.1627 4.92271 59.3627 3.87738 58.424C2.85338 57.464 2.03204 56.3653 1.41338 55.128C0.794708 53.8907 0.485375 52.4827 0.485375 50.904C0.485375 49.3467 0.773375 47.9493 1.34938 46.712C1.92538 45.4533 2.69338 44.344 3.65338 43.384C4.63471 42.4027 5.75471 41.5707 7.01338 40.888C8.27204 40.2053 9.58404 39.64 10.9494 39.192C12.336 38.744 13.7227 38.4133 15.1094 38.2C16.496 37.9867 17.7867 37.88 18.9814 37.88C20.0267 37.88 21.1574 37.944 22.3734 38.072C23.5894 38.1787 24.816 38.3707 26.0534 38.648C27.312 38.9253 28.5494 39.288 29.7654 39.736C31.0027 40.184 32.1547 40.7387 33.2214 41.4C34.288 42.04 35.2374 42.808 36.0694 43.704C36.9014 44.6 37.552 45.624 38.0214 46.776C38.128 47.032 38.1174 47.2453 37.9894 47.416C37.8827 47.5867 37.7014 47.672 37.4454 47.672H27.6214ZM37.4454 47.032C36.9974 45.944 36.3787 44.984 35.5894 44.152C34.8 43.2987 33.8934 42.5627 32.8694 41.944C31.8454 41.304 30.736 40.7707 29.5414 40.344C28.368 39.896 27.1734 39.544 25.9574 39.288C24.7414 39.0107 23.536 38.8187 22.3414 38.712C21.1467 38.584 20.0267 38.52 18.9814 38.52C17.7867 38.52 16.5067 38.6267 15.1414 38.84C13.7974 39.0533 12.464 39.3733 11.1414 39.8C9.81871 40.2267 8.54938 40.7813 7.33337 41.464C6.13871 42.1253 5.07204 42.9147 4.13338 43.832C3.21604 44.7493 2.48004 45.7947 1.92538 46.968C1.39204 48.1413 1.12538 49.4533 1.12538 50.904C1.12538 52.3547 1.41338 53.6667 1.98938 54.84C2.58671 56.0133 3.37604 57.048 4.35738 57.944C5.33871 58.84 6.46938 59.608 7.74938 60.248C9.02938 60.888 10.352 61.4107 11.7174 61.816C13.104 62.2213 14.48 62.52 15.8454 62.712C17.232 62.904 18.512 63 19.6854 63C20.7094 63 21.808 62.936 22.9814 62.808C24.1547 62.6587 25.3387 62.4453 26.5334 62.168C27.728 61.8693 28.8907 61.4853 30.0214 61.016C31.1734 60.5467 32.24 59.992 33.2214 59.352C34.224 58.6907 35.0987 57.944 35.8454 57.112C36.6134 56.2587 37.2 55.2987 37.6054 54.232L28.7094 53.528C28.2614 54.1467 27.6747 54.6907 26.9494 55.16C26.224 55.608 25.4454 55.992 24.6134 56.312C23.8027 56.6107 22.96 56.8347 22.0854 56.984C21.232 57.1333 20.432 57.208 19.6854 57.208C18.7894 57.208 17.7654 57.0907 16.6134 56.856C15.4614 56.6213 14.3734 56.2587 13.3494 55.768C12.3467 55.256 11.4934 54.6053 10.7894 53.816C10.1067 53.0053 9.76538 52.0347 9.76538 50.904C9.76538 49.7947 10.1067 48.8347 10.7894 48.024C11.4934 47.192 12.3467 46.4987 13.3494 45.944C14.3734 45.3893 15.4614 44.9733 16.6134 44.696C17.7654 44.4187 18.7894 44.28 19.6854 44.28C20.3467 44.28 21.0294 44.344 21.7334 44.472C22.4587 44.6 23.1734 44.7813 23.8774 45.016C24.5814 45.2507 25.2534 45.5387 25.8934 45.88C26.5334 46.2213 27.1094 46.6053 27.6214 47.032H37.4454ZM69.7541 54.968C69.7541 56.0773 69.4981 57.0693 68.9861 57.944C68.4741 58.7973 67.8021 59.544 66.9701 60.184C66.1381 60.824 65.1888 61.3573 64.1221 61.784C63.0768 62.2107 62.0101 62.552 60.9221 62.808C59.8555 63.064 58.8208 63.2453 57.8181 63.352C56.8155 63.48 55.9408 63.544 55.1941 63.544C54.4688 63.544 53.5941 63.48 52.5701 63.352C51.5675 63.2453 50.5221 63.064 49.4341 62.808C48.3675 62.552 47.3008 62.2107 46.2341 61.784C45.1888 61.336 44.2501 60.8027 43.4181 60.184C42.5861 59.544 41.9141 58.7973 41.4021 57.944C40.8901 57.0693 40.6341 56.0773 40.6341 54.968C40.6341 53.8373 40.8901 52.8453 41.4021 51.992C41.9141 51.1387 42.5861 50.392 43.4181 49.752C44.2501 49.112 45.1888 48.5787 46.2341 48.152C47.3008 47.7253 48.3675 47.384 49.4341 47.128C50.5221 46.872 51.5675 46.6907 52.5701 46.584C53.5728 46.456 54.4475 46.392 55.1941 46.392C55.9408 46.392 56.8155 46.456 57.8181 46.584C58.8208 46.6907 59.8555 46.872 60.9221 47.128C62.0101 47.384 63.0768 47.7253 64.1221 48.152C65.1888 48.5787 66.1381 49.112 66.9701 49.752C67.8021 50.392 68.4741 51.1493 68.9861 52.024C69.4981 52.8773 69.7541 53.8587 69.7541 54.968ZM55.1941 47.032C54.4261 47.032 53.5515 47.096 52.5701 47.224C51.5888 47.3307 50.5755 47.512 49.5301 47.768C48.5061 48.0027 47.4928 48.3333 46.4901 48.76C45.5088 49.1653 44.6235 49.6667 43.8341 50.264C43.0661 50.84 42.4475 51.5227 41.9781 52.312C41.5088 53.08 41.2741 53.9653 41.2741 54.968C41.2741 55.9707 41.5088 56.8667 41.9781 57.656C42.4688 58.424 43.0981 59.1067 43.8661 59.704C44.6341 60.28 45.5088 60.7707 46.4901 61.176C47.4928 61.5813 48.5061 61.912 49.5301 62.168C50.5755 62.424 51.5888 62.616 52.5701 62.744C53.5515 62.8507 54.4261 62.904 55.1941 62.904C55.9621 62.904 56.8368 62.8507 57.8181 62.744C58.7995 62.616 59.8021 62.4347 60.8261 62.2C61.8715 61.944 62.8848 61.6133 63.8661 61.208C64.8688 60.7813 65.7541 60.28 66.5221 59.704C67.3115 59.1067 67.9408 58.424 68.4101 57.656C68.8795 56.8667 69.1141 55.9707 69.1141 54.968C69.1141 53.9653 68.8795 53.08 68.4101 52.312C67.9408 51.5227 67.3115 50.84 66.5221 50.264C65.7541 49.6667 64.8688 49.1653 63.8661 48.76C62.8848 48.3333 61.8715 48.0027 60.8261 47.768C59.8021 47.512 58.7995 47.3307 57.8181 47.224C56.8368 47.096 55.9621 47.032 55.1941 47.032ZM61.4981 54.968C61.4981 55.544 61.2421 56.024 60.7301 56.408C60.2395 56.792 59.6528 57.112 58.9701 57.368C58.2875 57.6027 57.5941 57.7733 56.8901 57.88C56.1861 57.9867 55.6208 58.04 55.1941 58.04C54.7675 58.04 54.2021 57.9867 53.4981 57.88C52.7941 57.7733 52.1008 57.6027 51.4181 57.368C50.7355 57.112 50.1381 56.792 49.6261 56.408C49.1355 56.024 48.8901 55.544 48.8901 54.968C48.8901 54.392 49.1355 53.912 49.6261 53.528C50.1381 53.144 50.7355 52.8347 51.4181 52.6C52.1008 52.344 52.7941 52.1627 53.4981 52.056C54.2021 51.9493 54.7675 51.896 55.1941 51.896C55.6208 51.896 56.1861 51.9493 56.8901 52.056C57.6155 52.1413 58.3195 52.312 59.0021 52.568C59.6848 52.8027 60.2715 53.1227 60.7621 53.528C61.2528 53.912 61.4981 54.392 61.4981 54.968ZM55.1941 52.536C54.8741 52.536 54.3941 52.5893 53.7541 52.696C53.1355 52.7813 52.5061 52.92 51.8661 53.112C51.2475 53.304 50.7035 53.56 50.2341 53.88C49.7648 54.1787 49.5301 54.5413 49.5301 54.968C49.5301 55.3947 49.7648 55.768 50.2341 56.088C50.7035 56.3867 51.2475 56.632 51.8661 56.824C52.5061 57.016 53.1355 57.1653 53.7541 57.272C54.3941 57.3573 54.8741 57.4 55.1941 57.4C55.5141 57.4 55.9835 57.3573 56.6021 57.272C57.2421 57.1653 57.8715 57.016 58.4901 56.824C59.1301 56.632 59.6848 56.3867 60.1541 56.088C60.6235 55.768 60.8581 55.3947 60.8581 54.968C60.8581 54.52 60.6235 54.1467 60.1541 53.848C59.6848 53.528 59.1408 53.272 58.5221 53.08C57.9035 52.888 57.2741 52.7493 56.6341 52.664C55.9941 52.5787 55.5141 52.536 55.1941 52.536ZM83.8026 46.104C84.4853 46.104 85.2 46.1467 85.9466 46.232C86.6933 46.3173 87.44 46.456 88.1866 46.648C88.9333 46.84 89.648 47.1067 90.3306 47.448C91.0346 47.768 91.6746 48.1733 92.2506 48.664C93.4666 47.7893 94.8 47.16 96.2506 46.776C97.7226 46.392 99.184 46.2 100.635 46.2C101.467 46.2 102.416 46.3067 103.483 46.52C104.571 46.712 105.595 47.0533 106.555 47.544C107.515 48.0347 108.325 48.6853 108.987 49.496C109.669 50.3067 110.011 51.32 110.011 52.536V63C110.011 63.1707 109.947 63.32 109.819 63.448C109.691 63.576 109.541 63.64 109.371 63.64H102.267C102.096 63.64 101.947 63.576 101.819 63.448C101.691 63.32 101.627 63.1707 101.627 63V52.536C101.627 52.2373 101.499 52.0027 101.243 51.832C100.987 51.64 100.677 51.4907 100.315 51.384C99.9733 51.2773 99.6213 51.2133 99.2586 51.192C98.896 51.1493 98.608 51.128 98.3946 51.128C98.1813 51.128 97.84 51.16 97.3706 51.224C96.9013 51.2667 96.432 51.352 95.9626 51.48C95.5146 51.608 95.1093 51.7787 94.7466 51.992C94.4053 52.2053 94.2346 52.472 94.2346 52.792V63C94.2346 63.1707 94.1706 63.32 94.0426 63.448C93.9146 63.576 93.7653 63.64 93.5946 63.64H86.1066C85.936 63.64 85.7866 63.576 85.6586 63.448C85.5306 63.32 85.4666 63.1707 85.4666 63V51.832C85.1466 51.5547 84.72 51.3733 84.1866 51.288C83.6746 51.1813 83.152 51.128 82.6186 51.128C82.384 51.128 82.032 51.16 81.5626 51.224C81.1146 51.2667 80.656 51.352 80.1866 51.48C79.7173 51.608 79.312 51.7787 78.9706 51.992C78.6293 52.2053 78.4586 52.472 78.4586 52.792V63C78.4586 63.1707 78.3946 63.32 78.2666 63.448C78.1386 63.576 77.9893 63.64 77.8186 63.64H70.3306C70.16 63.64 70.0106 63.576 69.8826 63.448C69.7546 63.32 69.6906 63.1707 69.6906 63V47.032C69.6906 46.8613 69.7546 46.712 69.8826 46.584C70.0106 46.456 70.16 46.392 70.3306 46.392H77.8186C77.9893 46.392 78.1386 46.456 78.2666 46.584C78.3946 46.712 78.4586 46.8613 78.4586 47.032V47.16C78.864 46.9467 79.3013 46.776 79.7706 46.648C80.24 46.4987 80.7093 46.392 81.1786 46.328C81.6693 46.2427 82.1386 46.1893 82.5866 46.168C83.0346 46.1253 83.44 46.104 83.8026 46.104ZM77.8186 48.408V47.032H70.3306V63H77.8186V52.792C77.8186 52.344 78 51.9707 78.3626 51.672C78.7466 51.3733 79.1946 51.1387 79.7066 50.968C80.24 50.776 80.7733 50.648 81.3066 50.584C81.8613 50.52 82.2986 50.488 82.6186 50.488C83.1733 50.488 83.792 50.5627 84.4746 50.712C85.1573 50.84 85.7013 51.128 86.1066 51.576V63H93.5946V52.792C93.5946 52.344 93.776 51.9707 94.1386 51.672C94.5226 51.3733 94.9706 51.1387 95.4826 50.968C96.016 50.776 96.5493 50.648 97.0826 50.584C97.6373 50.52 98.0746 50.488 98.3946 50.488C98.7146 50.488 99.088 50.52 99.5146 50.584C99.9626 50.6267 100.389 50.7227 100.795 50.872C101.2 51.0213 101.541 51.2347 101.819 51.512C102.117 51.768 102.267 52.1093 102.267 52.536V63H109.371V52.536C109.371 51.4907 109.072 50.6053 108.475 49.88C107.877 49.1547 107.131 48.568 106.235 48.12C105.36 47.672 104.411 47.352 103.387 47.16C102.384 46.9467 101.467 46.84 100.635 46.84C99.1626 46.84 97.68 47.0533 96.1866 47.48C94.7146 47.9067 93.3813 48.5787 92.1866 49.496C91.6746 48.984 91.0773 48.5573 90.3946 48.216C89.7333 47.8533 89.0293 47.5653 88.2826 47.352C87.536 47.1387 86.7786 46.9893 86.0106 46.904C85.2426 46.7973 84.5066 46.744 83.8026 46.744C83.3546 46.744 82.8533 46.7653 82.2986 46.808C81.744 46.8507 81.1893 46.936 80.6346 47.064C80.1013 47.192 79.5786 47.3627 79.0666 47.576C78.576 47.7893 78.16 48.0667 77.8186 48.408ZM119.54 69.72C119.54 69.8907 119.476 70.04 119.348 70.168C119.22 70.296 119.071 70.36 118.9 70.36H111.412C111.242 70.36 111.092 70.296 110.964 70.168C110.836 70.04 110.772 69.8907 110.772 69.72V47.032C110.772 46.8613 110.836 46.712 110.964 46.584C111.092 46.456 111.242 46.392 111.412 46.392H118.9C119.071 46.392 119.22 46.456 119.348 46.584C119.476 46.712 119.54 46.8613 119.54 47.032V47.128C120.351 46.7653 121.194 46.52 122.068 46.392C122.964 46.264 123.839 46.2 124.692 46.2C125.46 46.2 126.303 46.264 127.22 46.392C128.159 46.52 129.087 46.7333 130.004 47.032C130.943 47.3093 131.85 47.6827 132.724 48.152C133.599 48.6 134.378 49.144 135.06 49.784C135.743 50.424 136.287 51.1707 136.692 52.024C137.098 52.856 137.3 53.8053 137.3 54.872C137.3 55.96 137.076 56.9413 136.628 57.816C136.202 58.6693 135.626 59.4267 134.9 60.088C134.175 60.728 133.343 61.272 132.404 61.72C131.487 62.168 130.538 62.5413 129.556 62.84C128.575 63.1173 127.604 63.32 126.644 63.448C125.706 63.576 124.842 63.64 124.052 63.64C122.495 63.64 120.991 63.5013 119.54 63.224V69.72ZM118.9 62.424C120.564 62.808 122.282 63 124.052 63C124.842 63 125.706 62.936 126.644 62.808C127.583 62.68 128.511 62.4773 129.428 62.2C130.367 61.9227 131.274 61.5707 132.148 61.144C133.023 60.7173 133.791 60.2053 134.452 59.608C135.114 59.0107 135.647 58.3173 136.052 57.528C136.458 56.7387 136.66 55.8533 136.66 54.872C136.66 53.4213 136.255 52.1947 135.444 51.192C134.634 50.168 133.62 49.336 132.404 48.696C131.21 48.056 129.919 47.5867 128.532 47.288C127.146 46.9893 125.866 46.84 124.692 46.84C123.711 46.84 122.719 46.936 121.716 47.128C120.714 47.2987 119.775 47.6293 118.9 48.12V47.032H111.412V69.72H118.9V62.424ZM118.324 55C118.324 54.296 118.516 53.72 118.9 53.272C119.306 52.824 119.796 52.4827 120.372 52.248C120.948 52.0133 121.567 51.8533 122.228 51.768C122.911 51.6827 123.519 51.64 124.052 51.64C124.5 51.64 125.044 51.704 125.684 51.832C126.324 51.9387 126.932 52.12 127.508 52.376C128.106 52.632 128.607 52.9627 129.012 53.368C129.418 53.7733 129.62 54.2747 129.62 54.872C129.62 55.448 129.418 55.9493 129.012 56.376C128.607 56.7813 128.116 57.1227 127.54 57.4C126.964 57.656 126.356 57.848 125.716 57.976C125.076 58.0827 124.522 58.136 124.052 58.136C123.562 58.136 122.986 58.0933 122.324 58.008C121.663 57.9227 121.034 57.7627 120.436 57.528C119.86 57.2933 119.359 56.9733 118.932 56.568C118.527 56.1627 118.324 55.64 118.324 55ZM124.052 57.496C124.415 57.496 124.874 57.4533 125.428 57.368C125.983 57.2613 126.527 57.1013 127.06 56.888C127.594 56.6747 128.042 56.408 128.404 56.088C128.788 55.7467 128.98 55.3413 128.98 54.872C128.98 54.3813 128.788 53.976 128.404 53.656C128.042 53.336 127.594 53.0693 127.06 52.856C126.527 52.6427 125.983 52.4933 125.428 52.408C124.874 52.3227 124.415 52.28 124.052 52.28C123.604 52.28 123.092 52.312 122.516 52.376C121.94 52.4187 121.386 52.536 120.852 52.728C120.319 52.92 119.871 53.1973 119.508 53.56C119.146 53.9227 118.964 54.4027 118.964 55C118.964 55.512 119.156 55.928 119.54 56.248C119.924 56.568 120.383 56.824 120.916 57.016C121.471 57.208 122.036 57.336 122.612 57.4C123.188 57.464 123.668 57.496 124.052 57.496ZM148.276 57.496H148.372C148.543 57.5173 148.724 57.528 148.916 57.528C149.129 57.528 149.332 57.528 149.524 57.528H151.508C151.679 57.528 151.828 57.592 151.956 57.72C152.084 57.848 152.148 57.9973 152.148 58.168V62.968C152.148 63.1387 152.084 63.288 151.956 63.416C151.828 63.544 151.679 63.608 151.508 63.608H149.556C148.937 63.608 148.212 63.5867 147.38 63.544C146.548 63.5013 145.705 63.3947 144.852 63.224C144.02 63.0533 143.22 62.7973 142.452 62.456C141.684 62.1147 141.044 61.6453 140.532 61.048C140.511 61.0267 140.479 60.9627 140.436 60.856C140.393 60.728 140.372 60.6533 140.372 60.632C140.095 60.4187 139.881 60.088 139.732 59.64C139.583 59.192 139.508 58.712 139.508 58.2V48.952H136.244C136.073 48.952 135.924 48.888 135.796 48.76C135.668 48.632 135.604 48.4827 135.604 48.312V44.568C135.604 44.3973 135.668 44.248 135.796 44.12C135.924 43.992 136.073 43.928 136.244 43.928H139.508V38.776C139.508 38.6053 139.572 38.456 139.7 38.328C139.828 38.2 139.977 38.136 140.148 38.136H147.636C147.807 38.136 147.956 38.2 148.084 38.328C148.212 38.456 148.276 38.6053 148.276 38.776V43.928H151.508C151.679 43.928 151.828 43.992 151.956 44.12C152.084 44.248 152.148 44.3973 152.148 44.568V48.312C152.148 48.4827 152.084 48.632 151.956 48.76C151.828 48.888 151.679 48.952 151.508 48.952H148.276V57.496ZM151.508 48.312V44.568H147.636V38.776H140.148V44.568H136.244V48.312H140.148V58.2C140.148 59.1173 140.436 59.9173 141.012 60.6V60.632C141.46 61.1653 142.036 61.592 142.74 61.912C143.444 62.2107 144.191 62.4453 144.98 62.616C145.791 62.7653 146.591 62.8613 147.38 62.904C148.191 62.9467 148.916 62.968 149.556 62.968H151.508V58.168H149.524C148.863 58.1467 148.415 58.136 148.18 58.136C147.967 58.136 147.785 58.1147 147.636 58.072V48.312H151.508ZM171.026 56.152C171.047 56.1307 171.111 56.1093 171.218 56.088C171.325 56.0453 171.389 56.024 171.41 56.024H179.314C179.613 56.024 179.815 56.12 179.922 56.312C180.05 56.504 180.029 56.7387 179.858 57.016C179.709 57.2293 179.57 57.4427 179.442 57.656C179.314 57.8693 179.175 58.0933 179.026 58.328C178.365 59.3307 177.543 60.1733 176.562 60.856C175.581 61.5387 174.525 62.0933 173.394 62.52C172.263 62.9253 171.101 63.2133 169.906 63.384C168.711 63.5547 167.581 63.64 166.514 63.64C165.746 63.64 164.871 63.576 163.89 63.448C162.93 63.32 161.949 63.1173 160.946 62.84C159.943 62.5627 158.962 62.2 158.002 61.752C157.063 61.2827 156.221 60.728 155.474 60.088C154.727 59.448 154.119 58.7013 153.65 57.848C153.202 56.9733 152.978 55.992 152.978 54.904C152.978 53.752 153.191 52.7387 153.618 51.864C154.066 50.9893 154.642 50.2213 155.346 49.56C156.071 48.8987 156.893 48.3547 157.81 47.928C158.727 47.48 159.677 47.1173 160.658 46.84C161.661 46.5627 162.642 46.3707 163.602 46.264C164.583 46.136 165.479 46.072 166.29 46.072C167.122 46.072 168.029 46.136 169.01 46.264C170.013 46.392 171.015 46.5947 172.018 46.872C173.042 47.1493 174.023 47.5227 174.962 47.992C175.922 48.44 176.765 49.0053 177.49 49.688C178.215 50.3493 178.791 51.128 179.218 52.024C179.666 52.92 179.879 53.9547 179.858 55.128C179.858 55.2987 179.794 55.448 179.666 55.576C179.538 55.704 179.389 55.768 179.218 55.768H161.65C161.885 56.0453 162.183 56.3013 162.546 56.536C162.93 56.7493 163.346 56.9307 163.794 57.08C164.242 57.208 164.701 57.3147 165.17 57.4C165.661 57.464 166.109 57.496 166.514 57.496C167.325 57.496 168.125 57.4 168.914 57.208C169.703 56.9947 170.407 56.6427 171.026 56.152ZM166.514 58.136C166.045 58.136 165.49 58.0827 164.85 57.976C164.231 57.8693 163.623 57.6987 163.026 57.464C162.45 57.2293 161.938 56.92 161.49 56.536C161.042 56.152 160.765 55.6827 160.658 55.128H179.218C179.239 53.72 178.877 52.4933 178.13 51.448C177.405 50.4027 176.423 49.528 175.186 48.824C173.97 48.12 172.583 47.5973 171.026 47.256C169.469 46.8933 167.89 46.712 166.29 46.712C164.711 46.712 163.154 46.8827 161.618 47.224C160.103 47.5653 158.749 48.0773 157.554 48.76C156.381 49.4427 155.431 50.296 154.706 51.32C153.981 52.344 153.618 53.5387 153.618 54.904C153.618 55.8853 153.821 56.7707 154.226 57.56C154.653 58.328 155.218 59.0107 155.922 59.608C156.626 60.2053 157.426 60.728 158.322 61.176C159.218 61.6027 160.135 61.9547 161.074 62.232C162.034 62.488 162.983 62.68 163.922 62.808C164.882 62.936 165.746 63 166.514 63C167.559 63 168.658 62.9147 169.81 62.744C170.962 62.5733 172.082 62.2853 173.17 61.88C174.258 61.4747 175.261 60.952 176.178 60.312C177.117 59.672 177.885 58.8933 178.482 57.976L179.314 56.664H171.41C170.749 57.1973 169.97 57.5813 169.074 57.816C168.199 58.0293 167.346 58.136 166.514 58.136ZM160.658 53.016C161.085 52.4187 161.789 51.992 162.77 51.736C163.773 51.4587 164.839 51.32 165.97 51.32C166.546 51.32 167.122 51.3627 167.698 51.448C168.274 51.512 168.797 51.6187 169.266 51.768C169.757 51.896 170.173 52.0667 170.514 52.28C170.877 52.4933 171.133 52.7387 171.282 53.016H160.658ZM169.106 52.376C168.594 52.248 168.082 52.152 167.57 52.088C167.058 52.0027 166.525 51.96 165.97 51.96C165.479 51.96 164.957 51.992 164.402 52.056C163.847 52.0987 163.325 52.2053 162.834 52.376H169.106Z" fill="#242121"/>
</svg>
