<svg width="51" height="44" viewBox="0 0 51 44" fill="none" xmlns="http://www.w3.org/2000/svg">
<path d="M15.9688 28.1813C16.2257 28.1813 16.4721 28.2833 16.6538 28.465C16.8354 28.6467 16.9375 28.8931 16.9375 29.15V33.9938C16.9375 34.5076 17.1416 35.0004 17.505 35.3638C17.8683 35.7271 18.3611 35.9313 18.875 35.9313H42.125C42.6389 35.9313 43.1317 35.7271 43.495 35.3638C43.8584 35.0004 44.0625 34.5076 44.0625 33.9938V29.15C44.0625 28.8931 44.1646 28.6467 44.3462 28.465C44.5279 28.2833 44.7743 28.1813 45.0312 28.1813C45.2882 28.1813 45.5346 28.2833 45.7163 28.465C45.8979 28.6467 46 28.8931 46 29.15V33.9938C46 35.0215 45.5917 36.0071 44.865 36.7338C44.1383 37.4605 43.1527 37.8688 42.125 37.8688H18.875C17.8473 37.8688 16.8617 37.4605 16.135 36.7338C15.4083 36.0071 15 35.0215 15 33.9938V29.15C15 28.8931 15.1021 28.6467 15.2837 28.465C15.4654 28.2833 15.7118 28.1813 15.9688 28.1813Z" fill="#242121" stroke="#242121" stroke-width="5"/>
<path d="M29.6404 3.34718C29.7532 3.23713 29.8872 3.14981 30.0347 3.09024C30.1822 3.03067 30.3403 3 30.5 3C30.6597 3 30.8178 3.03067 30.9653 3.09024C31.1128 3.14981 31.2468 3.23713 31.3596 3.34718L38.644 10.4375C38.8719 10.6594 39 10.9604 39 11.2742C39 11.588 38.8719 11.8889 38.644 12.1108C38.416 12.3327 38.1068 12.4574 37.7844 12.4574C37.462 12.4574 37.1528 12.3327 36.9248 12.1108L31.7141 7.03651V27.8183C31.7141 28.1317 31.5862 28.4323 31.3585 28.6539C31.1308 28.8755 30.822 29 30.5 29C30.178 29 29.8692 28.8755 29.6415 28.6539C29.4138 28.4323 29.2859 28.1317 29.2859 27.8183V7.03651L24.0752 12.1108C23.9623 12.2207 23.8283 12.3079 23.6808 12.3673C23.5333 12.4268 23.3752 12.4574 23.2156 12.4574C23.056 12.4574 22.8979 12.4268 22.7504 12.3673C22.6029 12.3079 22.4689 12.2207 22.356 12.1108C22.2432 12.001 22.1536 11.8705 22.0925 11.727C22.0314 11.5834 22 11.4295 22 11.2742C22 11.1188 22.0314 10.9649 22.0925 10.8214C22.1536 10.6778 22.2432 10.5474 22.356 10.4375L29.6404 3.34718Z" fill="#242121" stroke="#242121" stroke-width="5"/>
</svg>
