<svg width="22" height="23" viewBox="0 0 22 23" fill="none" xmlns="http://www.w3.org/2000/svg">
<path d="M10.752 3.06584C10.8275 3.02269 10.913 3 11 3C11.087 3 11.1725 3.02269 11.248 3.06584L14.998 5.20884C15.0745 5.25255 15.1381 5.31572 15.1824 5.39193C15.2266 5.46815 15.25 5.55471 15.25 5.64284V9.63784L18.748 11.6378C18.8242 11.6814 18.8877 11.7442 18.9319 11.8201C18.9761 11.8959 18.9996 11.982 19 12.0698V16.3558C19 16.444 18.9766 16.5305 18.9324 16.6067C18.8881 16.683 18.8245 16.7461 18.748 16.7898L14.998 18.9328C14.9225 18.976 14.837 18.9987 14.75 18.9987C14.663 18.9987 14.5775 18.976 14.502 18.9328L11 16.9328L7.498 18.9338C7.42247 18.977 7.33699 18.9997 7.25 18.9997C7.16301 18.9997 7.07753 18.977 7.002 18.9338L3.252 16.7908C3.17547 16.7471 3.11186 16.684 3.06761 16.6077C3.02335 16.5315 3.00003 16.445 3 16.3568V12.0708C3.00003 11.9827 3.02335 11.8961 3.06761 11.8199C3.11186 11.7437 3.17547 11.6806 3.252 11.6368L6.75 9.63784V5.64284C6.75003 5.55471 6.77335 5.46815 6.81761 5.39193C6.86186 5.31572 6.92547 5.25255 7.002 5.20884L10.752 3.06584ZM7.25 10.5038L4.508 12.0708L7.25 13.6378L9.992 12.0708L7.25 10.5038ZM10.5 12.9328L7.75 14.5038V17.6378L10.5 16.0668V12.9328ZM11.5 16.0668L14.25 17.6378V14.5038L11.5 12.9328V16.0668ZM12.008 12.0708L14.75 13.6378L17.492 12.0708L14.75 10.5038L12.008 12.0708ZM14.25 9.63784V6.50384L11.5 8.07584V11.2098L14.25 9.63784ZM10.5 11.2098V8.07584L7.75 6.50384V9.63784L10.5 11.2098ZM8.258 5.64284L11 7.20984L13.742 5.64284L11 4.07584L8.258 5.64284ZM18 12.9328L15.25 14.5038V17.6378L18 16.0668V12.9328ZM6.75 17.6378V14.5038L4 12.9328V16.0668L6.75 17.6378Z" fill="#171515" stroke="#171515" stroke-width="0.5"/>
</svg>
