<svg width="14" height="14" viewBox="0 0 14 14" fill="none" xmlns="http://www.w3.org/2000/svg">
<g clip-path="url(#clip0_26_140)">
<path d="M7.4375 8.75C7.196 8.75 7 8.358 7 7.875C7 7.392 7.196 7 7.4375 7C7.679 7 7.875 7.392 7.875 7.875C7.875 8.358 7.679 8.75 7.4375 8.75Z" fill="#242121"/>
<path d="M9.4745 0.10675C9.52182 0.147878 9.55975 0.198696 9.58571 0.255761C9.61168 0.312826 9.62508 0.374805 9.625 0.4375V0.875H10.0625C10.4106 0.875 10.7444 1.01328 10.9906 1.25942C11.2367 1.50556 11.375 1.8394 11.375 2.1875V13.125H12.6875C12.8035 13.125 12.9148 13.1711 12.9969 13.2531C13.0789 13.3352 13.125 13.4465 13.125 13.5625C13.125 13.6785 13.0789 13.7898 12.9969 13.8719C12.9148 13.9539 12.8035 14 12.6875 14H1.3125C1.19647 14 1.08519 13.9539 1.00314 13.8719C0.921094 13.7898 0.875 13.6785 0.875 13.5625C0.875 13.4465 0.921094 13.3352 1.00314 13.2531C1.08519 13.1711 1.19647 13.125 1.3125 13.125H2.625V1.3125C2.62502 1.20709 2.66309 1.10523 2.73222 1.02565C2.80134 0.946076 2.89688 0.894133 3.00125 0.879375L9.12625 0.0043753C9.18824 -0.00447799 9.25141 8.01855e-05 9.31149 0.0177418C9.37157 0.0354033 9.42716 0.0657567 9.4745 0.10675ZM10.0625 1.75H9.625V13.125H10.5V2.1875C10.5 2.07147 10.4539 1.96019 10.3719 1.87814C10.2898 1.79609 10.1785 1.75 10.0625 1.75ZM3.5 1.69225V13.125H8.75V0.942375L3.5 1.69225Z" fill="#242121"/>
</g>
<defs>
<clipPath id="clip0_26_140">
<rect width="14" height="14" fill="white"/>
</clipPath>
</defs>
</svg>
