<svg width="16" height="16" viewBox="0 0 16 16" fill="none" xmlns="http://www.w3.org/2000/svg">
<path d="M10.5 8.00073C10.5 8.66377 10.2366 9.29966 9.76777 9.7685C9.29893 10.2373 8.66304 10.5007 8 10.5007C7.33696 10.5007 6.70107 10.2373 6.23223 9.7685C5.76339 9.29966 5.5 8.66377 5.5 8.00073C5.5 7.33769 5.76339 6.70181 6.23223 6.23297C6.70107 5.76412 7.33696 5.50073 8 5.50073C8.66304 5.50073 9.29893 5.76412 9.76777 6.23297C10.2366 6.70181 10.5 7.33769 10.5 8.00073Z" fill="black"/>
<path d="M0 8.00073C0 8.00073 3 2.50073 8 2.50073C13 2.50073 16 8.00073 16 8.00073C16 8.00073 13 13.5007 8 13.5007C3 13.5007 0 8.00073 0 8.00073ZM8 11.5007C8.92826 11.5007 9.8185 11.132 10.4749 10.4756C11.1313 9.81923 11.5 8.92899 11.5 8.00073C11.5 7.07247 11.1313 6.18224 10.4749 5.52586C9.8185 4.86948 8.92826 4.50073 8 4.50073C7.07174 4.50073 6.1815 4.86948 5.52513 5.52586C4.86875 6.18224 4.5 7.07247 4.5 8.00073C4.5 8.92899 4.86875 9.81923 5.52513 10.4756C6.1815 11.132 7.07174 11.5007 8 11.5007Z" fill="black"/>
</svg>
