<svg width="38" height="32" viewBox="0 0 38 32" fill="none" xmlns="http://www.w3.org/2000/svg">
<g filter="url(#filter0_d_36_455)">
<path d="M13 0H25V24H13V0Z" fill="white"/>
<path d="M8 0H14V24H8C5.792 24 4 22.208 4 20V4C4 1.792 5.792 0 8 0Z" fill="#092050"/>
<path d="M30 24H24L24 0H30C32.208 0 34 1.792 34 4V20C34 22.208 32.208 24 30 24Z" fill="#BE2A2C"/>
<path opacity="0.15" d="M30 0H8C5.791 0 4 1.791 4 4V20C4 22.209 5.791 24 8 24H30C32.209 24 34 22.209 34 20V4C34 1.791 32.209 0 30 0ZM33 20C33 21.654 31.654 23 30 23H8C6.346 23 5 21.654 5 20V4C5 2.346 6.346 1 8 1H30C31.654 1 33 2.346 33 4V20Z" fill="black"/>
<path opacity="0.2" d="M30 1H8C6.343 1 5 2.343 5 4V5C5 3.343 6.343 2 8 2H30C31.657 2 33 3.343 33 5V4C33 2.343 31.657 1 30 1Z" fill="white"/>
</g>
<defs>
<filter id="filter0_d_36_455" x="-1" y="0" width="40" height="32" filterUnits="userSpaceOnUse" color-interpolation-filters="sRGB">
<feFlood flood-opacity="0" result="BackgroundImageFix"/>
<feColorMatrix in="SourceAlpha" type="matrix" values="0 0 0 0 0 0 0 0 0 0 0 0 0 0 0 0 0 0 127 0" result="hardAlpha"/>
<feOffset dy="4"/>
<feGaussianBlur stdDeviation="2"/>
<feComposite in2="hardAlpha" operator="out"/>
<feColorMatrix type="matrix" values="0 0 0 0 0 0 0 0 0 0 0 0 0 0 0 0 0 0 0.25 0"/>
<feBlend mode="normal" in2="BackgroundImageFix" result="effect1_dropShadow_36_455"/>
<feBlend mode="normal" in="SourceGraphic" in2="effect1_dropShadow_36_455" result="shape"/>
</filter>
</defs>
</svg>
