<svg width="285" height="102" viewBox="0 0 285 102" fill="none" xmlns="http://www.w3.org/2000/svg">
<path d="M134.68 0.775999V25H126.04V13.736L116.44 25H111.096L102.232 14.568V25H93.5921V0.775999H100.408L113.784 16.52L127.064 0.775999H134.68ZM153.108 20.136C153.94 20.136 154.793 20.0293 155.668 19.816C156.564 19.5813 157.342 19.1973 158.004 18.664H165.908L165.076 19.976C164.478 20.8933 163.71 21.672 162.772 22.312C161.854 22.952 160.852 23.4747 159.764 23.88C158.676 24.2853 157.556 24.5733 156.404 24.744C155.252 24.9147 154.153 25 153.108 25C152.34 25 151.476 24.936 150.516 24.808C149.577 24.68 148.628 24.488 147.668 24.232C146.729 23.9547 145.812 23.6027 144.916 23.176C144.02 22.728 143.22 22.2053 142.516 21.608C141.812 21.0107 141.246 20.328 140.82 19.56C140.414 18.7707 140.212 17.8853 140.212 16.904C140.212 15.5387 140.574 14.344 141.3 13.32C142.025 12.296 142.974 11.4427 144.148 10.76C145.342 10.0773 146.697 9.56533 148.212 9.224C149.748 8.88267 151.305 8.712 152.884 8.712C154.484 8.712 156.062 8.89333 157.62 9.256C159.177 9.59733 160.564 10.12 161.78 10.824C163.017 11.528 163.998 12.4027 164.724 13.448C165.47 14.4933 165.833 15.72 165.812 17.128H147.252C147.358 17.6827 147.636 18.152 148.084 18.536C148.532 18.92 149.044 19.2293 149.62 19.464C150.217 19.6987 150.825 19.8693 151.444 19.976C152.084 20.0827 152.638 20.136 153.108 20.136ZM157.876 15.016C157.726 14.7387 157.47 14.4933 157.108 14.28C156.766 14.0667 156.35 13.896 155.86 13.768C155.39 13.6187 154.868 13.512 154.292 13.448C153.716 13.3627 153.14 13.32 152.564 13.32C151.433 13.32 150.366 13.4587 149.364 13.736C148.382 13.992 147.678 14.4187 147.252 15.016H157.876ZM191.221 17.352C191.648 17.672 191.989 18.0453 192.245 18.472C192.522 18.8987 192.661 19.3893 192.661 19.944C192.661 20.6693 192.426 21.2987 191.957 21.832C191.509 22.3653 190.922 22.8133 190.197 23.176C189.472 23.5387 188.65 23.8373 187.733 24.072C186.816 24.3067 185.909 24.488 185.013 24.616C184.117 24.744 183.264 24.8293 182.453 24.872C181.642 24.9147 180.981 24.936 180.469 24.936C180.021 24.936 179.392 24.9147 178.581 24.872C177.792 24.8293 176.938 24.7547 176.021 24.648C175.104 24.5413 174.165 24.392 173.205 24.2C172.266 23.9867 171.413 23.72 170.645 23.4C169.898 23.0587 169.28 22.6533 168.789 22.184C168.298 21.6933 168.053 21.1173 168.053 20.456V19.496H175.317V20.104C176.128 20.36 176.938 20.5307 177.749 20.616C178.581 20.7013 179.413 20.744 180.245 20.744C180.437 20.744 180.789 20.7333 181.301 20.712C181.834 20.6907 182.389 20.6587 182.965 20.616C183.541 20.552 184.064 20.4667 184.533 20.36C185.024 20.2533 185.312 20.104 185.397 19.912C185.397 19.8907 185.376 19.88 185.333 19.88C185.312 19.88 185.312 19.8693 185.333 19.848C185.013 19.6133 184.501 19.432 183.797 19.304C183.093 19.176 182.282 19.0693 181.365 18.984C180.448 18.8773 179.466 18.7813 178.421 18.696C177.376 18.5893 176.341 18.44 175.317 18.248C174.293 18.056 173.322 17.8107 172.405 17.512C171.488 17.192 170.709 16.776 170.069 16.264C169.664 15.944 169.312 15.5813 169.013 15.176C168.736 14.7493 168.597 14.2587 168.597 13.704C168.597 13.0213 168.81 12.424 169.237 11.912C169.664 11.4 170.218 10.9627 170.901 10.6C171.584 10.2373 172.352 9.93867 173.205 9.704C174.058 9.46933 174.901 9.288 175.733 9.16C176.586 9.032 177.386 8.94667 178.133 8.904C178.88 8.84 179.488 8.808 179.957 8.808C180.426 8.808 181.034 8.82933 181.781 8.872C182.528 8.91467 183.328 8.98933 184.181 9.096C185.056 9.20267 185.93 9.36267 186.805 9.576C187.68 9.768 188.469 10.0347 189.173 10.376C189.898 10.696 190.485 11.1013 190.933 11.592C191.381 12.0613 191.605 12.6267 191.605 13.288V14.248H184.309V13.512L183.541 13.32L183.509 13.288C182.954 13.1813 182.4 13.1067 181.845 13.064C181.29 13.0213 180.736 13 180.181 13C180.032 13 179.744 13.0107 179.317 13.032C178.89 13.0533 178.442 13.0853 177.973 13.128C177.525 13.1707 177.109 13.2453 176.725 13.352C176.341 13.4373 176.106 13.544 176.021 13.672L175.925 13.704C176.053 13.8747 176.426 14.024 177.045 14.152C177.685 14.2587 178.464 14.376 179.381 14.504C180.32 14.6107 181.344 14.7387 182.453 14.888C183.562 15.016 184.661 15.1867 185.749 15.4C186.837 15.592 187.861 15.848 188.821 16.168C189.781 16.488 190.581 16.872 191.221 17.32V17.352ZM27.6058 47.672C27.5631 47.672 27.4884 47.6613 27.3818 47.64C27.2751 47.5973 27.2111 47.5653 27.1898 47.544C26.7204 47.1387 26.1764 46.776 25.5578 46.456C24.9604 46.1147 24.3311 45.8373 23.6698 45.624C23.0084 45.3893 22.3364 45.2187 21.6538 45.112C20.9711 44.984 20.3098 44.92 19.6698 44.92C18.7524 44.92 17.7498 45.0587 16.6618 45.336C15.5738 45.592 14.5604 45.976 13.6218 46.488C12.7044 47 11.9364 47.6293 11.3178 48.376C10.6991 49.1227 10.3898 49.9653 10.3898 50.904C10.3898 51.864 10.6991 52.7067 11.3178 53.432C11.9364 54.136 12.7044 54.7227 13.6218 55.192C14.5604 55.64 15.5738 55.9813 16.6618 56.216C17.7498 56.4507 18.7524 56.568 19.6698 56.568C20.4164 56.568 21.1951 56.504 22.0058 56.376C22.8164 56.2267 23.6058 56.0133 24.3738 55.736C25.1631 55.4373 25.8884 55.0747 26.5498 54.648C27.2111 54.2213 27.7551 53.72 28.1818 53.144C28.2244 53.1013 28.3098 53.048 28.4378 52.984C28.5871 52.92 28.6938 52.888 28.7578 52.888L37.6538 53.592C37.8884 53.6133 38.0591 53.7093 38.1658 53.88C38.2724 54.0293 38.2831 54.2213 38.1978 54.456C37.7498 55.5867 37.1204 56.6 36.3098 57.496C35.5204 58.392 34.6138 59.1813 33.5898 59.864C32.5658 60.5467 31.4564 61.1333 30.2618 61.624C29.0671 62.0933 27.8511 62.4773 26.6138 62.776C25.3978 63.0747 24.1924 63.288 22.9978 63.416C21.8244 63.5653 20.7151 63.64 19.6698 63.64C18.4964 63.64 17.2058 63.544 15.7978 63.352C14.4111 63.16 13.0031 62.8613 11.5738 62.456C10.1444 62.0293 8.75775 61.4853 7.41375 60.824C6.09108 60.1627 4.90708 59.3627 3.86175 58.424C2.83775 57.464 2.01642 56.3653 1.39775 55.128C0.779083 53.8907 0.46975 52.4827 0.46975 50.904C0.46975 49.3467 0.75775 47.9493 1.33375 46.712C1.90975 45.4533 2.67775 44.344 3.63775 43.384C4.61908 42.4027 5.73908 41.5707 6.99775 40.888C8.25642 40.2053 9.56842 39.64 10.9338 39.192C12.3204 38.744 13.7071 38.4133 15.0938 38.2C16.4804 37.9867 17.7711 37.88 18.9658 37.88C20.0111 37.88 21.1418 37.944 22.3578 38.072C23.5738 38.1787 24.8004 38.3707 26.0378 38.648C27.2964 38.9253 28.5338 39.288 29.7498 39.736C30.9871 40.184 32.1391 40.7387 33.2058 41.4C34.2724 42.04 35.2218 42.808 36.0538 43.704C36.8858 44.6 37.5364 45.624 38.0058 46.776C38.1124 47.032 38.1018 47.2453 37.9738 47.416C37.8671 47.5867 37.6858 47.672 37.4298 47.672H27.6058ZM37.4298 47.032C36.9818 45.944 36.3631 44.984 35.5738 44.152C34.7844 43.2987 33.8778 42.5627 32.8538 41.944C31.8298 41.304 30.7204 40.7707 29.5258 40.344C28.3524 39.896 27.1578 39.544 25.9418 39.288C24.7258 39.0107 23.5204 38.8187 22.3258 38.712C21.1311 38.584 20.0111 38.52 18.9658 38.52C17.7711 38.52 16.4911 38.6267 15.1258 38.84C13.7818 39.0533 12.4484 39.3733 11.1258 39.8C9.80308 40.2267 8.53375 40.7813 7.31775 41.464C6.12308 42.1253 5.05642 42.9147 4.11775 43.832C3.20042 44.7493 2.46442 45.7947 1.90975 46.968C1.37642 48.1413 1.10975 49.4533 1.10975 50.904C1.10975 52.3547 1.39775 53.6667 1.97375 54.84C2.57108 56.0133 3.36042 57.048 4.34175 57.944C5.32308 58.84 6.45375 59.608 7.73375 60.248C9.01375 60.888 10.3364 61.4107 11.7018 61.816C13.0884 62.2213 14.4644 62.52 15.8298 62.712C17.2164 62.904 18.4964 63 19.6698 63C20.6938 63 21.7924 62.936 22.9658 62.808C24.1391 62.6587 25.3231 62.4453 26.5178 62.168C27.7124 61.8693 28.8751 61.4853 30.0058 61.016C31.1578 60.5467 32.2244 59.992 33.2058 59.352C34.2084 58.6907 35.0831 57.944 35.8298 57.112C36.5978 56.2587 37.1844 55.2987 37.5898 54.232L28.6938 53.528C28.2458 54.1467 27.6591 54.6907 26.9338 55.16C26.2084 55.608 25.4298 55.992 24.5978 56.312C23.7871 56.6107 22.9444 56.8347 22.0698 56.984C21.2164 57.1333 20.4164 57.208 19.6698 57.208C18.7738 57.208 17.7498 57.0907 16.5978 56.856C15.4458 56.6213 14.3578 56.2587 13.3338 55.768C12.3311 55.256 11.4778 54.6053 10.7738 53.816C10.0911 53.0053 9.74975 52.0347 9.74975 50.904C9.74975 49.7947 10.0911 48.8347 10.7738 48.024C11.4778 47.192 12.3311 46.4987 13.3338 45.944C14.3578 45.3893 15.4458 44.9733 16.5978 44.696C17.7498 44.4187 18.7738 44.28 19.6698 44.28C20.3311 44.28 21.0138 44.344 21.7178 44.472C22.4431 44.6 23.1578 44.7813 23.8618 45.016C24.5658 45.2507 25.2378 45.5387 25.8778 45.88C26.5178 46.2213 27.0938 46.6053 27.6058 47.032H37.4298ZM69.7385 54.968C69.7385 56.0773 69.4825 57.0693 68.9705 57.944C68.4585 58.7973 67.7865 59.544 66.9545 60.184C66.1225 60.824 65.1732 61.3573 64.1065 61.784C63.0612 62.2107 61.9945 62.552 60.9065 62.808C59.8398 63.064 58.8052 63.2453 57.8025 63.352C56.7998 63.48 55.9252 63.544 55.1785 63.544C54.4532 63.544 53.5785 63.48 52.5545 63.352C51.5518 63.2453 50.5065 63.064 49.4185 62.808C48.3518 62.552 47.2852 62.2107 46.2185 61.784C45.1732 61.336 44.2345 60.8027 43.4025 60.184C42.5705 59.544 41.8985 58.7973 41.3865 57.944C40.8745 57.0693 40.6185 56.0773 40.6185 54.968C40.6185 53.8373 40.8745 52.8453 41.3865 51.992C41.8985 51.1387 42.5705 50.392 43.4025 49.752C44.2345 49.112 45.1732 48.5787 46.2185 48.152C47.2852 47.7253 48.3518 47.384 49.4185 47.128C50.5065 46.872 51.5518 46.6907 52.5545 46.584C53.5572 46.456 54.4318 46.392 55.1785 46.392C55.9252 46.392 56.7998 46.456 57.8025 46.584C58.8052 46.6907 59.8398 46.872 60.9065 47.128C61.9945 47.384 63.0612 47.7253 64.1065 48.152C65.1732 48.5787 66.1225 49.112 66.9545 49.752C67.7865 50.392 68.4585 51.1493 68.9705 52.024C69.4825 52.8773 69.7385 53.8587 69.7385 54.968ZM55.1785 47.032C54.4105 47.032 53.5358 47.096 52.5545 47.224C51.5732 47.3307 50.5598 47.512 49.5145 47.768C48.4905 48.0027 47.4772 48.3333 46.4745 48.76C45.4932 49.1653 44.6078 49.6667 43.8185 50.264C43.0505 50.84 42.4318 51.5227 41.9625 52.312C41.4932 53.08 41.2585 53.9653 41.2585 54.968C41.2585 55.9707 41.4932 56.8667 41.9625 57.656C42.4532 58.424 43.0825 59.1067 43.8505 59.704C44.6185 60.28 45.4932 60.7707 46.4745 61.176C47.4772 61.5813 48.4905 61.912 49.5145 62.168C50.5598 62.424 51.5732 62.616 52.5545 62.744C53.5358 62.8507 54.4105 62.904 55.1785 62.904C55.9465 62.904 56.8212 62.8507 57.8025 62.744C58.7838 62.616 59.7865 62.4347 60.8105 62.2C61.8558 61.944 62.8692 61.6133 63.8505 61.208C64.8532 60.7813 65.7385 60.28 66.5065 59.704C67.2958 59.1067 67.9252 58.424 68.3945 57.656C68.8638 56.8667 69.0985 55.9707 69.0985 54.968C69.0985 53.9653 68.8638 53.08 68.3945 52.312C67.9252 51.5227 67.2958 50.84 66.5065 50.264C65.7385 49.6667 64.8532 49.1653 63.8505 48.76C62.8692 48.3333 61.8558 48.0027 60.8105 47.768C59.7865 47.512 58.7838 47.3307 57.8025 47.224C56.8212 47.096 55.9465 47.032 55.1785 47.032ZM61.4825 54.968C61.4825 55.544 61.2265 56.024 60.7145 56.408C60.2238 56.792 59.6372 57.112 58.9545 57.368C58.2718 57.6027 57.5785 57.7733 56.8745 57.88C56.1705 57.9867 55.6052 58.04 55.1785 58.04C54.7518 58.04 54.1865 57.9867 53.4825 57.88C52.7785 57.7733 52.0852 57.6027 51.4025 57.368C50.7198 57.112 50.1225 56.792 49.6105 56.408C49.1198 56.024 48.8745 55.544 48.8745 54.968C48.8745 54.392 49.1198 53.912 49.6105 53.528C50.1225 53.144 50.7198 52.8347 51.4025 52.6C52.0852 52.344 52.7785 52.1627 53.4825 52.056C54.1865 51.9493 54.7518 51.896 55.1785 51.896C55.6052 51.896 56.1705 51.9493 56.8745 52.056C57.5998 52.1413 58.3038 52.312 58.9865 52.568C59.6692 52.8027 60.2558 53.1227 60.7465 53.528C61.2372 53.912 61.4825 54.392 61.4825 54.968ZM55.1785 52.536C54.8585 52.536 54.3785 52.5893 53.7385 52.696C53.1198 52.7813 52.4905 52.92 51.8505 53.112C51.2318 53.304 50.6878 53.56 50.2185 53.88C49.7492 54.1787 49.5145 54.5413 49.5145 54.968C49.5145 55.3947 49.7492 55.768 50.2185 56.088C50.6878 56.3867 51.2318 56.632 51.8505 56.824C52.4905 57.016 53.1198 57.1653 53.7385 57.272C54.3785 57.3573 54.8585 57.4 55.1785 57.4C55.4985 57.4 55.9678 57.3573 56.5865 57.272C57.2265 57.1653 57.8558 57.016 58.4745 56.824C59.1145 56.632 59.6692 56.3867 60.1385 56.088C60.6078 55.768 60.8425 55.3947 60.8425 54.968C60.8425 54.52 60.6078 54.1467 60.1385 53.848C59.6692 53.528 59.1252 53.272 58.5065 53.08C57.8878 52.888 57.2585 52.7493 56.6185 52.664C55.9785 52.5787 55.4985 52.536 55.1785 52.536ZM83.787 46.104C84.4697 46.104 85.1843 46.1467 85.931 46.232C86.6777 46.3173 87.4243 46.456 88.171 46.648C88.9177 46.84 89.6323 47.1067 90.315 47.448C91.019 47.768 91.659 48.1733 92.235 48.664C93.451 47.7893 94.7843 47.16 96.235 46.776C97.707 46.392 99.1683 46.2 100.619 46.2C101.451 46.2 102.4 46.3067 103.467 46.52C104.555 46.712 105.579 47.0533 106.539 47.544C107.499 48.0347 108.31 48.6853 108.971 49.496C109.654 50.3067 109.995 51.32 109.995 52.536V63C109.995 63.1707 109.931 63.32 109.803 63.448C109.675 63.576 109.526 63.64 109.355 63.64H102.251C102.08 63.64 101.931 63.576 101.803 63.448C101.675 63.32 101.611 63.1707 101.611 63V52.536C101.611 52.2373 101.483 52.0027 101.227 51.832C100.971 51.64 100.662 51.4907 100.299 51.384C99.9577 51.2773 99.6057 51.2133 99.243 51.192C98.8803 51.1493 98.5923 51.128 98.379 51.128C98.1657 51.128 97.8243 51.16 97.355 51.224C96.8857 51.2667 96.4163 51.352 95.947 51.48C95.499 51.608 95.0937 51.7787 94.731 51.992C94.3897 52.2053 94.219 52.472 94.219 52.792V63C94.219 63.1707 94.155 63.32 94.027 63.448C93.899 63.576 93.7497 63.64 93.579 63.64H86.091C85.9203 63.64 85.771 63.576 85.643 63.448C85.515 63.32 85.451 63.1707 85.451 63V51.832C85.131 51.5547 84.7043 51.3733 84.171 51.288C83.659 51.1813 83.1363 51.128 82.603 51.128C82.3683 51.128 82.0163 51.16 81.547 51.224C81.099 51.2667 80.6403 51.352 80.171 51.48C79.7017 51.608 79.2963 51.7787 78.955 51.992C78.6137 52.2053 78.443 52.472 78.443 52.792V63C78.443 63.1707 78.379 63.32 78.251 63.448C78.123 63.576 77.9737 63.64 77.803 63.64H70.315C70.1443 63.64 69.995 63.576 69.867 63.448C69.739 63.32 69.675 63.1707 69.675 63V47.032C69.675 46.8613 69.739 46.712 69.867 46.584C69.995 46.456 70.1443 46.392 70.315 46.392H77.803C77.9737 46.392 78.123 46.456 78.251 46.584C78.379 46.712 78.443 46.8613 78.443 47.032V47.16C78.8483 46.9467 79.2857 46.776 79.755 46.648C80.2243 46.4987 80.6937 46.392 81.163 46.328C81.6537 46.2427 82.123 46.1893 82.571 46.168C83.019 46.1253 83.4243 46.104 83.787 46.104ZM77.803 48.408V47.032H70.315V63H77.803V52.792C77.803 52.344 77.9843 51.9707 78.347 51.672C78.731 51.3733 79.179 51.1387 79.691 50.968C80.2243 50.776 80.7577 50.648 81.291 50.584C81.8457 50.52 82.283 50.488 82.603 50.488C83.1577 50.488 83.7763 50.5627 84.459 50.712C85.1417 50.84 85.6857 51.128 86.091 51.576V63H93.579V52.792C93.579 52.344 93.7603 51.9707 94.123 51.672C94.507 51.3733 94.955 51.1387 95.467 50.968C96.0003 50.776 96.5337 50.648 97.067 50.584C97.6217 50.52 98.059 50.488 98.379 50.488C98.699 50.488 99.0723 50.52 99.499 50.584C99.947 50.6267 100.374 50.7227 100.779 50.872C101.184 51.0213 101.526 51.2347 101.803 51.512C102.102 51.768 102.251 52.1093 102.251 52.536V63H109.355V52.536C109.355 51.4907 109.056 50.6053 108.459 49.88C107.862 49.1547 107.115 48.568 106.219 48.12C105.344 47.672 104.395 47.352 103.371 47.16C102.368 46.9467 101.451 46.84 100.619 46.84C99.147 46.84 97.6643 47.0533 96.171 47.48C94.699 47.9067 93.3657 48.5787 92.171 49.496C91.659 48.984 91.0617 48.5573 90.379 48.216C89.7177 47.8533 89.0137 47.5653 88.267 47.352C87.5203 47.1387 86.763 46.9893 85.995 46.904C85.227 46.7973 84.491 46.744 83.787 46.744C83.339 46.744 82.8377 46.7653 82.283 46.808C81.7283 46.8507 81.1737 46.936 80.619 47.064C80.0857 47.192 79.563 47.3627 79.051 47.576C78.5603 47.7893 78.1443 48.0667 77.803 48.408ZM124.975 46.104C125.657 46.104 126.372 46.1467 127.119 46.232C127.865 46.3173 128.612 46.456 129.359 46.648C130.105 46.84 130.82 47.1067 131.503 47.448C132.207 47.768 132.847 48.1733 133.423 48.664C134.639 47.7893 135.972 47.16 137.423 46.776C138.895 46.392 140.356 46.2 141.807 46.2C142.639 46.2 143.588 46.3067 144.655 46.52C145.743 46.712 146.767 47.0533 147.727 47.544C148.687 48.0347 149.497 48.6853 150.159 49.496C150.841 50.3067 151.183 51.32 151.183 52.536V63C151.183 63.1707 151.119 63.32 150.991 63.448C150.863 63.576 150.713 63.64 150.543 63.64H143.439C143.268 63.64 143.119 63.576 142.991 63.448C142.863 63.32 142.799 63.1707 142.799 63V52.536C142.799 52.2373 142.671 52.0027 142.415 51.832C142.159 51.64 141.849 51.4907 141.487 51.384C141.145 51.2773 140.793 51.2133 140.431 51.192C140.068 51.1493 139.78 51.128 139.567 51.128C139.353 51.128 139.012 51.16 138.543 51.224C138.073 51.2667 137.604 51.352 137.135 51.48C136.687 51.608 136.281 51.7787 135.919 51.992C135.577 52.2053 135.407 52.472 135.407 52.792V63C135.407 63.1707 135.343 63.32 135.215 63.448C135.087 63.576 134.937 63.64 134.767 63.64H127.279C127.108 63.64 126.959 63.576 126.831 63.448C126.703 63.32 126.639 63.1707 126.639 63V51.832C126.319 51.5547 125.892 51.3733 125.359 51.288C124.847 51.1813 124.324 51.128 123.791 51.128C123.556 51.128 123.204 51.16 122.735 51.224C122.287 51.2667 121.828 51.352 121.359 51.48C120.889 51.608 120.484 51.7787 120.143 51.992C119.801 52.2053 119.631 52.472 119.631 52.792V63C119.631 63.1707 119.567 63.32 119.439 63.448C119.311 63.576 119.161 63.64 118.991 63.64H111.503C111.332 63.64 111.183 63.576 111.055 63.448C110.927 63.32 110.863 63.1707 110.863 63V47.032C110.863 46.8613 110.927 46.712 111.055 46.584C111.183 46.456 111.332 46.392 111.503 46.392H118.991C119.161 46.392 119.311 46.456 119.439 46.584C119.567 46.712 119.631 46.8613 119.631 47.032V47.16C120.036 46.9467 120.473 46.776 120.943 46.648C121.412 46.4987 121.881 46.392 122.351 46.328C122.841 46.2427 123.311 46.1893 123.759 46.168C124.207 46.1253 124.612 46.104 124.975 46.104ZM118.991 48.408V47.032H111.503V63H118.991V52.792C118.991 52.344 119.172 51.9707 119.535 51.672C119.919 51.3733 120.367 51.1387 120.879 50.968C121.412 50.776 121.945 50.648 122.479 50.584C123.033 50.52 123.471 50.488 123.791 50.488C124.345 50.488 124.964 50.5627 125.647 50.712C126.329 50.84 126.873 51.128 127.279 51.576V63H134.767V52.792C134.767 52.344 134.948 51.9707 135.311 51.672C135.695 51.3733 136.143 51.1387 136.655 50.968C137.188 50.776 137.721 50.648 138.255 50.584C138.809 50.52 139.247 50.488 139.567 50.488C139.887 50.488 140.26 50.52 140.687 50.584C141.135 50.6267 141.561 50.7227 141.967 50.872C142.372 51.0213 142.713 51.2347 142.991 51.512C143.289 51.768 143.439 52.1093 143.439 52.536V63H150.543V52.536C150.543 51.4907 150.244 50.6053 149.647 49.88C149.049 49.1547 148.303 48.568 147.407 48.12C146.532 47.672 145.583 47.352 144.559 47.16C143.556 46.9467 142.639 46.84 141.807 46.84C140.335 46.84 138.852 47.0533 137.359 47.48C135.887 47.9067 134.553 48.5787 133.359 49.496C132.847 48.984 132.249 48.5573 131.567 48.216C130.905 47.8533 130.201 47.5653 129.455 47.352C128.708 47.1387 127.951 46.9893 127.183 46.904C126.415 46.7973 125.679 46.744 124.975 46.744C124.527 46.744 124.025 46.7653 123.471 46.808C122.916 46.8507 122.361 46.936 121.807 47.064C121.273 47.192 120.751 47.3627 120.239 47.576C119.748 47.7893 119.332 48.0667 118.991 48.408ZM156.079 52.856H152.047C151.855 52.856 151.695 52.792 151.567 52.664C151.439 52.5147 151.385 52.344 151.407 52.152C151.492 51.2773 151.759 50.52 152.207 49.88C152.676 49.24 153.252 48.696 153.935 48.248C154.639 47.7787 155.417 47.3947 156.271 47.096C157.124 46.7973 157.999 46.5627 158.895 46.392C159.791 46.2213 160.665 46.104 161.519 46.04C162.372 45.976 163.14 45.944 163.823 45.944C164.505 45.944 165.273 45.976 166.127 46.04C166.98 46.0827 167.844 46.1787 168.719 46.328C169.615 46.4773 170.479 46.6907 171.311 46.968C172.164 47.2453 172.921 47.6187 173.583 48.088C174.244 48.5573 174.767 49.1333 175.151 49.816C175.556 50.4773 175.759 51.2667 175.759 52.184V63C175.759 63.1707 175.695 63.32 175.567 63.448C175.439 63.576 175.289 63.64 175.119 63.64H168.175C168.004 63.64 167.855 63.576 167.727 63.448C167.599 63.32 167.535 63.1707 167.535 63V62.552C166.511 62.9147 165.455 63.1707 164.367 63.32C163.3 63.4907 162.223 63.576 161.135 63.576C160.537 63.576 159.844 63.544 159.055 63.48C158.287 63.416 157.487 63.2987 156.655 63.128C155.823 62.9573 155.012 62.7333 154.223 62.456C153.433 62.1573 152.719 61.7947 152.079 61.368C151.46 60.9413 150.959 60.4293 150.575 59.832C150.191 59.2133 149.998 58.5093 149.998 57.72C149.998 57.0373 150.169 56.44 150.511 55.928C150.852 55.416 151.3 54.968 151.855 54.584C152.431 54.1787 153.081 53.8373 153.807 53.56C154.532 53.2827 155.289 53.048 156.079 52.856ZM163.823 46.584C163.204 46.584 162.489 46.616 161.679 46.68C160.889 46.7227 160.068 46.8187 159.215 46.968C158.383 47.1173 157.551 47.3307 156.719 47.608C155.908 47.864 155.161 48.2053 154.479 48.632C153.817 49.0373 153.263 49.5387 152.815 50.136C152.388 50.7333 152.132 51.4267 152.047 52.216H159.535C159.641 51.9173 159.865 51.6933 160.207 51.544C160.548 51.3733 160.921 51.2453 161.327 51.16C161.753 51.0533 162.169 50.9893 162.575 50.968C163.001 50.9467 163.343 50.936 163.599 50.936C163.791 50.936 164.1 50.9467 164.527 50.968C164.953 50.9893 165.391 51.0427 165.839 51.128C166.287 51.192 166.692 51.2987 167.055 51.448C167.417 51.576 167.631 51.7573 167.694 51.992C167.097 52.0773 166.255 52.1627 165.167 52.248C164.1 52.312 162.937 52.4187 161.679 52.568C160.42 52.7173 159.129 52.9093 157.807 53.144C156.505 53.3573 155.321 53.6667 154.255 54.072C153.188 54.4773 152.313 54.9787 151.631 55.576C150.969 56.152 150.639 56.8667 150.639 57.72C150.639 58.424 150.82 59.0533 151.183 59.608C151.567 60.1413 152.057 60.6 152.655 60.984C153.252 61.368 153.935 61.688 154.703 61.944C155.471 62.2 156.239 62.4027 157.007 62.552C157.775 62.68 158.521 62.776 159.247 62.84C159.972 62.904 160.601 62.936 161.135 62.936C162.329 62.936 163.524 62.8293 164.719 62.616C165.935 62.4027 167.087 62.072 168.175 61.624V63H175.119V52.184C175.119 51.3307 174.927 50.6053 174.543 50.008C174.159 49.4107 173.647 48.9093 173.007 48.504C172.367 48.0773 171.641 47.7467 170.831 47.512C170.02 47.256 169.199 47.064 168.367 46.936C167.535 46.7867 166.724 46.6907 165.935 46.648C165.145 46.6053 164.441 46.584 163.823 46.584ZM164.847 51.608C164.591 51.5867 164.356 51.576 164.143 51.576C163.929 51.576 163.748 51.576 163.599 51.576C163.407 51.576 163.172 51.5867 162.895 51.608C162.639 51.608 162.361 51.6293 162.063 51.672C161.785 51.7147 161.508 51.768 161.231 51.832C160.975 51.8747 160.761 51.9493 160.591 52.056C161.359 51.9493 162.105 51.864 162.831 51.8C163.556 51.736 164.228 51.672 164.847 51.608ZM167.983 56.696C167.983 56.9093 167.823 57.112 167.503 57.304C167.204 57.4747 166.809 57.6347 166.319 57.784C165.849 57.9333 165.327 58.0613 164.751 58.168C164.196 58.2533 163.652 58.328 163.119 58.392C162.585 58.456 162.105 58.5093 161.679 58.552C161.252 58.5733 160.953 58.584 160.783 58.584C160.719 58.584 160.569 58.584 160.335 58.584C160.121 58.5627 159.887 58.5413 159.631 58.52C159.396 58.4773 159.183 58.424 158.991 58.36C158.82 58.2747 158.735 58.168 158.735 58.04C158.735 57.7413 158.927 57.4747 159.311 57.24C159.695 56.984 160.185 56.76 160.783 56.568C161.401 56.376 162.073 56.2053 162.799 56.056C163.545 55.9067 164.26 55.7787 164.943 55.672C165.625 55.544 166.244 55.448 166.799 55.384C167.353 55.2987 167.748 55.2347 167.983 55.192V56.696ZM159.567 57.848C159.631 57.848 159.684 57.8587 159.727 57.88C159.94 57.9227 160.143 57.944 160.335 57.944C160.548 57.944 160.697 57.944 160.783 57.944C161.124 57.944 161.561 57.9227 162.095 57.88C162.649 57.816 163.215 57.7413 163.791 57.656C164.388 57.5707 164.953 57.464 165.487 57.336C166.02 57.208 166.447 57.08 166.767 56.952C167.023 56.8667 167.204 56.7707 167.311 56.664L167.343 55.928C166.809 56.0133 166.137 56.12 165.327 56.248C164.537 56.376 163.737 56.5253 162.927 56.696C162.415 56.8027 161.924 56.92 161.455 57.048C160.985 57.176 160.58 57.3253 160.239 57.496C159.94 57.624 159.716 57.7413 159.567 57.848ZM191.904 46.104C192.437 46.104 193.067 46.1467 193.792 46.232C194.517 46.3173 195.264 46.456 196.032 46.648C196.821 46.84 197.589 47.096 198.336 47.416C199.083 47.736 199.755 48.1413 200.352 48.632C200.949 49.1013 201.429 49.6667 201.792 50.328C202.155 50.968 202.336 51.704 202.336 52.536V63C202.336 63.1707 202.272 63.32 202.144 63.448C202.016 63.576 201.867 63.64 201.696 63.64H194.592C194.421 63.64 194.272 63.576 194.144 63.448C194.016 63.32 193.952 63.1707 193.952 63V52.536C193.952 52.2373 193.824 52.0027 193.568 51.832C193.312 51.64 193.003 51.4907 192.64 51.384C192.299 51.2773 191.947 51.2133 191.584 51.192C191.221 51.1493 190.933 51.128 190.72 51.128C190.485 51.128 190.133 51.16 189.664 51.224C189.216 51.2667 188.757 51.352 188.288 51.48C187.819 51.608 187.413 51.7787 187.072 51.992C186.731 52.2053 186.56 52.472 186.56 52.792V63C186.56 63.1707 186.496 63.32 186.368 63.448C186.24 63.576 186.091 63.64 185.92 63.64H178.432C178.261 63.64 178.112 63.576 177.984 63.448C177.856 63.32 177.792 63.1707 177.792 63V47.032C177.792 46.8613 177.856 46.712 177.984 46.584C178.112 46.456 178.261 46.392 178.432 46.392H185.92C186.091 46.392 186.24 46.456 186.368 46.584C186.496 46.712 186.56 46.8613 186.56 47.032V47.16C186.965 46.9467 187.403 46.776 187.872 46.648C188.341 46.4987 188.811 46.392 189.28 46.328C189.771 46.2427 190.24 46.1893 190.688 46.168C191.136 46.1253 191.541 46.104 191.904 46.104ZM185.92 48.408V47.032H178.432V63H185.92V52.792C185.92 52.344 186.101 51.9707 186.464 51.672C186.848 51.3733 187.296 51.1387 187.808 50.968C188.341 50.776 188.875 50.648 189.408 50.584C189.963 50.52 190.4 50.488 190.72 50.488C191.04 50.488 191.413 50.52 191.84 50.584C192.288 50.6267 192.715 50.7227 193.12 50.872C193.525 51.0213 193.867 51.2347 194.144 51.512C194.443 51.768 194.592 52.1093 194.592 52.536V63H201.696V52.536C201.696 51.448 201.344 50.5413 200.64 49.816C199.936 49.0693 199.072 48.472 198.048 48.024C197.024 47.5547 195.947 47.224 194.816 47.032C193.707 46.84 192.736 46.744 191.904 46.744C191.456 46.744 190.955 46.7653 190.4 46.808C189.845 46.8507 189.291 46.936 188.736 47.064C188.203 47.192 187.68 47.3627 187.168 47.576C186.677 47.7893 186.261 48.0667 185.92 48.408ZM220.861 38.776C220.861 38.6053 220.925 38.456 221.053 38.328C221.181 38.2 221.33 38.136 221.501 38.136H228.989C229.159 38.136 229.309 38.2 229.437 38.328C229.565 38.456 229.629 38.6053 229.629 38.776V63C229.629 63.1707 229.565 63.32 229.437 63.448C229.309 63.576 229.159 63.64 228.989 63.64H221.501C221.33 63.64 221.181 63.576 221.053 63.448C220.925 63.32 220.861 63.1707 220.861 63V62.904C220.05 63.2667 219.197 63.512 218.301 63.64C217.426 63.768 216.562 63.832 215.709 63.832C214.941 63.832 214.087 63.768 213.149 63.64C212.231 63.512 211.303 63.2987 210.365 63C209.447 62.7227 208.551 62.36 207.677 61.912C206.802 61.4427 206.023 60.888 205.341 60.248C204.658 59.608 204.114 58.872 203.709 58.04C203.303 57.1867 203.101 56.2267 203.101 55.16C203.101 54.0507 203.314 53.0693 203.741 52.216C204.189 51.3627 204.775 50.616 205.501 49.976C206.226 49.3147 207.047 48.76 207.965 48.312C208.903 47.864 209.863 47.5013 210.845 47.224C211.826 46.9253 212.797 46.712 213.757 46.584C214.717 46.456 215.581 46.392 216.349 46.392C217.095 46.392 217.842 46.424 218.589 46.488C219.357 46.552 220.114 46.6587 220.861 46.808V38.776ZM221.501 47.608C220.669 47.3947 219.794 47.2453 218.877 47.16C217.959 47.0747 217.117 47.032 216.349 47.032C215.581 47.032 214.727 47.096 213.789 47.224C212.871 47.352 211.943 47.5547 211.005 47.832C210.066 48.088 209.159 48.4293 208.285 48.856C207.41 49.2827 206.631 49.8053 205.949 50.424C205.287 51.0213 204.754 51.7147 204.349 52.504C203.943 53.2933 203.741 54.1787 203.741 55.16C203.741 56.4613 204.103 57.6133 204.829 58.616C205.554 59.6187 206.482 60.4613 207.613 61.144C208.765 61.8267 210.045 62.3387 211.453 62.68C212.882 63.0213 214.301 63.192 215.709 63.192C216.797 63.192 217.842 63.0853 218.845 62.872C219.847 62.6373 220.733 62.3067 221.501 61.88V63H228.989V38.776H221.501V47.608ZM222.077 55.032C222.077 55.736 221.885 56.312 221.501 56.76C221.117 57.1867 220.637 57.528 220.061 57.784C219.485 58.0187 218.866 58.1787 218.205 58.264C217.543 58.3493 216.925 58.392 216.349 58.392C215.901 58.392 215.357 58.3387 214.717 58.232C214.077 58.104 213.469 57.912 212.893 57.656C212.317 57.4 211.815 57.0693 211.389 56.664C210.983 56.2587 210.781 55.7573 210.781 55.16C210.781 54.584 210.983 54.0933 211.389 53.688C211.794 53.2613 212.285 52.92 212.861 52.664C213.437 52.3867 214.045 52.1947 214.685 52.088C215.325 51.96 215.879 51.896 216.349 51.896C216.839 51.896 217.415 51.9387 218.077 52.024C218.738 52.1093 219.367 52.2693 219.965 52.504C220.562 52.7387 221.063 53.0587 221.469 53.464C221.874 53.8693 222.077 54.392 222.077 55.032ZM216.349 52.536C215.986 52.536 215.527 52.5893 214.973 52.696C214.418 52.7813 213.874 52.9307 213.341 53.144C212.807 53.3573 212.349 53.6347 211.965 53.976C211.602 54.296 211.421 54.6907 211.421 55.16C211.421 55.6293 211.602 56.0347 211.965 56.376C212.349 56.696 212.807 56.9627 213.341 57.176C213.874 57.368 214.418 57.5173 214.973 57.624C215.527 57.7093 215.986 57.752 216.349 57.752C216.797 57.752 217.309 57.72 217.885 57.656C218.461 57.592 219.015 57.464 219.549 57.272C220.082 57.08 220.53 56.8133 220.892 56.472C221.255 56.1093 221.437 55.6293 221.437 55.032C221.437 54.4987 221.245 54.072 220.861 53.752C220.477 53.432 220.007 53.1867 219.453 53.016C218.919 52.824 218.365 52.696 217.789 52.632C217.213 52.568 216.733 52.536 216.349 52.536ZM248.854 56.152C248.875 56.1307 248.939 56.1093 249.046 56.088C249.153 56.0453 249.217 56.024 249.238 56.024H257.142C257.441 56.024 257.643 56.12 257.75 56.312C257.878 56.504 257.857 56.7387 257.686 57.016C257.537 57.2293 257.398 57.4427 257.27 57.656C257.142 57.8693 257.003 58.0933 256.854 58.328C256.193 59.3307 255.371 60.1733 254.39 60.856C253.409 61.5387 252.353 62.0933 251.222 62.52C250.091 62.9253 248.929 63.2133 247.734 63.384C246.539 63.5547 245.409 63.64 244.342 63.64C243.574 63.64 242.699 63.576 241.718 63.448C240.758 63.32 239.777 63.1173 238.774 62.84C237.771 62.5627 236.79 62.2 235.83 61.752C234.891 61.2827 234.049 60.728 233.302 60.088C232.555 59.448 231.947 58.7013 231.478 57.848C231.03 56.9733 230.806 55.992 230.806 54.904C230.806 53.752 231.019 52.7387 231.446 51.864C231.894 50.9893 232.47 50.2213 233.174 49.56C233.899 48.8987 234.721 48.3547 235.638 47.928C236.555 47.48 237.505 47.1173 238.486 46.84C239.489 46.5627 240.47 46.3707 241.43 46.264C242.411 46.136 243.307 46.072 244.118 46.072C244.95 46.072 245.857 46.136 246.838 46.264C247.841 46.392 248.843 46.5947 249.846 46.872C250.87 47.1493 251.851 47.5227 252.79 47.992C253.75 48.44 254.593 49.0053 255.318 49.688C256.043 50.3493 256.619 51.128 257.046 52.024C257.494 52.92 257.707 53.9547 257.686 55.128C257.686 55.2987 257.622 55.448 257.494 55.576C257.366 55.704 257.217 55.768 257.046 55.768H239.478C239.713 56.0453 240.011 56.3013 240.374 56.536C240.758 56.7493 241.174 56.9307 241.622 57.08C242.07 57.208 242.529 57.3147 242.998 57.4C243.489 57.464 243.937 57.496 244.342 57.496C245.153 57.496 245.953 57.4 246.742 57.208C247.531 56.9947 248.235 56.6427 248.854 56.152ZM244.342 58.136C243.873 58.136 243.318 58.0827 242.678 57.976C242.059 57.8693 241.451 57.6987 240.854 57.464C240.278 57.2293 239.766 56.92 239.318 56.536C238.87 56.152 238.593 55.6827 238.486 55.128H257.046C257.067 53.72 256.705 52.4933 255.958 51.448C255.233 50.4027 254.251 49.528 253.014 48.824C251.798 48.12 250.411 47.5973 248.854 47.256C247.297 46.8933 245.718 46.712 244.118 46.712C242.539 46.712 240.982 46.8827 239.446 47.224C237.931 47.5653 236.577 48.0773 235.382 48.76C234.209 49.4427 233.259 50.296 232.534 51.32C231.809 52.344 231.446 53.5387 231.446 54.904C231.446 55.8853 231.649 56.7707 232.054 57.56C232.481 58.328 233.046 59.0107 233.75 59.608C234.454 60.2053 235.254 60.728 236.15 61.176C237.046 61.6027 237.963 61.9547 238.902 62.232C239.862 62.488 240.811 62.68 241.75 62.808C242.71 62.936 243.574 63 244.342 63C245.387 63 246.486 62.9147 247.638 62.744C248.79 62.5733 249.91 62.2853 250.998 61.88C252.086 61.4747 253.089 60.952 254.006 60.312C254.945 59.672 255.713 58.8933 256.31 57.976L257.142 56.664H249.238C248.577 57.1973 247.798 57.5813 246.902 57.816C246.027 58.0293 245.174 58.136 244.342 58.136ZM238.486 53.016C238.913 52.4187 239.617 51.992 240.598 51.736C241.601 51.4587 242.667 51.32 243.798 51.32C244.374 51.32 244.95 51.3627 245.526 51.448C246.102 51.512 246.625 51.6187 247.094 51.768C247.585 51.896 248.001 52.0667 248.342 52.28C248.705 52.4933 248.961 52.7387 249.11 53.016H238.486ZM246.934 52.376C246.422 52.248 245.91 52.152 245.398 52.088C244.886 52.0027 244.353 51.96 243.798 51.96C243.307 51.96 242.785 51.992 242.23 52.056C241.675 52.0987 241.153 52.2053 240.662 52.376H246.934ZM266.519 56.856C265.879 56.728 265.133 56.5467 264.279 56.312C263.426 56.0773 262.626 55.768 261.879 55.384C261.133 54.9787 260.493 54.4773 259.959 53.88C259.447 53.2827 259.191 52.5573 259.191 51.704C259.191 50.9147 259.405 50.232 259.831 49.656C260.279 49.08 260.855 48.5893 261.559 48.184C262.263 47.7787 263.053 47.448 263.927 47.192C264.802 46.9147 265.677 46.7013 266.551 46.552C267.447 46.4027 268.301 46.3067 269.111 46.264C269.943 46.2 270.637 46.168 271.191 46.168C271.725 46.168 272.397 46.1893 273.207 46.232C274.039 46.2747 274.903 46.36 275.799 46.488C276.717 46.616 277.634 46.7973 278.551 47.032C279.469 47.2667 280.29 47.576 281.015 47.96C281.741 48.3227 282.327 48.7813 282.775 49.336C283.245 49.8907 283.479 50.5413 283.479 51.288V52.248C283.479 52.4187 283.415 52.568 283.287 52.696C283.159 52.824 283.01 52.888 282.839 52.888H277.559C278.605 53.1227 279.586 53.4 280.503 53.72C281.442 54.0187 282.221 54.3813 282.839 54.808C283.287 55.1707 283.682 55.6187 284.023 56.152C284.365 56.664 284.535 57.2613 284.535 57.944C284.535 58.7547 284.301 59.4693 283.831 60.088C283.362 60.6853 282.743 61.1973 281.975 61.624C281.229 62.0293 280.386 62.36 279.447 62.616C278.509 62.872 277.559 63.064 276.599 63.192C275.661 63.3413 274.754 63.4373 273.879 63.48C273.026 63.544 272.301 63.576 271.703 63.576C271.17 63.576 270.477 63.5547 269.623 63.512C268.77 63.4693 267.853 63.384 266.871 63.256C265.911 63.128 264.941 62.9467 263.959 62.712C262.978 62.4773 262.093 62.1787 261.303 61.816C260.514 61.432 259.874 60.9627 259.383 60.408C258.893 59.8533 258.647 59.2027 258.647 58.456V57.496C258.647 57.3253 258.711 57.176 258.839 57.048C258.967 56.92 259.117 56.856 259.287 56.856H266.519ZM282.455 55.32C281.815 54.8507 281.015 54.4667 280.055 54.168C279.095 53.848 278.071 53.592 276.983 53.4C275.895 53.1867 274.797 53.016 273.687 52.888C272.578 52.7387 271.554 52.6107 270.615 52.504C269.698 52.376 268.919 52.2587 268.279 52.152C267.661 52.024 267.287 51.8747 267.159 51.704L267.255 51.672C267.341 51.544 267.575 51.4373 267.959 51.352C268.343 51.2453 268.759 51.1707 269.207 51.128C269.677 51.0853 270.125 51.0533 270.551 51.032C270.978 51.0107 271.266 51 271.415 51C271.97 51 272.525 51.0213 273.079 51.064C273.634 51.1067 274.189 51.1813 274.743 51.288L274.775 51.32L275.543 51.512V52.248H282.839V51.288C282.839 50.6267 282.615 50.0613 282.167 49.592C281.719 49.1013 281.133 48.696 280.407 48.376C279.703 48.0347 278.914 47.768 278.039 47.576C277.165 47.3627 276.29 47.2027 275.415 47.096C274.562 46.9893 273.751 46.9147 272.983 46.872C272.237 46.8293 271.639 46.808 271.191 46.808C270.722 46.808 270.114 46.84 269.367 46.904C268.621 46.9467 267.821 47.032 266.967 47.16C266.135 47.288 265.293 47.4693 264.439 47.704C263.586 47.9387 262.818 48.2373 262.135 48.6C261.453 48.9627 260.898 49.4 260.471 49.912C260.045 50.424 259.831 51.0213 259.831 51.704C259.831 52.2587 259.97 52.7493 260.247 53.176C260.546 53.5813 260.898 53.944 261.303 54.264C261.965 54.776 262.743 55.192 263.639 55.512C264.557 55.8107 265.527 56.056 266.551 56.248C267.575 56.44 268.61 56.5893 269.655 56.696C270.701 56.7813 271.682 56.8773 272.599 56.984C273.517 57.0693 274.317 57.176 274.999 57.304C275.703 57.432 276.226 57.6133 276.567 57.848C276.546 57.8693 276.546 57.88 276.567 57.88C276.61 57.88 276.631 57.8907 276.631 57.912C276.546 58.104 276.258 58.2533 275.767 58.36C275.298 58.4667 274.775 58.552 274.199 58.616C273.623 58.6587 273.069 58.6907 272.535 58.712C272.023 58.7333 271.671 58.744 271.479 58.744C270.647 58.744 269.815 58.7013 268.983 58.616C268.173 58.5307 267.362 58.36 266.551 58.104V57.496H259.287V58.456C259.287 59.1173 259.533 59.6933 260.023 60.184C260.514 60.6533 261.133 61.0587 261.879 61.4C262.647 61.72 263.501 61.9867 264.439 62.2C265.399 62.392 266.338 62.5413 267.255 62.648C268.173 62.7547 269.026 62.8293 269.815 62.872C270.605 62.9147 271.234 62.936 271.703 62.936C272.215 62.936 272.877 62.9147 273.687 62.872C274.498 62.8293 275.351 62.744 276.247 62.616C277.143 62.488 278.05 62.3067 278.967 62.072C279.885 61.8373 280.706 61.5387 281.431 61.176C282.157 60.8133 282.743 60.3653 283.191 59.832C283.661 59.2987 283.895 58.6693 283.895 57.944C283.895 57.3893 283.757 56.8987 283.479 56.472C283.223 56.0453 282.882 55.672 282.455 55.352V55.32ZM274.935 52.408C274.914 52.3867 274.903 52.3333 274.903 52.248V52.024L274.615 51.928C274.594 51.928 274.541 51.9067 274.455 51.864C274.37 51.8213 274.327 51.7893 274.327 51.768C273.943 51.7253 273.495 51.6933 272.983 51.672C272.493 51.6507 271.97 51.64 271.415 51.64C271.245 51.64 271.01 51.6507 270.711 51.672C270.434 51.672 270.125 51.6827 269.783 51.704C270.359 51.7893 270.989 51.8747 271.671 51.96C272.375 52.0453 273.101 52.1413 273.847 52.248C274.018 52.2907 274.189 52.3227 274.359 52.344C274.551 52.344 274.743 52.3653 274.935 52.408ZM274.679 57.912C274.637 57.8907 274.583 57.88 274.519 57.88C274.455 57.88 274.381 57.8693 274.295 57.848C273.698 57.7627 273.026 57.688 272.279 57.624C271.554 57.5387 270.786 57.4533 269.975 57.368C269.463 57.304 268.941 57.24 268.407 57.176C267.874 57.0907 267.33 56.9947 266.775 56.888C267.053 56.9947 267.191 57.1973 267.191 57.496V57.624C267.874 57.816 268.567 57.944 269.271 58.008C269.997 58.072 270.733 58.104 271.479 58.104C271.714 58.104 272.077 58.0933 272.567 58.072C273.079 58.0507 273.613 58.0187 274.167 57.976C274.253 57.9547 274.338 57.944 274.423 57.944C274.509 57.944 274.594 57.9333 274.679 57.912ZM64.3071 94.152C64.3285 94.1307 64.3925 94.1093 64.4991 94.088C64.6058 94.0453 64.6698 94.024 64.6911 94.024H72.5951C72.8938 94.024 73.0965 94.12 73.2031 94.312C73.3311 94.504 73.3098 94.7387 73.1391 95.016C72.9898 95.2293 72.8511 95.4427 72.7231 95.656C72.5951 95.8693 72.4565 96.0933 72.3071 96.328C71.6458 97.3307 70.8245 98.1733 69.8431 98.856C68.8618 99.5387 67.8058 100.093 66.6751 100.52C65.5445 100.925 64.3818 101.213 63.1871 101.384C61.9925 101.555 60.8618 101.64 59.7951 101.64C59.0271 101.64 58.1525 101.576 57.1711 101.448C56.2111 101.32 55.2298 101.117 54.2271 100.84C53.2245 100.563 52.2431 100.2 51.2831 99.752C50.3445 99.2827 49.5018 98.728 48.7551 98.088C48.0085 97.448 47.4005 96.7013 46.9311 95.848C46.4831 94.9733 46.2591 93.992 46.2591 92.904C46.2591 91.752 46.4725 90.7387 46.8991 89.864C47.3471 88.9893 47.9231 88.2213 48.6271 87.56C49.3525 86.8987 50.1738 86.3547 51.0911 85.928C52.0085 85.48 52.9578 85.1173 53.9391 84.84C54.9418 84.5627 55.9231 84.3707 56.8831 84.264C57.8645 84.136 58.7605 84.072 59.5711 84.072C60.4031 84.072 61.3098 84.136 62.2911 84.264C63.2938 84.392 64.2965 84.5947 65.2991 84.872C66.3231 85.1493 67.3045 85.5227 68.2431 85.992C69.2031 86.44 70.0458 87.0053 70.7711 87.688C71.4965 88.3493 72.0725 89.128 72.4991 90.024C72.9471 90.92 73.1605 91.9547 73.1391 93.128C73.1391 93.2987 73.0751 93.448 72.9471 93.576C72.8191 93.704 72.6698 93.768 72.4991 93.768H54.9311C55.1658 94.0453 55.4645 94.3013 55.8271 94.536C56.2111 94.7493 56.6271 94.9307 57.0751 95.08C57.5231 95.208 57.9818 95.3147 58.4511 95.4C58.9418 95.464 59.3898 95.496 59.7951 95.496C60.6058 95.496 61.4058 95.4 62.1951 95.208C62.9845 94.9947 63.6885 94.6427 64.3071 94.152ZM59.7951 96.136C59.3258 96.136 58.7711 96.0827 58.1311 95.976C57.5125 95.8693 56.9045 95.6987 56.3071 95.464C55.7311 95.2293 55.2191 94.92 54.7711 94.536C54.3231 94.152 54.0458 93.6827 53.9391 93.128H72.4991C72.5205 91.72 72.1578 90.4933 71.4111 89.448C70.6858 88.4027 69.7045 87.528 68.4671 86.824C67.2511 86.12 65.8645 85.5973 64.3071 85.256C62.7498 84.8933 61.1711 84.712 59.5711 84.712C57.9925 84.712 56.4351 84.8827 54.8991 85.224C53.3845 85.5653 52.0298 86.0773 50.8351 86.76C49.6618 87.4427 48.7125 88.296 47.9871 89.32C47.2618 90.344 46.8991 91.5387 46.8991 92.904C46.8991 93.8853 47.1018 94.7707 47.5071 95.56C47.9338 96.328 48.4991 97.0107 49.2031 97.608C49.9071 98.2053 50.7071 98.728 51.6031 99.176C52.4991 99.6027 53.4165 99.9547 54.3551 100.232C55.3151 100.488 56.2645 100.68 57.2031 100.808C58.1631 100.936 59.0271 101 59.7951 101C60.8405 101 61.9391 100.915 63.0911 100.744C64.2431 100.573 65.3631 100.285 66.4511 99.88C67.5391 99.4747 68.5418 98.952 69.4591 98.312C70.3978 97.672 71.1658 96.8933 71.7631 95.976L72.5951 94.664H64.6911C64.0298 95.1973 63.2511 95.5813 62.3551 95.816C61.4805 96.0293 60.6271 96.136 59.7951 96.136ZM53.9391 91.016C54.3658 90.4187 55.0698 89.992 56.0511 89.736C57.0538 89.4587 58.1205 89.32 59.2511 89.32C59.8271 89.32 60.4031 89.3627 60.9791 89.448C61.5551 89.512 62.0778 89.6187 62.5471 89.768C63.0378 89.896 63.4538 90.0667 63.7951 90.28C64.1578 90.4933 64.4138 90.7387 64.5631 91.016H53.9391ZM62.3871 90.376C61.8751 90.248 61.3631 90.152 60.8511 90.088C60.3391 90.0027 59.8058 89.96 59.2511 89.96C58.7605 89.96 58.2378 89.992 57.6831 90.056C57.1285 90.0987 56.6058 90.2053 56.1151 90.376H62.3871ZM88.7321 84.104C89.2655 84.104 89.8948 84.1467 90.6201 84.232C91.3455 84.3173 92.0921 84.456 92.8601 84.648C93.6495 84.84 94.4175 85.096 95.1641 85.416C95.9108 85.736 96.5828 86.1413 97.1801 86.632C97.7775 87.1013 98.2575 87.6667 98.6201 88.328C98.9828 88.968 99.1641 89.704 99.1641 90.536V101C99.1641 101.171 99.1001 101.32 98.9721 101.448C98.8441 101.576 98.6948 101.64 98.5241 101.64H91.4201C91.2495 101.64 91.1001 101.576 90.9721 101.448C90.8441 101.32 90.7801 101.171 90.7801 101V90.536C90.7801 90.2373 90.6521 90.0027 90.3961 89.832C90.1401 89.64 89.8308 89.4907 89.4681 89.384C89.1268 89.2773 88.7748 89.2133 88.4121 89.192C88.0495 89.1493 87.7615 89.128 87.5481 89.128C87.3135 89.128 86.9615 89.16 86.4921 89.224C86.0441 89.2667 85.5855 89.352 85.1161 89.48C84.6468 89.608 84.2415 89.7787 83.9001 89.992C83.5588 90.2053 83.3881 90.472 83.3881 90.792V101C83.3881 101.171 83.3241 101.32 83.1961 101.448C83.0681 101.576 82.9188 101.64 82.7481 101.64H75.2601C75.0895 101.64 74.9401 101.576 74.8121 101.448C74.6841 101.32 74.6201 101.171 74.6201 101V85.032C74.6201 84.8613 74.6841 84.712 74.8121 84.584C74.9401 84.456 75.0895 84.392 75.2601 84.392H82.7481C82.9188 84.392 83.0681 84.456 83.1961 84.584C83.3241 84.712 83.3881 84.8613 83.3881 85.032V85.16C83.7935 84.9467 84.2308 84.776 84.7001 84.648C85.1695 84.4987 85.6388 84.392 86.1081 84.328C86.5988 84.2427 87.0681 84.1893 87.5161 84.168C87.9641 84.1253 88.3695 84.104 88.7321 84.104ZM82.7481 86.408V85.032H75.2601V101H82.7481V90.792C82.7481 90.344 82.9295 89.9707 83.2921 89.672C83.6761 89.3733 84.1241 89.1387 84.6361 88.968C85.1695 88.776 85.7028 88.648 86.2361 88.584C86.7908 88.52 87.2281 88.488 87.5481 88.488C87.8681 88.488 88.2415 88.52 88.6681 88.584C89.1161 88.6267 89.5428 88.7227 89.9481 88.872C90.3535 89.0213 90.6948 89.2347 90.9721 89.512C91.2708 89.768 91.4201 90.1093 91.4201 90.536V101H98.5241V90.536C98.5241 89.448 98.1721 88.5413 97.4681 87.816C96.7641 87.0693 95.9001 86.472 94.8761 86.024C93.8521 85.5547 92.7748 85.224 91.6441 85.032C90.5348 84.84 89.5641 84.744 88.7321 84.744C88.2841 84.744 87.7828 84.7653 87.2281 84.808C86.6735 84.8507 86.1188 84.936 85.5641 85.064C85.0308 85.192 84.5081 85.3627 83.9961 85.576C83.5055 85.7893 83.0895 86.0667 82.7481 86.408ZM136.956 93.992C137.255 93.992 137.457 94.088 137.564 94.28C137.692 94.472 137.671 94.7067 137.5 94.984C137.351 95.1973 137.212 95.4107 137.084 95.624C136.956 95.8373 136.817 96.0613 136.668 96.296C136.007 97.2987 135.185 98.1413 134.204 98.824C133.223 99.4853 132.156 100.029 131.004 100.456C129.873 100.861 128.711 101.149 127.516 101.32C126.343 101.512 125.223 101.608 124.156 101.608C123.388 101.608 122.513 101.544 121.532 101.416C120.572 101.288 119.591 101.085 118.588 100.808C117.585 100.531 116.604 100.168 115.644 99.72C114.705 99.272 113.863 98.728 113.116 98.088C112.369 97.4267 111.761 96.6693 111.292 95.816C110.844 94.9413 110.62 93.96 110.62 92.872C110.62 91.7627 110.844 90.7813 111.292 89.928C111.761 89.0747 112.359 88.328 113.084 87.688C113.831 87.0267 114.684 86.472 115.644 86.024C116.604 85.576 117.585 85.2133 118.588 84.936C119.591 84.6373 120.572 84.424 121.532 84.296C122.513 84.168 123.388 84.104 124.156 84.104C125.223 84.104 126.343 84.2 127.516 84.392C128.711 84.5627 129.873 84.8613 131.004 85.288C132.156 85.6933 133.223 86.2373 134.204 86.92C135.185 87.5813 136.007 88.4133 136.668 89.416C136.817 89.6507 136.956 89.8747 137.084 90.088C137.212 90.28 137.351 90.4933 137.5 90.728C137.671 90.984 137.692 91.2187 137.564 91.432C137.457 91.624 137.255 91.72 136.956 91.72H129.02C128.999 91.72 128.935 91.6987 128.828 91.656C128.721 91.6133 128.657 91.592 128.636 91.592C128.017 91.1013 127.313 90.76 126.524 90.568C125.756 90.3547 124.967 90.248 124.156 90.248C123.815 90.248 123.345 90.3013 122.748 90.408C122.151 90.4933 121.575 90.6427 121.02 90.856C120.465 91.0693 119.975 91.3467 119.548 91.688C119.143 92.008 118.94 92.4027 118.94 92.872C118.94 93.3413 119.143 93.7467 119.548 94.088C119.975 94.408 120.465 94.6747 121.02 94.888C121.575 95.08 122.151 95.2293 122.748 95.336C123.345 95.4213 123.815 95.464 124.156 95.464C124.967 95.464 125.767 95.368 126.556 95.176C127.345 94.9627 128.049 94.6107 128.668 94.12C128.689 94.0987 128.753 94.0773 128.86 94.056C128.967 94.0133 129.031 93.992 129.052 93.992H136.956ZM129.052 94.632C128.391 95.1653 127.612 95.5493 126.716 95.784C125.841 95.9973 124.988 96.104 124.156 96.104C123.708 96.104 123.153 96.0507 122.492 95.944C121.831 95.816 121.18 95.624 120.54 95.368C119.921 95.112 119.388 94.7813 118.94 94.376C118.513 93.9707 118.3 93.4693 118.3 92.872C118.3 92.296 118.513 91.8053 118.94 91.4C119.388 90.9733 119.921 90.632 120.54 90.376C121.159 90.0987 121.799 89.9067 122.46 89.8C123.121 89.672 123.687 89.608 124.156 89.608C124.967 89.608 125.809 89.7253 126.684 89.96C127.58 90.1733 128.359 90.5467 129.02 91.08H136.956L136.124 89.768C135.527 88.8507 134.759 88.072 133.82 87.432C132.903 86.792 131.9 86.28 130.812 85.896C129.724 85.4907 128.604 85.2027 127.452 85.032C126.3 84.84 125.201 84.744 124.156 84.744C123.388 84.744 122.524 84.808 121.564 84.936C120.625 85.064 119.676 85.2667 118.716 85.544C117.777 85.8 116.86 86.1413 115.964 86.568C115.068 86.9947 114.268 87.5173 113.564 88.136C112.86 88.7333 112.295 89.4267 111.868 90.216C111.463 91.0053 111.26 91.8907 111.26 92.872C111.26 93.8533 111.463 94.7387 111.868 95.528C112.295 96.3173 112.849 97.0107 113.532 97.608C114.236 98.2053 115.036 98.7173 115.932 99.144C116.828 99.5707 117.756 99.9227 118.716 100.2C119.676 100.456 120.625 100.648 121.564 100.776C122.503 100.904 123.367 100.968 124.156 100.968C125.18 100.968 126.268 100.883 127.42 100.712C128.593 100.541 129.724 100.253 130.812 99.848C131.9 99.4427 132.903 98.92 133.82 98.28C134.759 97.64 135.527 96.8613 136.124 95.944L136.956 94.632H129.052ZM167.317 92.968C167.317 94.0773 167.061 95.0693 166.549 95.944C166.037 96.7973 165.365 97.544 164.533 98.184C163.701 98.824 162.751 99.3573 161.685 99.784C160.639 100.211 159.573 100.552 158.485 100.808C157.418 101.064 156.383 101.245 155.381 101.352C154.378 101.48 153.503 101.544 152.757 101.544C152.031 101.544 151.157 101.48 150.133 101.352C149.13 101.245 148.085 101.064 146.997 100.808C145.93 100.552 144.863 100.211 143.797 99.784C142.751 99.336 141.813 98.8027 140.981 98.184C140.149 97.544 139.477 96.7973 138.965 95.944C138.453 95.0693 138.197 94.0773 138.197 92.968C138.197 91.8373 138.453 90.8453 138.965 89.992C139.477 89.1387 140.149 88.392 140.981 87.752C141.813 87.112 142.751 86.5787 143.797 86.152C144.863 85.7253 145.93 85.384 146.997 85.128C148.085 84.872 149.13 84.6907 150.133 84.584C151.135 84.456 152.01 84.392 152.757 84.392C153.503 84.392 154.378 84.456 155.381 84.584C156.383 84.6907 157.418 84.872 158.485 85.128C159.573 85.384 160.639 85.7253 161.685 86.152C162.751 86.5787 163.701 87.112 164.533 87.752C165.365 88.392 166.037 89.1493 166.549 90.024C167.061 90.8773 167.317 91.8587 167.317 92.968ZM152.757 85.032C151.989 85.032 151.114 85.096 150.133 85.224C149.151 85.3307 148.138 85.512 147.093 85.768C146.069 86.0027 145.055 86.3333 144.053 86.76C143.071 87.1653 142.186 87.6667 141.397 88.264C140.629 88.84 140.01 89.5227 139.541 90.312C139.071 91.08 138.837 91.9653 138.837 92.968C138.837 93.9707 139.071 94.8667 139.541 95.656C140.031 96.424 140.661 97.1067 141.429 97.704C142.197 98.28 143.071 98.7707 144.053 99.176C145.055 99.5813 146.069 99.912 147.093 100.168C148.138 100.424 149.151 100.616 150.133 100.744C151.114 100.851 151.989 100.904 152.757 100.904C153.525 100.904 154.399 100.851 155.381 100.744C156.362 100.616 157.365 100.435 158.389 100.2C159.434 99.944 160.447 99.6133 161.429 99.208C162.431 98.7813 163.317 98.28 164.085 97.704C164.874 97.1067 165.503 96.424 165.973 95.656C166.442 94.8667 166.677 93.9707 166.677 92.968C166.677 91.9653 166.442 91.08 165.973 90.312C165.503 89.5227 164.874 88.84 164.085 88.264C163.317 87.6667 162.431 87.1653 161.429 86.76C160.447 86.3333 159.434 86.0027 158.389 85.768C157.365 85.512 156.362 85.3307 155.381 85.224C154.399 85.096 153.525 85.032 152.757 85.032ZM159.061 92.968C159.061 93.544 158.805 94.024 158.293 94.408C157.802 94.792 157.215 95.112 156.533 95.368C155.85 95.6027 155.157 95.7733 154.453 95.88C153.749 95.9867 153.183 96.04 152.757 96.04C152.33 96.04 151.765 95.9867 151.061 95.88C150.357 95.7733 149.663 95.6027 148.981 95.368C148.298 95.112 147.701 94.792 147.189 94.408C146.698 94.024 146.453 93.544 146.453 92.968C146.453 92.392 146.698 91.912 147.189 91.528C147.701 91.144 148.298 90.8347 148.981 90.6C149.663 90.344 150.357 90.1627 151.061 90.056C151.765 89.9493 152.33 89.896 152.757 89.896C153.183 89.896 153.749 89.9493 154.453 90.056C155.178 90.1413 155.882 90.312 156.565 90.568C157.247 90.8027 157.834 91.1227 158.325 91.528C158.815 91.912 159.061 92.392 159.061 92.968ZM152.757 90.536C152.437 90.536 151.957 90.5893 151.317 90.696C150.698 90.7813 150.069 90.92 149.429 91.112C148.81 91.304 148.266 91.56 147.797 91.88C147.327 92.1787 147.093 92.5413 147.093 92.968C147.093 93.3947 147.327 93.768 147.797 94.088C148.266 94.3867 148.81 94.632 149.429 94.824C150.069 95.016 150.698 95.1653 151.317 95.272C151.957 95.3573 152.437 95.4 152.757 95.4C153.077 95.4 153.546 95.3573 154.165 95.272C154.805 95.1653 155.434 95.016 156.053 94.824C156.693 94.632 157.247 94.3867 157.717 94.088C158.186 93.768 158.421 93.3947 158.421 92.968C158.421 92.52 158.186 92.1467 157.717 91.848C157.247 91.528 156.703 91.272 156.085 91.08C155.466 90.888 154.837 90.7493 154.197 90.664C153.557 90.5787 153.077 90.536 152.757 90.536ZM193.435 84.392C193.606 84.392 193.755 84.456 193.883 84.584C194.011 84.712 194.075 84.8613 194.075 85.032V100.776C194.075 100.947 194.011 101.096 193.883 101.224C193.755 101.352 193.606 101.416 193.435 101.416H185.947C185.776 101.416 185.627 101.352 185.499 101.224C185.371 101.096 185.307 100.947 185.307 100.776C184.283 101.181 183.174 101.448 181.979 101.576C180.784 101.704 179.707 101.768 178.747 101.768C178.064 101.768 177.318 101.725 176.507 101.64C175.696 101.576 174.886 101.448 174.075 101.256C173.264 101.064 172.475 100.808 171.707 100.488C170.96 100.168 170.299 99.7627 169.723 99.272C169.147 98.7813 168.678 98.2053 168.315 97.544C167.974 96.8613 167.803 96.072 167.803 95.176V85.032C167.803 84.8613 167.867 84.712 167.995 84.584C168.123 84.456 168.272 84.392 168.443 84.392H175.931C176.102 84.392 176.251 84.456 176.379 84.584C176.507 84.712 176.571 84.8613 176.571 85.032V93.96C176.571 94.28 176.71 94.5467 176.987 94.76C177.286 94.9733 177.627 95.144 178.011 95.272C178.416 95.3787 178.822 95.464 179.227 95.528C179.632 95.5707 179.952 95.592 180.187 95.592C180.443 95.592 180.848 95.5813 181.403 95.56C181.979 95.5387 182.555 95.4747 183.131 95.368C183.707 95.2613 184.208 95.1013 184.635 94.888C185.083 94.6533 185.307 94.344 185.307 93.96V85.032C185.307 84.8613 185.371 84.712 185.499 84.584C185.627 84.456 185.776 84.392 185.947 84.392H193.435ZM185.947 85.032V93.96C185.947 94.5147 185.712 94.952 185.243 95.272C184.795 95.5707 184.251 95.7947 183.611 95.944C182.992 96.072 182.363 96.1573 181.723 96.2C181.083 96.2213 180.571 96.232 180.187 96.232C179.867 96.232 179.462 96.2 178.971 96.136C178.48 96.072 178.011 95.9547 177.563 95.784C177.115 95.592 176.731 95.3573 176.411 95.08C176.091 94.7813 175.931 94.408 175.931 93.96V85.032H168.443V95.176C168.443 96.392 168.806 97.3947 169.531 98.184C170.256 98.952 171.142 99.56 172.187 100.008C173.254 100.435 174.374 100.733 175.547 100.904C176.742 101.053 177.808 101.128 178.747 101.128C179.302 101.128 179.888 101.107 180.507 101.064C181.147 101.021 181.787 100.947 182.427 100.84C183.067 100.733 183.686 100.595 184.283 100.424C184.902 100.232 185.456 99.9973 185.947 99.72V100.776H193.435V85.032H185.947ZM213.498 89.864C213.498 90.0347 213.434 90.184 213.306 90.312C213.178 90.44 213.028 90.504 212.858 90.504C212.431 90.504 212.004 90.504 211.578 90.504C211.172 90.4827 210.756 90.4827 210.33 90.504C209.519 90.5467 208.74 90.6427 207.994 90.792C207.268 90.9413 206.554 91.2187 205.85 91.624C205.167 92.0293 204.826 92.456 204.826 92.904V101C204.826 101.171 204.762 101.32 204.634 101.448C204.506 101.576 204.356 101.64 204.186 101.64H196.698C196.527 101.64 196.378 101.576 196.25 101.448C196.122 101.32 196.058 101.171 196.058 101V85.032C196.058 84.8613 196.122 84.712 196.25 84.584C196.378 84.456 196.527 84.392 196.698 84.392H204.186C204.356 84.392 204.506 84.456 204.634 84.584C204.762 84.712 204.826 84.8613 204.826 85.032V85.224C205.423 85.032 206.02 84.8827 206.618 84.776C207.215 84.6693 207.812 84.5947 208.41 84.552C209.156 84.488 209.892 84.456 210.618 84.456C211.364 84.4347 212.111 84.424 212.858 84.424C213.028 84.424 213.178 84.488 213.306 84.616C213.434 84.744 213.498 84.8933 213.498 85.064V89.864ZM211.45 85.064C210.212 85.064 208.986 85.128 207.77 85.256C206.554 85.384 205.359 85.672 204.186 86.12V85.032H196.698V101H204.186V92.904C204.186 92.3493 204.42 91.88 204.89 91.496C205.359 91.112 205.914 90.8027 206.554 90.568C207.215 90.3333 207.887 90.1627 208.57 90.056C209.274 89.928 209.85 89.864 210.298 89.864H212.858V85.064H211.45ZM220.41 94.856C219.77 94.728 219.023 94.5467 218.17 94.312C217.317 94.0773 216.517 93.768 215.77 93.384C215.023 92.9787 214.383 92.4773 213.85 91.88C213.338 91.2827 213.082 90.5573 213.082 89.704C213.082 88.9147 213.295 88.232 213.722 87.656C214.17 87.08 214.746 86.5893 215.45 86.184C216.154 85.7787 216.943 85.448 217.818 85.192C218.693 84.9147 219.567 84.7013 220.442 84.552C221.338 84.4027 222.191 84.3067 223.002 84.264C223.834 84.2 224.527 84.168 225.082 84.168C225.615 84.168 226.287 84.1893 227.098 84.232C227.93 84.2747 228.794 84.36 229.69 84.488C230.607 84.616 231.525 84.7973 232.442 85.032C233.359 85.2667 234.181 85.576 234.906 85.96C235.631 86.3227 236.218 86.7813 236.666 87.336C237.135 87.8907 237.37 88.5413 237.37 89.288V90.248C237.37 90.4187 237.306 90.568 237.178 90.696C237.05 90.824 236.901 90.888 236.73 90.888H231.45C232.495 91.1227 233.477 91.4 234.394 91.72C235.333 92.0187 236.111 92.3813 236.73 92.808C237.178 93.1707 237.573 93.6187 237.914 94.152C238.255 94.664 238.426 95.2613 238.426 95.944C238.426 96.7547 238.191 97.4693 237.722 98.088C237.253 98.6853 236.634 99.1973 235.866 99.624C235.119 100.029 234.277 100.36 233.338 100.616C232.399 100.872 231.45 101.064 230.49 101.192C229.551 101.341 228.645 101.437 227.77 101.48C226.917 101.544 226.191 101.576 225.594 101.576C225.061 101.576 224.367 101.555 223.514 101.512C222.661 101.469 221.743 101.384 220.762 101.256C219.802 101.128 218.831 100.947 217.85 100.712C216.869 100.477 215.983 100.179 215.194 99.816C214.405 99.432 213.765 98.9627 213.274 98.408C212.783 97.8533 212.538 97.2027 212.538 96.456V95.496C212.538 95.3253 212.602 95.176 212.73 95.048C212.858 94.92 213.007 94.856 213.178 94.856H220.41ZM236.346 93.32C235.706 92.8507 234.906 92.4667 233.946 92.168C232.986 91.848 231.962 91.592 230.874 91.4C229.786 91.1867 228.687 91.016 227.578 90.888C226.469 90.7387 225.445 90.6107 224.506 90.504C223.589 90.376 222.81 90.2587 222.17 90.152C221.551 90.024 221.178 89.8747 221.05 89.704L221.146 89.672C221.231 89.544 221.466 89.4373 221.85 89.352C222.234 89.2453 222.65 89.1707 223.098 89.128C223.567 89.0853 224.015 89.0533 224.442 89.032C224.869 89.0107 225.157 89 225.306 89C225.861 89 226.415 89.0213 226.97 89.064C227.525 89.1067 228.079 89.1813 228.634 89.288L228.666 89.32L229.434 89.512V90.248H236.73V89.288C236.73 88.6267 236.506 88.0613 236.058 87.592C235.61 87.1013 235.023 86.696 234.298 86.376C233.594 86.0347 232.805 85.768 231.93 85.576C231.055 85.3627 230.181 85.2027 229.306 85.096C228.453 84.9893 227.642 84.9147 226.874 84.872C226.127 84.8293 225.53 84.808 225.082 84.808C224.613 84.808 224.005 84.84 223.258 84.904C222.511 84.9467 221.711 85.032 220.858 85.16C220.026 85.288 219.183 85.4693 218.33 85.704C217.477 85.9387 216.709 86.2373 216.026 86.6C215.343 86.9627 214.789 87.4 214.362 87.912C213.935 88.424 213.722 89.0213 213.722 89.704C213.722 90.2587 213.861 90.7493 214.138 91.176C214.437 91.5813 214.789 91.944 215.194 92.264C215.855 92.776 216.634 93.192 217.53 93.512C218.447 93.8107 219.418 94.056 220.442 94.248C221.466 94.44 222.501 94.5893 223.546 94.696C224.591 94.7813 225.573 94.8773 226.49 94.984C227.407 95.0693 228.207 95.176 228.89 95.304C229.594 95.432 230.117 95.6133 230.458 95.848C230.437 95.8693 230.437 95.88 230.458 95.88C230.501 95.88 230.522 95.8907 230.522 95.912C230.437 96.104 230.149 96.2533 229.658 96.36C229.189 96.4667 228.666 96.552 228.09 96.616C227.514 96.6587 226.959 96.6907 226.426 96.712C225.914 96.7333 225.562 96.744 225.37 96.744C224.538 96.744 223.706 96.7013 222.874 96.616C222.063 96.5307 221.253 96.36 220.442 96.104V95.496H213.178V96.456C213.178 97.1173 213.423 97.6933 213.914 98.184C214.405 98.6533 215.023 99.0587 215.77 99.4C216.538 99.72 217.391 99.9867 218.33 100.2C219.29 100.392 220.229 100.541 221.146 100.648C222.063 100.755 222.917 100.829 223.706 100.872C224.495 100.915 225.125 100.936 225.594 100.936C226.106 100.936 226.767 100.915 227.578 100.872C228.389 100.829 229.242 100.744 230.138 100.616C231.034 100.488 231.941 100.307 232.858 100.072C233.775 99.8373 234.597 99.5387 235.322 99.176C236.047 98.8133 236.634 98.3653 237.082 97.832C237.551 97.2987 237.786 96.6693 237.786 95.944C237.786 95.3893 237.647 94.8987 237.37 94.472C237.114 94.0453 236.773 93.672 236.346 93.352V93.32ZM228.826 90.408C228.805 90.3867 228.794 90.3333 228.794 90.248V90.024L228.506 89.928C228.485 89.928 228.431 89.9067 228.346 89.864C228.261 89.8213 228.218 89.7893 228.218 89.768C227.834 89.7253 227.386 89.6933 226.874 89.672C226.383 89.6507 225.861 89.64 225.306 89.64C225.135 89.64 224.901 89.6507 224.602 89.672C224.325 89.672 224.015 89.6827 223.674 89.704C224.25 89.7893 224.879 89.8747 225.562 89.96C226.266 90.0453 226.991 90.1413 227.738 90.248C227.909 90.2907 228.079 90.3227 228.25 90.344C228.442 90.344 228.634 90.3653 228.826 90.408ZM228.57 95.912C228.527 95.8907 228.474 95.88 228.41 95.88C228.346 95.88 228.271 95.8693 228.186 95.848C227.589 95.7627 226.917 95.688 226.17 95.624C225.445 95.5387 224.677 95.4533 223.866 95.368C223.354 95.304 222.831 95.24 222.298 95.176C221.765 95.0907 221.221 94.9947 220.666 94.888C220.943 94.9947 221.082 95.1973 221.082 95.496V95.624C221.765 95.816 222.458 95.944 223.162 96.008C223.887 96.072 224.623 96.104 225.37 96.104C225.605 96.104 225.967 96.0933 226.458 96.072C226.97 96.0507 227.503 96.0187 228.058 95.976C228.143 95.9547 228.229 95.944 228.314 95.944C228.399 95.944 228.485 95.9333 228.57 95.912Z" fill="#242121"/>
</svg>
