<svg width="41" height="41" viewBox="0 0 41 41" fill="none" xmlns="http://www.w3.org/2000/svg">
<path d="M0 6.40625C0 6.06644 0.134988 5.74055 0.375269 5.50027C0.61555 5.25999 0.941441 5.125 1.28125 5.125H5.125C5.4108 5.12508 5.68837 5.22071 5.91356 5.39669C6.13876 5.57267 6.29865 5.81888 6.36781 6.09619L7.40563 10.25H37.1562C37.3509 10.2501 37.5429 10.2944 37.7178 10.3798C37.8927 10.4652 38.0459 10.5892 38.1657 10.7426C38.2855 10.896 38.3687 11.0747 38.4092 11.265C38.4496 11.4554 38.4462 11.6525 38.3991 11.8413L34.5553 27.2163C34.4861 27.4936 34.3263 27.7398 34.1011 27.9158C33.8759 28.0918 33.5983 28.1874 33.3125 28.1875H10.25C9.9642 28.1874 9.68663 28.0918 9.46144 27.9158C9.23624 27.7398 9.07635 27.4936 9.00719 27.2163L4.12563 7.6875H1.28125C0.941441 7.6875 0.61555 7.55251 0.375269 7.31223C0.134988 7.07195 0 6.74606 0 6.40625ZM8.04625 12.8125L9.3275 17.9375H12.8125V12.8125H8.04625ZM15.375 12.8125V17.9375H20.5V12.8125H15.375ZM23.0625 12.8125V17.9375H28.1875V12.8125H23.0625ZM30.75 12.8125V17.9375H34.235L35.5163 12.8125H30.75ZM33.5944 20.5H30.75V25.625H32.3131L33.5944 20.5ZM28.1875 20.5H23.0625V25.625H28.1875V20.5ZM20.5 20.5H15.375V25.625H20.5V20.5ZM12.8125 20.5H9.96813L11.2494 25.625H12.8125V20.5ZM12.8125 33.3125C12.1329 33.3125 11.4811 33.5825 11.0005 34.063C10.52 34.5436 10.25 35.1954 10.25 35.875C10.25 36.5546 10.52 37.2064 11.0005 37.687C11.4811 38.1675 12.1329 38.4375 12.8125 38.4375C13.4921 38.4375 14.1439 38.1675 14.6245 37.687C15.105 37.2064 15.375 36.5546 15.375 35.875C15.375 35.1954 15.105 34.5436 14.6245 34.063C14.1439 33.5825 13.4921 33.3125 12.8125 33.3125ZM7.6875 35.875C7.6875 34.5158 8.22745 33.2122 9.18858 32.2511C10.1497 31.29 11.4533 30.75 12.8125 30.75C14.1717 30.75 15.4753 31.29 16.4364 32.2511C17.3975 33.2122 17.9375 34.5158 17.9375 35.875C17.9375 37.2342 17.3975 38.5378 16.4364 39.4989C15.4753 40.46 14.1717 41 12.8125 41C11.4533 41 10.1497 40.46 9.18858 39.4989C8.22745 38.5378 7.6875 37.2342 7.6875 35.875ZM30.75 33.3125C30.0704 33.3125 29.4186 33.5825 28.938 34.063C28.4575 34.5436 28.1875 35.1954 28.1875 35.875C28.1875 36.5546 28.4575 37.2064 28.938 37.687C29.4186 38.1675 30.0704 38.4375 30.75 38.4375C31.4296 38.4375 32.0814 38.1675 32.562 37.687C33.0425 37.2064 33.3125 36.5546 33.3125 35.875C33.3125 35.1954 33.0425 34.5436 32.562 34.063C32.0814 33.5825 31.4296 33.3125 30.75 33.3125ZM25.625 35.875C25.625 34.5158 26.165 33.2122 27.1261 32.2511C28.0872 31.29 29.3908 30.75 30.75 30.75C32.1092 30.75 33.4128 31.29 34.3739 32.2511C35.335 33.2122 35.875 34.5158 35.875 35.875C35.875 37.2342 35.335 38.5378 34.3739 39.4989C33.4128 40.46 32.1092 41 30.75 41C29.3908 41 28.0872 40.46 27.1261 39.4989C26.165 38.5378 25.625 37.2342 25.625 35.875Z" fill="#70CA5A"/>
</svg>
