<svg width="16" height="16" viewBox="0 0 16 16" fill="none" xmlns="http://www.w3.org/2000/svg">
<path d="M2.5 15C2.36739 15 2.24021 14.9473 2.14645 14.8535C2.05268 14.7598 2 14.6326 2 14.5C2 14.3674 2.05268 14.2402 2.14645 14.1464C2.24021 14.0526 2.36739 14 2.5 14H3.5V13C3.49979 12.1509 3.73979 11.3192 4.19225 10.6007C4.64471 9.88233 5.29119 9.30656 6.057 8.93997C6.347 8.80097 6.5 8.56297 6.5 8.34997V7.64997C6.5 7.43697 6.346 7.19897 6.057 7.05997C5.29119 6.69338 4.64471 6.11761 4.19225 5.39919C3.73979 4.68077 3.49979 3.849 3.5 2.99997V1.99997H2.5C2.36739 1.99997 2.24021 1.94729 2.14645 1.85352C2.05268 1.75975 2 1.63258 2 1.49997C2 1.36736 2.05268 1.24018 2.14645 1.14642C2.24021 1.05265 2.36739 0.999969 2.5 0.999969H13.5C13.6326 0.999969 13.7598 1.05265 13.8536 1.14642C13.9473 1.24018 14 1.36736 14 1.49997C14 1.63258 13.9473 1.75975 13.8536 1.85352C13.7598 1.94729 13.6326 1.99997 13.5 1.99997H12.5V2.99997C12.5002 3.849 12.2602 4.68077 11.8078 5.39919C11.3553 6.11761 10.7088 6.69338 9.943 7.05997C9.653 7.19897 9.5 7.43697 9.5 7.64997V8.34997C9.5 8.56297 9.654 8.80097 9.943 8.93997C10.7088 9.30656 11.3553 9.88233 11.8078 10.6007C12.2602 11.3192 12.5002 12.1509 12.5 13V14H13.5C13.6326 14 13.7598 14.0526 13.8536 14.1464C13.9473 14.2402 14 14.3674 14 14.5C14 14.6326 13.9473 14.7598 13.8536 14.8535C13.7598 14.9473 13.6326 15 13.5 15H2.5ZM4.5 1.99997V2.99997C4.5 3.53697 4.62 4.04497 4.837 4.49997H11.163C11.379 4.04497 11.5 3.53697 11.5 2.99997V1.99997H4.5ZM7.5 8.34997C7.5 9.05097 7.022 9.58597 6.489 9.84197C5.89329 10.1271 5.39041 10.5749 5.03845 11.1337C4.68649 11.6926 4.49982 12.3396 4.5 13C4.5 13 5.366 11.701 7.5 11.52V8.34997ZM8.5 8.34997V11.52C10.634 11.701 11.5 13 11.5 13C11.5002 12.3396 11.3135 11.6926 10.9615 11.1337C10.6096 10.5749 10.1067 10.1271 9.511 9.84197C8.978 9.58597 8.5 9.05097 8.5 8.34997Z" fill="#70CA5A"/>
</svg>
