<svg width="50" height="25" viewBox="0 0 50 25" fill="none" xmlns="http://www.w3.org/2000/svg">
<path d="M0 5.64516C0 2.52743 2.52743 0 5.64516 0H44.3548C47.4726 0 50 2.52743 50 5.64516V19.3548C50 22.4726 47.4726 25 44.3548 25H5.64516C2.52743 25 0 22.4726 0 19.3548V5.64516Z" fill="black"/>
<path d="M23.9127 15.6903C23.9127 16.3355 23.7191 16.8968 23.332 17.3742C22.9578 17.8516 22.4611 18.2581 21.8417 18.5935C21.2353 18.9161 20.5514 19.1806 19.7901 19.3871C19.0288 19.5935 18.2611 19.7548 17.4869 19.871C16.7256 19.9871 15.9965 20.0645 15.2998 20.1032C14.603 20.1419 14.0224 20.1613 13.5578 20.1613C13.0546 20.1613 12.4546 20.1355 11.7578 20.0839C11.074 20.0194 10.3643 19.9226 9.62881 19.7935C8.90623 19.6516 8.18364 19.4581 7.46106 19.2129C6.75139 18.9677 6.11268 18.6645 5.54493 18.3032C4.97719 17.929 4.51913 17.4839 4.17074 16.9677C3.82235 16.4516 3.64816 15.8516 3.64816 15.1677H8.9901C8.9901 15.4258 9.07397 15.6516 9.24171 15.8452C9.42235 16.0258 9.64816 16.1806 9.91913 16.3097C10.203 16.4387 10.5127 16.5419 10.8482 16.6194C11.1965 16.6968 11.5385 16.7613 11.874 16.8129C12.2095 16.8516 12.5256 16.8839 12.8224 16.9097C13.1191 16.9226 13.3578 16.929 13.5385 16.929C13.7836 16.929 14.1643 16.9161 14.6804 16.8903C15.1965 16.8645 15.7256 16.8129 16.2675 16.7355C16.8095 16.6581 17.2998 16.5419 17.7385 16.3871C18.1772 16.2323 18.4417 16.0258 18.532 15.7677L18.5514 15.7484V15.5742C18.5514 15.3677 18.4288 15.1935 18.1836 15.0516C17.9514 14.8968 17.6482 14.7677 17.274 14.6645C16.8998 14.5613 16.4869 14.4774 16.0353 14.4129C15.5965 14.3484 15.1643 14.2968 14.7385 14.2581C14.3256 14.2194 13.9514 14.1935 13.6159 14.1806C13.2933 14.1548 13.0611 14.1355 12.9191 14.1226V10.7355C13.0224 10.7226 13.1901 10.7161 13.4224 10.7161C13.6675 10.7161 13.9385 10.7097 14.2353 10.6968C14.5449 10.6839 14.8611 10.6645 15.1836 10.6387C15.5191 10.6129 15.8224 10.5806 16.0933 10.5419C16.3643 10.4903 16.5836 10.4258 16.7514 10.3484C16.932 10.271 17.0224 10.1742 17.0224 10.0581C17.0224 9.7871 16.874 9.56774 16.5772 9.4C16.2933 9.21935 15.9578 9.08387 15.5707 8.99355C15.1836 8.90322 14.7965 8.84516 14.4095 8.81935C14.0224 8.78064 13.732 8.76129 13.5385 8.76129C13.3191 8.76129 12.9901 8.79355 12.5514 8.85806C12.1256 8.90968 11.6933 9 11.2546 9.12903C10.8159 9.25806 10.4288 9.42581 10.0933 9.63226C9.75784 9.82581 9.58364 10.0645 9.57074 10.3484H4.22881C4.22881 9.72903 4.3901 9.18064 4.71268 8.70323C5.04816 8.22581 5.48042 7.80645 6.00945 7.44516C6.53848 7.08387 7.13848 6.78064 7.80945 6.53548C8.49332 6.29032 9.17719 6.09032 9.86106 5.93548C10.5449 5.78064 11.2095 5.67097 11.8546 5.60645C12.4998 5.54193 13.0546 5.50968 13.5191 5.50968C13.9707 5.50968 14.4998 5.54193 15.1062 5.60645C15.7256 5.65806 16.3643 5.75484 17.0224 5.89677C17.6804 6.03871 18.3256 6.22581 18.9578 6.45806C19.603 6.69032 20.1772 6.97419 20.6804 7.30968C21.1965 7.64516 21.6095 8.04516 21.9191 8.50968C22.2417 8.96129 22.403 9.49032 22.403 10.0968C22.403 10.5226 22.274 10.9226 22.0159 11.2968C21.7707 11.671 21.4869 11.9871 21.1643 12.2452C21.4869 12.4516 21.8095 12.671 22.132 12.9032C22.4675 13.1226 22.7643 13.3677 23.0224 13.6387C23.2804 13.8968 23.4933 14.1935 23.6611 14.529C23.8288 14.8645 23.9127 15.2516 23.9127 15.6903Z" fill="white"/>
<path d="M35.0771 5.50968C36.1868 5.50968 37.2577 5.54193 38.29 5.60645C39.3352 5.65806 40.3158 5.78064 41.2319 5.97419C42.161 6.15484 43.0061 6.4129 43.7674 6.74839C44.5416 7.07097 45.1997 7.50968 45.7416 8.06452C46.2964 8.60645 46.7287 9.27097 47.0384 10.0581C47.3481 10.8452 47.5029 11.7806 47.5029 12.8645C47.5029 14 47.3223 14.9742 46.961 15.7871C46.5997 16.5871 46.1094 17.2645 45.49 17.8194C44.8706 18.3613 44.1545 18.7935 43.3416 19.1161C42.5287 19.4387 41.6642 19.6839 40.7481 19.8516C39.8319 20.0194 38.8964 20.129 37.9416 20.1806C36.9997 20.2323 36.09 20.2581 35.2126 20.2581H27.1223V5.50968H35.0771ZM42.2577 12.8645C42.2577 12.1935 42.1545 11.6387 41.9481 11.2C41.7416 10.7484 41.4642 10.3806 41.1158 10.0968C40.7803 9.8129 40.3803 9.6 39.9158 9.45806C39.4513 9.31613 38.961 9.21935 38.4448 9.16774C37.9416 9.10323 37.419 9.07097 36.8771 9.07097C36.3481 9.07097 35.8319 9.07097 35.3287 9.07097H32.3674V16.7548H35.3287C35.7416 16.7548 36.1997 16.7419 36.7029 16.7161C37.2061 16.6774 37.7158 16.6129 38.2319 16.5226C38.7481 16.4194 39.2448 16.2839 39.7223 16.1161C40.2126 15.9355 40.6448 15.7032 41.019 15.4194C41.3932 15.1226 41.69 14.7677 41.9094 14.3548C42.1416 13.929 42.2577 13.4323 42.2577 12.8645Z" fill="white"/>
</svg>
